  0
SECTION
  2
HEADER
  9
$ACADVER
  1
AC1018
  9
$ACADMAINTVER
 70
     0
  9
$DWGCODEPAGE
  3
ANSI_1252
  9
$INSBASE
 10
0.0
 20
0.0
 30
0.0
  9
$EXTMIN
 10
643075.599999994
 20
6857477
 30
0.0
  9
$EXTMAX
 10
661086.200000003
 20
6867080.90000001
 30
0.0
  9
$LIMMIN
 10
0.0
 20
0.0
  9
$LIMMAX
 10
12.0
 20
9.0
  9
$ORTHOMODE
 70
     0
  9
$REGENMODE
 70
     1
  9
$FILLMODE
 70
     1
  9
$QTEXTMODE
 70
     0
  9
$MIRRTEXT
 70
     1
  9
$LTSCALE
 40
1.0
  9
$ATTMODE
 70
     1
  9
$TEXTSIZE
 40
0.2
  9
$TRACEWID
 40
0.05
  9
$TEXTSTYLE
  7
Standard
  9
$CLAYER
  8
0
  9
$CELTYPE
  6
ByLayer
  9
$CECOLOR
 62
   256
  9
$CELTSCALE
 40
1.0
  9
$DISPSILH
 70
     0
  9
$DIMSCALE
 40
1.0
  9
$DIMASZ
 40
0.18
  9
$DIMEXO
 40
0.0625
  9
$DIMDLI
 40
0.38
  9
$DIMRND
 40
0.0
  9
$DIMDLE
 40
0.0
  9
$DIMEXE
 40
0.18
  9
$DIMTP
 40
0.0
  9
$DIMTM
 40
0.0
  9
$DIMTXT
 40
0.18
  9
$DIMCEN
 40
0.09
  9
$DIMTSZ
 40
0.0
  9
$DIMTOL
 70
     0
  9
$DIMLIM
 70
     0
  9
$DIMTIH
 70
     1
  9
$DIMTOH
 70
     1
  9
$DIMSE1
 70
     0
  9
$DIMSE2
 70
     0
  9
$DIMTAD
 70
     0
  9
$DIMZIN
 70
     0
  9
$DIMBLK
  1

  9
$DIMASO
 70
     1
  9
$DIMSHO
 70
     1
  9
$DIMPOST
  1

  9
$DIMAPOST
  1

  9
$DIMALT
 70
     0
  9
$DIMALTD
 70
     2
  9
$DIMALTF
 40
25.4
  9
$DIMLFAC
 40
1.0
  9
$DIMTOFL
 70
     0
  9
$DIMTVP
 40
0.0
  9
$DIMTIX
 70
     0
  9
$DIMSOXD
 70
     0
  9
$DIMSAH
 70
     0
  9
$DIMBLK1
  1

  9
$DIMBLK2
  1

  9
$DIMSTYLE
  2
Standard
  9
$DIMCLRD
 70
     0
  9
$DIMCLRE
 70
     0
  9
$DIMCLRT
 70
     0
  9
$DIMTFAC
 40
1.0
  9
$DIMGAP
 40
0.09
  9
$DIMJUST
 70
     0
  9
$DIMSD1
 70
     0
  9
$DIMSD2
 70
     0
  9
$DIMTOLJ
 70
     1
  9
$DIMTZIN
 70
     0
  9
$DIMALTZ
 70
     0
  9
$DIMALTTZ
 70
     0
  9
$DIMUPT
 70
     0
  9
$DIMDEC
 70
     4
  9
$DIMTDEC
 70
     4
  9
$DIMALTU
 70
     2
  9
$DIMALTTD
 70
     2
  9
$DIMTXSTY
  7
Standard
  9
$DIMAUNIT
 70
     0
  9
$DIMADEC
 70
     0
  9
$DIMALTRND
 40
0.0
  9
$DIMAZIN
 70
     0
  9
$DIMDSEP
 70
    46
  9
$DIMATFIT
 70
     3
  9
$DIMFRAC
 70
     0
  9
$DIMLDRBLK
  1

  9
$DIMLUNIT
 70
     2
  9
$DIMLWD
 70
    -2
  9
$DIMLWE
 70
    -2
  9
$DIMTMOVE
 70
     0
  9
$LUNITS
 70
     2
  9
$LUPREC
 70
     4
  9
$SKETCHINC
 40
0.1
  9
$FILLETRAD
 40
0.5
  9
$AUNITS
 70
     0
  9
$AUPREC
 70
     0
  9
$MENU
  1
.
  9
$ELEVATION
 40
0.0
  9
$PELEVATION
 40
0.0
  9
$THICKNESS
 40
0.0
  9
$LIMCHECK
 70
     0
  9
$CHAMFERA
 40
0.5
  9
$CHAMFERB
 40
0.5
  9
$CHAMFERC
 40
1.0
  9
$CHAMFERD
 40
0.0
  9
$SKPOLY
 70
     0
  9
$TDCREATE
 40
2455343.56230316
  9
$TDUCREATE
 40
2455343.728969826
  9
$TDUPDATE
 40
2455343.562303171
  9
$TDUUPDATE
 40
2455343.728969838
  9
$TDINDWG
 40
0.0000000116
  9
$TDUSRTIMER
 40
0.0000000116
  9
$USRTIMER
 70
     1
  9
$ANGBASE
 50
0.0
  9
$ANGDIR
 70
     0
  9
$PDMODE
 70
     0
  9
$PDSIZE
 40
0.0
  9
$PLINEWID
 40
0.0
  9
$SPLFRAME
 70
     0
  9
$SPLINETYPE
 70
     6
  9
$SPLINESEGS
 70
     8
  9
$HANDSEED
  5
00020014
  9
$SURFTAB1
 70
     6
  9
$SURFTAB2
 70
     6
  9
$SURFTYPE
 70
     6
  9
$SURFU
 70
     6
  9
$SURFV
 70
     6
  9
$UCSBASE
  2

  9
$UCSNAME
  2

  9
$UCSORG
 10
0.0
 20
0.0
 30
0.0
  9
$UCSXDIR
 10
1.0
 20
0.0
 30
0.0
  9
$UCSYDIR
 10
0.0
 20
1.0
 30
0.0
  9
$UCSORTHOREF
  2

  9
$UCSORTHOVIEW
 70
     0
  9
$UCSORGTOP
 10
0.0
 20
0.0
 30
0.0
  9
$UCSORGBOTTOM
 10
0.0
 20
0.0
 30
0.0
  9
$UCSORGLEFT
 10
0.0
 20
0.0
 30
0.0
  9
$UCSORGRIGHT
 10
0.0
 20
0.0
 30
0.0
  9
$UCSORGFRONT
 10
0.0
 20
0.0
 30
0.0
  9
$UCSORGBACK
 10
0.0
 20
0.0
 30
0.0
  9
$PUCSBASE
  2

  9
$PUCSNAME
  2

  9
$PUCSORG
 10
0.0
 20
0.0
 30
0.0
  9
$PUCSXDIR
 10
1.0
 20
0.0
 30
0.0
  9
$PUCSYDIR
 10
0.0
 20
1.0
 30
0.0
  9
$PUCSORTHOREF
  2

  9
$PUCSORTHOVIEW
 70
     0
  9
$PUCSORGTOP
 10
0.0
 20
0.0
 30
0.0
  9
$PUCSORGBOTTOM
 10
0.0
 20
0.0
 30
0.0
  9
$PUCSORGLEFT
 10
0.0
 20
0.0
 30
0.0
  9
$PUCSORGRIGHT
 10
0.0
 20
0.0
 30
0.0
  9
$PUCSORGFRONT
 10
0.0
 20
0.0
 30
0.0
  9
$PUCSORGBACK
 10
0.0
 20
0.0
 30
0.0
  9
$USERI1
 70
     0
  9
$USERI2
 70
     0
  9
$USERI3
 70
     0
  9
$USERI4
 70
     0
  9
$USERI5
 70
     0
  9
$USERR1
 40
0.0
  9
$USERR2
 40
0.0
  9
$USERR3
 40
0.0
  9
$USERR4
 40
0.0
  9
$USERR5
 40
0.0
  9
$WORLDVIEW
 70
     1
  9
$SHADEDGE
 70
     3
  9
$SHADEDIF
 70
    70
  9
$TILEMODE
 70
     1
  9
$MAXACTVP
 70
    64
  9
$PINSBASE
 10
0.0
 20
0.0
 30
0.0
  9
$PLIMCHECK
 70
     0
  9
$PEXTMIN
 10
1.000000000000000E+20
 20
1.000000000000000E+20
 30
1.000000000000000E+20
  9
$PEXTMAX
 10
-1.000000000000000E+20
 20
-1.000000000000000E+20
 30
-1.000000000000000E+20
  9
$PLIMMIN
 10
0.0
 20
0.0
  9
$PLIMMAX
 10
12.0
 20
9.0
  9
$UNITMODE
 70
     0
  9
$VISRETAIN
 70
     1
  9
$PLINEGEN
 70
     0
  9
$PSLTSCALE
 70
     1
  9
$TREEDEPTH
 70
  3020
  9
$CMLSTYLE
  2
Standard
  9
$CMLJUST
 70
     0
  9
$CMLSCALE
 40
1.0
  9
$PROXYGRAPHICS
 70
     1
  9
$MEASUREMENT
 70
     0
  9
$CELWEIGHT
370
    -1
  9
$ENDCAPS
280
     0
  9
$JOINSTYLE
280
     0
  9
$LWDISPLAY
290
     0
  9
$INSUNITS
 70
     1
  9
$HYPERLINKBASE
  1

  9
$STYLESHEET
  1

  9
$XEDIT
290
     1
  9
$CEPSNTYPE
380
     0
  9
$PSTYLEMODE
290
     1
  9
$FINGERPRINTGUID
  2
{E7F7769E-AACA-40AB-9EF3-61BBAFBCBA26}
  9
$VERSIONGUID
  2
{FAEB1C32-E019-11D5-929B-00C0DF256EC4}
  9
$EXTNAMES
290
     1
  9
$PSVPSCALE
 40
0.0
  9
$OLESTARTUP
290
     0
  9
$SORTENTS
280
   127
  9
$INDEXCTL
280
     0
  9
$HIDETEXT
280
     1
  9
$XCLIPFRAME
290
     0
  9
$HALOGAP
280
     0
  9
$OBSCOLOR
 70
   257
  9
$OBSLTYPE
280
     0
  9
$INTERSECTIONDISPLAY
280
     0
  9
$INTERSECTIONCOLOR
 70
   257
  9
$DIMASSOC
280
     2
  9
$PROJECTNAME
  1

  0
ENDSEC
  0
SECTION
  2
CLASSES
  0
CLASS
  1
ACDBDICTIONARYWDFLT
  2
AcDbDictionaryWithDefault
  3
ObjectDBX Classes
 90
        0
 91
        4
280
     0
281
     0
  0
CLASS
  1
VISUALSTYLE
  2
AcDbVisualStyle
  3
ObjectDBX Classes
 90
     4095
 91
        4
280
     0
281
     0
  0
ENDSEC
  0
SECTION
  2
TABLES
  0
TABLE
  2
VPORT
  5
8
330
0
100
AcDbSymbolTable
 70
     1
  0
VPORT
  5
29
330
8
100
AcDbSymbolTableRecord
100
AcDbViewportTableRecord
  2
*Active
 70
     0
 10
0.0
 20
0.0
 11
1.0
 21
1.0
 12
80.25
 22
106.4409457059851
 13
0.0
 23
0.0
 14
0.5
 24
0.5
 15
0.5
 25
0.5
 16
0.0
 26
0.0
 36
1.0
 17
0.0
 27
0.0
 37
0.0
 40
113.3818914119703
 41
0.8863849310366128
 42
50.0
 43
0.0
 44
0.0
 50
0.0
 51
0.0
 71
     0
 72
  1000
 73
     1
 74
     3
 75
     0
 76
     0
 77
     0
 78
     0
281
     0
 65
     1
110
0.0
120
0.0
130
0.0
111
1.0
121
0.0
131
0.0
112
0.0
122
1.0
132
0.0
 79
     0
146
0.0
  0
ENDTAB
  0
TABLE
  2
LTYPE
  5
5
330
0
100
AcDbSymbolTable
 70
     1
  0
LTYPE
  5
14
330
5
100
AcDbSymbolTableRecord
100
AcDbLinetypeTableRecord
  2
ByBlock
 70
     0
  3

 72
    65
 73
     0
 40
0.0
  0
LTYPE
  5
15
330
5
100
AcDbSymbolTableRecord
100
AcDbLinetypeTableRecord
  2
ByLayer
 70
     0
  3

 72
    65
 73
     0
 40
0.0
  0
LTYPE
  5
16
330
5
100
AcDbSymbolTableRecord
100
AcDbLinetypeTableRecord
  2
Continuous
 70
     0
  3
Solid line
 72
    65
 73
     0
 40
0.0
  0
ENDTAB
  0
TABLE
  2
LAYER
  5
2
330
0
100
AcDbSymbolTable
 70
     1
  0
LAYER
  5
10
330
2
100
AcDbSymbolTableRecord
100
AcDbLayerTableRecord
  2
0
 70
     0
 62
     7
  6
Continuous
370
    -3
390
F
  0
ENDTAB
  0
TABLE
  2
STYLE
  5
3
330
0
100
AcDbSymbolTable
 70
     1
  0
STYLE
  5
11
330
3
100
AcDbSymbolTableRecord
100
AcDbTextStyleTableRecord
  2
Standard
 70
     0
 40
0.0
 41
1.0
 50
0.0
 71
     0
 42
0.2
  3
txt
  4

  0
ENDTAB
  0
TABLE
  2
VIEW
  5
6
330
0
100
AcDbSymbolTable
 70
     0
  0
ENDTAB
  0
TABLE
  2
UCS
  5
7
330
0
100
AcDbSymbolTable
 70
     0
  0
ENDTAB
  0
TABLE
  2
APPID
  5
9
330
0
100
AcDbSymbolTable
 70
     1
  0
APPID
  5
12
330
9
100
AcDbSymbolTableRecord
100
AcDbRegAppTableRecord
  2
ACAD
 70
     0
  0
ENDTAB
  0
TABLE
  2
DIMSTYLE
  5
A
330
0
100
AcDbSymbolTable
 70
     1
100
AcDbDimStyleTable
  0
DIMSTYLE
105
27
330
A
100
AcDbSymbolTableRecord
100
AcDbDimStyleTableRecord
  2
Standard
 70
     0
340
11
  0
ENDTAB
  0
TABLE
  2
BLOCK_RECORD
  5
1
330
0
100
AcDbSymbolTable
 70
     1
  0
BLOCK_RECORD
  5
1F
330
1
100
AcDbSymbolTableRecord
100
AcDbBlockTableRecord
  2
*Model_Space
340
22
  0
BLOCK_RECORD
  5
1B
330
1
100
AcDbSymbolTableRecord
100
AcDbBlockTableRecord
  2
*Paper_Space
340
1E
  0
BLOCK_RECORD
  5
23
330
1
100
AcDbSymbolTableRecord
100
AcDbBlockTableRecord
  2
*Paper_Space0
340
26
  0
ENDTAB
  0
ENDSEC
  0
SECTION
  2
BLOCKS
  0
BLOCK
  5
20
330
1F
100
AcDbEntity
  8
0
100
AcDbBlockBegin
  2
*Model_Space
 70
     0
 10
0.0
 20
0.0
 30
0.0
  3
*Model_Space
  1

  0
ENDBLK
  5
21
330
1F
100
AcDbEntity
  8
0
100
AcDbBlockEnd
  0
BLOCK
  5
1C
330
1B
100
AcDbEntity
 67
     1
  8
0
100
AcDbBlockBegin
  2
*Paper_Space
 70
     0
 10
0.0
 20
0.0
 30
0.0
  3
*Paper_Space
  1

  0
ENDBLK
  5
1D
330
1B
100
AcDbEntity
 67
     1
  8
0
100
AcDbBlockEnd
  0
BLOCK
  5
24
330
23
100
AcDbEntity
  8
0
100
AcDbBlockBegin
  2
*Paper_Space0
 70
     0
 10
0.0
 20
0.0
 30
0.0
  3
*Paper_Space0
  1

  0
ENDBLK
  5
25
330
23
100
AcDbEntity
  8
0
100
AcDbBlockEnd
  0
ENDSEC
  0
SECTION
  2
ENTITIES
  0
HATCH
  5
20000
  8
0
100
AcDbEntity
100
AcDbHatch
 10
0
 20
0
 30
0
210
0
220
0
230
1
  2
SOLID
 70
1
 71
0
 91
1
 92
2
 72
0
 73
1
 93
255
 10
647190.200000003
 20
6864524.4
 10
647218
 20
6864510.60000001
 10
647220.400000006
 20
6864509.4
 10
647226.400000006
 20
6864506.5
 10
647239.5
 20
6864500
 10
647248.599999994
 20
6864495.40000001
 10
647252.70000001
 20
6864493.20000001
 10
647263.899999999
 20
6864487.8
 10
647274.200000003
 20
6864482.7
 10
647287
 20
6864476.40000001
 10
647340.399999999
 20
6864450
 10
647342.199999996
 20
6864449.1
 10
647367.200000003
 20
6864436.8
 10
647387
 20
6864427.1
 10
647394.899999999
 20
6864423.2
 10
647443.199999996
 20
6864399.4
 10
647469.799999997
 20
6864386.20000001
 10
647498.600000001
 20
6864372
 10
647515.500000015
 20
6864363.7
 10
647592.799999997
 20
6864325.60000001
 10
647719.899999999
 20
6864263
 10
647846.699999996
 20
6864200.4
 10
647957.300000004
 20
6864145.8
 10
647993.5
 20
6864128.1
 10
648007.900000006
 20
6864121
 10
648011.400000006
 20
6864119.3
 10
648013.20000001
 20
6864118.5
 10
648050.300000004
 20
6864100.2
 10
648109.600000001
 20
6864071.10000001
 10
648143.099999994
 20
6864054.7
 10
648187.400000006
 20
6864033.10000001
 10
648210.300000004
 20
6864021.9
 10
648251.299999997
 20
6864001.1
 10
648282.599999994
 20
6863985.3
 10
648291.600000001
 20
6863980.7
 10
648299.100000001
 20
6863969.6
 10
648316.800000012
 20
6863943.00000001
 10
648341.400000013
 20
6863906.4
 10
648354.699999996
 20
6863880.3
 10
648376.700000018
 20
6863837.7
 10
648449.399999999
 20
6863703.4
 10
648453.100000009
 20
6863696.50000001
 10
648456.900000006
 20
6863689.5
 10
648460.399999999
 20
6863682.90000001
 10
648467.800000012
 20
6863669.2
 10
648470.100000001
 20
6863663.5
 10
648474.500000015
 20
6863651.9
 10
648506.300000019
 20
6863568.50000001
 10
648521.399999999
 20
6863529
 10
648522.700000003
 20
6863525.7
 10
648523.800000004
 20
6863522.8
 10
648525.899999999
 20
6863517.3
 10
648567.800000004
 20
6863407.90000001
 10
648570.200000003
 20
6863398.3
 10
648575.100000001
 20
6863375.90000001
 10
648575.800000004
 20
6863372.7
 10
648595.000000015
 20
6863275.3
 10
648613.099999994
 20
6863180.90000001
 10
648614.899999999
 20
6863171.00000001
 10
648624.900000006
 20
6863118.7
 10
648631.800000004
 20
6863082.8
 10
648632.200000003
 20
6863080.2
 10
648634.5
 20
6863064.9
 10
648638.700000003
 20
6863047.2
 10
648646.600000001
 20
6863013.4
 10
648658.200000003
 20
6863009.8
 10
648668.700000018
 20
6863004.4
 10
648680.5
 20
6862997.60000001
 10
648719.800000012
 20
6862972.5
 10
648756.800000004
 20
6862948.4
 10
648758.399999999
 20
6862919.8
 10
648759.600000001
 20
6862900.3
 10
648760.099999994
 20
6862892.00000001
 10
648763.600000001
 20
6862833.6
 10
648746.5
 20
6862832.8
 10
648656.299999997
 20
6862822.4
 10
648588.600000001
 20
6862811.6
 10
648542
 20
6862796.50000001
 10
648465.600000001
 20
6862763.3
 10
648415.399999999
 20
6862739.3
 10
648311.400000006
 20
6862684.3
 10
648267.5
 20
6862657.9
 10
648234.800000012
 20
6862630
 10
648180.699999996
 20
6862588.7
 10
648070.100000001
 20
6862479.3
 10
647962.799999997
 20
6862351.8
 10
647942.399999999
 20
6862322.2
 10
647884.600000001
 20
6862250.7
 10
647873.599999994
 20
6862236.60000001
 10
647829.5
 20
6862174.10000001
 10
647796.699999996
 20
6862122.3
 10
647786.600000016
 20
6862092.8
 10
647773.299999997
 20
6862023.9
 10
647763.399999999
 20
6862004.3
 10
647752.900000013
 20
6861991.6
 10
647745.800000019
 20
6861983
 10
647740.100000001
 20
6861977.2
 10
647736.899999999
 20
6861973.8
 10
647731.800000004
 20
6861968.3
 10
647726.5
 20
6861962.9
 10
647722.70000001
 20
6861958.9
 10
647721.200000018
 20
6861957.3
 10
647712.400000006
 20
6861947.4
 10
647603.800000004
 20
6861833.60000001
 10
647547.400000006
 20
6861774.40000001
 10
647495.200000003
 20
6861719.8
 10
647386.600000001
 20
6861606.00000001
 10
647382.399999999
 20
6861601.4
 10
647376.000000015
 20
6861594.90000001
 10
647255.399999999
 20
6861468.9
 10
647247.100000001
 20
6861460.3
 10
647208.199999996
 20
6861419.7
 10
647206.700000003
 20
6861417.2
 10
647180.700000003
 20
6861391.2
 10
647170.199999996
 20
6861379.8
 10
647143.100000001
 20
6861350.3
 10
647133.699999996
 20
6861340.7
 10
647018.600000001
 20
6861225
 10
646976.700000003
 20
6861176.10000001
 10
646945
 20
6861139
 10
646872.800000004
 20
6861043.9
 10
646830.099999994
 20
6860985.8
 10
646828.700000018
 20
6860983.9
 10
646827.200000003
 20
6860981.60000001
 10
646809.800000004
 20
6860954.9
 10
646754.899999999
 20
6860867.9
 10
646719.300000012
 20
6860814.90000001
 10
646564.100000001
 20
6860573.6
 10
646513.099999994
 20
6860496.9
 10
646330.900000013
 20
6860212.4
 10
646309.900000013
 20
6860179.8
 10
646301.800000004
 20
6860167.1
 10
646294.600000001
 20
6860155.8
 10
646179.100000009
 20
6859973.6
 10
646126.400000006
 20
6859893.3
 10
646055.300000004
 20
6859797.2
 10
645978.400000006
 20
6859697.5
 10
645965.300000004
 20
6859680.4
 10
645953.700000018
 20
6859665.2
 10
645953.400000006
 20
6859664.8
 10
645942.500000007
 20
6859650.5
 10
645885.500000015
 20
6859571.40000001
 10
645783.899999999
 20
6859589.8
 10
645571.20000001
 20
6859629.4
 10
645460.700000018
 20
6859650.7
 10
645427.199999996
 20
6859655.7
 10
645336.800000004
 20
6859673
 10
645325.100000016
 20
6859675.2
 10
645311.099999994
 20
6859702.2
 10
645302.500000015
 20
6859717
 10
645209.299999997
 20
6859884.8
 10
645126.300000004
 20
6860035.8
 10
645114.700000018
 20
6860058.40000001
 10
645099
 20
6860086.90000001
 10
645092.100000016
 20
6860103.4
 10
645077.200000003
 20
6860123.7
 10
645050.600000001
 20
6860491.90000001
 10
645046.200000003
 20
6860557.5
 10
645045.399999999
 20
6860559.6
 10
645045.300000012
 20
6860576.40000001
 10
645084.5
 20
6860696.60000001
 10
645097.600000009
 20
6860731.7
 10
645130.700000003
 20
6860831.4
 10
645140.600000001
 20
6860864.1
 10
645015.099999994
 20
6860870.3
 10
645003.5
 20
6860871.4
 10
644996.700000003
 20
6860873.2
 10
644949.299999997
 20
6860893.1
 10
644854.800000004
 20
6860929.8
 10
644806.199999996
 20
6860951
 10
644784.200000018
 20
6860960
 10
644722.599999994
 20
6860984.3
 10
644631.100000001
 20
6861021.3
 10
644464.399999999
 20
6861086.9
 10
644422.300000012
 20
6861104.2
 10
644400.600000016
 20
6861112.7
 10
644391.299999997
 20
6861125.6
 10
644353.000000015
 20
6861170.8
 10
644350
 20
6861177.2
 10
644343.500000015
 20
6861186.9
 10
644340.700000018
 20
6861195.20000001
 10
644265.699999996
 20
6861298.40000001
 10
644242.800000012
 20
6861327.00000001
 10
644230
 20
6861340.2
 10
644212.700000018
 20
6861356.3
 10
644198.299999997
 20
6861365.40000001
 10
644169.600000001
 20
6861380.1
 10
644154.000000007
 20
6861386
 10
644072.899999999
 20
6861412.7
 10
643759.800000004
 20
6861524.3
 10
643731.800000004
 20
6861533.1
 10
643666.200000018
 20
6861556.7
 10
643610.599999994
 20
6861574.3
 10
643441.700000003
 20
6861629.7
 10
643228.700000018
 20
6861704
 10
643181.399999999
 20
6861721.3
 10
643075.599999994
 20
6861777.1
 10
643075.700000018
 20
6861801.7
 10
643078.100000016
 20
6861853.4
 10
643081
 20
6861951.8
 10
643085
 20
6862019.3
 10
643092.300000004
 20
6862070.20000001
 10
643100.800000004
 20
6862112.8
 10
643161.800000004
 20
6862332.1
 10
643188.5
 20
6862430.7
 10
643211
 20
6862498.40000001
 10
643246.100000016
 20
6862599.1
 10
643288.300000004
 20
6862718.3
 10
643302.599999994
 20
6862761
 10
643316.300000012
 20
6862810.3
 10
643345.800000004
 20
6862922.8
 10
643375.599999994
 20
6863042.4
 10
643383.899999999
 20
6863069
 10
643393.600000016
 20
6863093.2
 10
643499.599999994
 20
6863280.3
 10
643528.199999996
 20
6863328
 10
643563.900000006
 20
6863391.7
 10
643617.200000003
 20
6863463.3
 10
643644.000000015
 20
6863500.9
 10
643676.399999999
 20
6863524.60000001
 10
643727.600000016
 20
6863557.5
 10
643789.100000016
 20
6863591.7
 10
643821.799999997
 20
6863607.6
 10
643927.199999996
 20
6863659.9
 10
643943.200000018
 20
6863666.8
 10
644006.800000004
 20
6863692.3
 10
644064.200000003
 20
6863714
 10
644108.699999996
 20
6863732.70000001
 10
644137.699999996
 20
6863745.5
 10
644196.000000007
 20
6863774.1
 10
644223.100000001
 20
6863788.5
 10
644251.100000009
 20
6863805.9
 10
644279
 20
6863824.40000001
 10
644323
 20
6863858.3
 10
644344.600000001
 20
6863876.8
 10
644390.400000006
 20
6863919.90000001
 10
644454.699999996
 20
6863990.6
 10
644476
 20
6864017.3
 10
644495.200000003
 20
6864042.9
 10
644545.800000004
 20
6864119.8
 10
644635.700000003
 20
6864251.4
 10
644674.5
 20
6864310.10000001
 10
644676.400000013
 20
6864312.8
 10
644716.200000003
 20
6864286.7
 10
644727
 20
6864281
 10
644736.899999999
 20
6864276.9
 10
645342.300000004
 20
6864042
 10
645386
 20
6864061.9
 10
645616.600000001
 20
6864740.7
 10
646067.200000003
 20
6864655.4
 10
647009.000000015
 20
6864458.8
 10
647155
 20
6864520.10000001
 10
647162.700000003
 20
6864521.8
 10
647181.100000001
 20
6864524.9
 10
647190.200000003
 20
6864524.4
 97
0
 75
0
 76
1
 98
0
  0
HATCH
  5
20001
  8
0
100
AcDbEntity
100
AcDbHatch
 10
0
 20
0
 30
0
210
0
220
0
230
1
  2
SOLID
 70
1
 71
0
 91
1
 92
2
 72
0
 73
1
 93
819
 10
655904.299999997
 20
6861062.3
 10
656222.400000006
 20
6861016.9
 10
656423.300000004
 20
6860988.1
 10
656430.399999999
 20
6860987.2
 10
656541.899999999
 20
6860972.4
 10
656654.400000006
 20
6860957.3
 10
656666
 20
6860955.8
 10
656682.70000001
 20
6860953.4
 10
656760.299999997
 20
6860942.1
 10
656767.900000006
 20
6860941.10000001
 10
656810.100000001
 20
6860937.5
 10
656812.70000001
 20
6860937.1
 10
656918.100000009
 20
6860920.40000001
 10
656930.100000001
 20
6860918.5
 10
656967.800000004
 20
6860913.2
 10
656978.800000012
 20
6860911.6
 10
656984.100000001
 20
6860911
 10
656991.200000003
 20
6860910
 10
656993.899999999
 20
6860909.6
 10
656995.000000015
 20
6860909.5
 10
657003.000000015
 20
6860908.3
 10
657006.700000003
 20
6860907.8
 10
657011.600000001
 20
6860907.2
 10
657014.100000016
 20
6860906.8
 10
657021.100000001
 20
6860905.8
 10
657024.000000015
 20
6860905.3
 10
657029.600000001
 20
6860904.6
 10
657033.900000013
 20
6860904.1
 10
657043.800000012
 20
6860902.5
 10
657046.799999997
 20
6860902.1
 10
657053.500000007
 20
6860901.3
 10
657054
 20
6860901.2
 10
657059.400000006
 20
6860900.5
 10
657081.299999997
 20
6860897.40000001
 10
657090.100000009
 20
6860896.2
 10
657131.399999999
 20
6860890.3
 10
657139.800000004
 20
6860889.40000001
 10
657139.200000003
 20
6860883.5
 10
657137.199999996
 20
6860867.5
 10
657135.399999999
 20
6860852.9
 10
657131.5
 20
6860822.3
 10
657131.100000001
 20
6860818.8
 10
657125.5
 20
6860774.8
 10
657123.899999999
 20
6860758.5
 10
657122.700000003
 20
6860749.4
 10
657121.5
 20
6860742.7
 10
657115.900000013
 20
6860708.7
 10
657112
 20
6860690.8
 10
657110.199999996
 20
6860682.5
 10
657088.200000018
 20
6860581.4
 10
657086.000000007
 20
6860571.2
 10
657081.000000015
 20
6860547.60000001
 10
657080.700000003
 20
6860546.8
 10
657078
 20
6860533.5
 10
657076
 20
6860523.8
 10
657074
 20
6860514.5
 10
657073
 20
6860509.60000001
 10
657070.700000018
 20
6860498.7
 10
657058.899999999
 20
6860441.9
 10
657054
 20
6860418.1
 10
657008.300000004
 20
6860208.2
 10
656992.899999999
 20
6860127.3
 10
656991.100000016
 20
6860118.9
 10
656957.199999996
 20
6859962.8
 10
656956.800000004
 20
6859961.3
 10
656928.899999999
 20
6859844.8
 10
656914.799999997
 20
6859786
 10
656902.300000012
 20
6859734
 10
656856.399999999
 20
6859547.8
 10
656799.099999994
 20
6859480.4
 10
656810.599999994
 20
6859477.60000001
 10
656826.400000006
 20
6859474
 10
656843.899999999
 20
6859470.10000001
 10
656859.900000013
 20
6859466.8
 10
656880.900000013
 20
6859463.1
 10
656907.800000012
 20
6859460.20000001
 10
656923.600000001
 20
6859458.5
 10
656948.200000003
 20
6859456.40000001
 10
656978.700000003
 20
6859454.9
 10
656999.200000003
 20
6859455.1
 10
657014.000000007
 20
6859455.5
 10
657031
 20
6859456.3
 10
657050.500000015
 20
6859457.9
 10
657070.199999996
 20
6859460.10000001
 10
657092.500000015
 20
6859463.2
 10
657113.200000003
 20
6859467.2
 10
657129.100000001
 20
6859470.7
 10
657146.000000015
 20
6859475.60000001
 10
657165.000000007
 20
6859481.3
 10
657176.200000003
 20
6859485.20000001
 10
657204.800000004
 20
6859496.2
 10
657229.899999999
 20
6859506.10000001
 10
657278.5
 20
6859529.00000001
 10
657295.299999997
 20
6859536.8
 10
657378.099999994
 20
6859576.5
 10
657411
 20
6859593.1
 10
657442.400000006
 20
6859608.5
 10
657454.5
 20
6859614.7
 10
657471.800000012
 20
6859623.7
 10
657488.400000013
 20
6859632.5
 10
657493.5
 20
6859634.9
 10
657500.900000006
 20
6859638.6
 10
657549.500000015
 20
6859664.2
 10
657576.200000003
 20
6859678.40000001
 10
657583.600000001
 20
6859682.4
 10
657573
 20
6859708.40000001
 10
657559.300000004
 20
6859743.8
 10
657551.299999997
 20
6859765.90000001
 10
657543.799999997
 20
6859789.3
 10
657538.599999994
 20
6859813.4
 10
657536.000000015
 20
6859827.10000001
 10
657533.600000016
 20
6859842.1
 10
657530.699999996
 20
6859870.90000001
 10
657520.600000001
 20
6859945.70000001
 10
657508.899999999
 20
6860015.9
 10
657507.899999999
 20
6860022.00000001
 10
657507.100000016
 20
6860026.9
 10
657497.799999997
 20
6860075.7
 10
657486.5
 20
6860115.60000001
 10
657482.699999996
 20
6860128.8
 10
657475.100000001
 20
6860154.4
 10
657471.700000003
 20
6860165.40000001
 10
657468.600000016
 20
6860175.5
 10
657465.200000003
 20
6860185.5
 10
657459.300000004
 20
6860199.5
 10
657452.799999997
 20
6860213.40000001
 10
657446.899999999
 20
6860224.3
 10
657440.400000006
 20
6860234.5
 10
657432.200000018
 20
6860244.9
 10
657414.5
 20
6860271.2
 10
657410.000000015
 20
6860279.5
 10
657404.299999997
 20
6860292.8
 10
657397.399999999
 20
6860312.2
 10
657392.500000015
 20
6860338.7
 10
657390.600000001
 20
6860350.2
 10
657387.199999996
 20
6860373.2
 10
657386.400000006
 20
6860380.1
 10
657385.700000003
 20
6860389.10000001
 10
657384.800000004
 20
6860409.3
 10
657384.700000003
 20
6860424.4
 10
657384.899999999
 20
6860428.90000001
 10
657385.899999999
 20
6860433.3
 10
657387.400000013
 20
6860437.7
 10
657391.199999996
 20
6860446.40000001
 10
657394.300000004
 20
6860452.5
 10
657401.700000003
 20
6860463
 10
657413
 20
6860477.8
 10
657416.700000018
 20
6860484.60000001
 10
657419.600000001
 20
6860490.7
 10
657421.5
 20
6860495.8
 10
657422.5
 20
6860500.6
 10
657422.800000004
 20
6860505.3
 10
657422.899999999
 20
6860515.10000001
 10
657422.899999999
 20
6860522.50000001
 10
657422.600000009
 20
6860535.2
 10
657437.100000001
 20
6860547.5
 10
657441.400000006
 20
6860551.1
 10
657452.300000004
 20
6860558.90000001
 10
657507.000000007
 20
6860598.2
 10
657539.799999997
 20
6860621.90000001
 10
657558.399999999
 20
6860635
 10
657569.300000012
 20
6860643.20000001
 10
657574.800000012
 20
6860639.3
 10
657581.799999997
 20
6860633.7
 10
657588.600000001
 20
6860627.90000001
 10
657596.800000004
 20
6860619.90000001
 10
657604.100000009
 20
6860611.1
 10
657612.100000016
 20
6860600.7
 10
657619.300000004
 20
6860589.60000001
 10
657627.900000013
 20
6860576.00000001
 10
657634.299999997
 20
6860563.9
 10
657642.400000006
 20
6860546.6
 10
657645.900000006
 20
6860539.1
 10
657649
 20
6860532.40000001
 10
657650.500000015
 20
6860529.2
 10
657656.100000016
 20
6860516.1
 10
657664.000000015
 20
6860495.90000001
 10
657673.399999999
 20
6860472.8
 10
657682.800000004
 20
6860454.7
 10
657688.500000007
 20
6860444.20000001
 10
657694.100000016
 20
6860434.8
 10
657699.5
 20
6860426
 10
657705.5
 20
6860416.5
 10
657711.300000004
 20
6860407.8
 10
657716.700000018
 20
6860399.8
 10
657721.600000001
 20
6860392.90000001
 10
657727.100000001
 20
6860386.2
 10
657732.300000004
 20
6860380.4
 10
657739.600000001
 20
6860374.10000001
 10
657745.600000016
 20
6860369.4
 10
657752.400000013
 20
6860364.5
 10
657758.300000012
 20
6860361.2
 10
657764.400000006
 20
6860358.1
 10
657773.000000015
 20
6860354.8
 10
657779.300000012
 20
6860352.60000001
 10
657786.000000007
 20
6860350.8
 10
657792.599999994
 20
6860349.2
 10
657798.800000004
 20
6860348.1
 10
657805.500000015
 20
6860347.2
 10
657811.899999999
 20
6860346.4
 10
657819
 20
6860345.4
 10
657858.5
 20
6860338.4
 10
657967.399999999
 20
6860323.90000001
 10
657987.300000004
 20
6860321.4
 10
658027.999999993
 20
6860316.40000001
 10
658036.399999999
 20
6860315.1
 10
658044.200000003
 20
6860314
 10
658212
 20
6860289.60000001
 10
658217.800000004
 20
6860288.9
 10
658277.500000015
 20
6860281.2
 10
658330
 20
6860273.4
 10
658336.300000004
 20
6860272.7
 10
658347.5
 20
6860271.5
 10
658378.900000013
 20
6860267.8
 10
658418.399999999
 20
6860260.90000001
 10
658425
 20
6860259.9
 10
658426.200000003
 20
6860267.2
 10
658427.600000001
 20
6860277.5
 10
658434.299999997
 20
6860276.7
 10
658470.100000016
 20
6860272.1
 10
658571.900000013
 20
6860257.8
 10
658588.799999997
 20
6860255.8
 10
658692.000000015
 20
6860241
 10
658699.500000015
 20
6860289.1
 10
658719.599999994
 20
6860432.2
 10
658747
 20
6860626.7
 10
658750.299999997
 20
6860649.3
 10
658751.800000012
 20
6860659.9
 10
658767.499999993
 20
6860657.5
 10
658782.70000001
 20
6860655
 10
658799.899999999
 20
6860652.40000001
 10
658811.099999994
 20
6860650.70000001
 10
658864.000000015
 20
6860643.20000001
 10
658901.099999994
 20
6860638.5
 10
658914.100000001
 20
6860636.8
 10
658926
 20
6860635.20000001
 10
658939.600000001
 20
6860633.60000001
 10
658944.000000007
 20
6860662.00000001
 10
658945.20000001
 20
6860671
 10
658945.800000004
 20
6860674.8
 10
658946.400000013
 20
6860679.7
 10
658947
 20
6860683.8
 10
658953.500000007
 20
6860683.20000001
 10
658960.600000001
 20
6860682.3
 10
658965.400000013
 20
6860723
 10
658952.100000001
 20
6860723.3
 10
658958.300000012
 20
6860803
 10
658965.5
 20
6860802
 10
659013.000000015
 20
6860798.4
 10
659069.200000003
 20
6860795.8
 10
659206.100000001
 20
6860791.6
 10
659217.200000003
 20
6860791.3
 10
659263.699999996
 20
6860790.20000001
 10
659390.300000012
 20
6860781.9
 10
659378.699999996
 20
6860689.2
 10
659413.299999997
 20
6860685.9
 10
659449
 20
6860681
 10
659478.099999994
 20
6860676.9
 10
659508.599999994
 20
6860672.2
 10
659536.799999997
 20
6860667.3
 10
659568.800000004
 20
6860661.4
 10
659600.800000004
 20
6860655.3
 10
659634.899999999
 20
6860648.4
 10
659662.700000003
 20
6860642.6
 10
659694.800000004
 20
6860635.5
 10
659772.199999996
 20
6860615.4
 10
659798.800000004
 20
6860609.3
 10
659827.5
 20
6860602.6
 10
659892.200000003
 20
6860589.3
 10
659952.400000006
 20
6860579.4
 10
660014.299999997
 20
6860568.2
 10
660108.700000003
 20
6860549
 10
660132.300000004
 20
6860543.90000001
 10
660210.300000004
 20
6860525.8
 10
660248.899999999
 20
6860516.3
 10
660266.799999997
 20
6860511.9
 10
660319.700000003
 20
6860495.70000001
 10
660359
 20
6860483.8
 10
660442.100000016
 20
6860456.2
 10
660475.5
 20
6860443
 10
660499.600000001
 20
6860432.70000001
 10
660530.000000007
 20
6860418.8
 10
660547.299999997
 20
6860410.3
 10
660563.900000006
 20
6860401.4
 10
660576.699999996
 20
6860394.3
 10
660587.300000004
 20
6860387.9
 10
660601.400000013
 20
6860378.3
 10
660625.799999997
 20
6860363.3
 10
660642
 20
6860353.10000001
 10
660674.100000001
 20
6860329
 10
660695.800000004
 20
6860311
 10
660710.5
 20
6860298.4
 10
660726.800000004
 20
6860283.90000001
 10
660752.700000003
 20
6860257.9
 10
660770.600000016
 20
6860237.70000001
 10
660784.800000004
 20
6860220.1
 10
660797.700000003
 20
6860202.4
 10
660812
 20
6860183.2
 10
660818.600000016
 20
6860173.9
 10
660838.400000013
 20
6860142.7
 10
660853.100000001
 20
6860118.3
 10
660874.100000001
 20
6860081.60000001
 10
660893.000000007
 20
6860044
 10
660902.399999999
 20
6860026.2
 10
660924.300000004
 20
6859988.3
 10
660936.299999997
 20
6859967.9
 10
660945.5
 20
6859953.5
 10
660953.499999993
 20
6859942.10000001
 10
660957.299999997
 20
6859937.3
 10
660991.599999994
 20
6859892.40000001
 10
661000.800000004
 20
6859880.1
 10
661012.599999994
 20
6859864.1
 10
661018.099999994
 20
6859856.4
 10
661024
 20
6859848.00000001
 10
661041.700000018
 20
6859823.9
 10
661058.900000006
 20
6859797
 10
661066.20000001
 20
6859782.7
 10
661072.600000016
 20
6859768
 10
661083.099999994
 20
6859740.5
 10
661085.099999994
 20
6859733.2
 10
661086.200000003
 20
6859724.7
 10
661085.200000003
 20
6859713.4
 10
661085.299999997
 20
6859699.10000001
 10
661084.500000015
 20
6859657.9
 10
661080.900000013
 20
6859625.1
 10
661076
 20
6859590.9
 10
661067.299999997
 20
6859553.4
 10
661061.900000013
 20
6859532.2
 10
661059.900000013
 20
6859526
 10
661058.800000004
 20
6859522.5
 10
661057.799999997
 20
6859519
 10
661058.199999996
 20
6859516.10000001
 10
661059
 20
6859512.7
 10
661058.700000018
 20
6859510.5
 10
661056.900000006
 20
6859508.6
 10
661054.800000019
 20
6859506.8
 10
661052.300000004
 20
6859505.1
 10
661051.400000006
 20
6859503.3
 10
661046.000000015
 20
6859490.8
 10
661036.500000015
 20
6859471.60000001
 10
661022.800000004
 20
6859449.4
 10
661013.799999997
 20
6859435.9
 10
661003.800000004
 20
6859423.3
 10
660993.599999994
 20
6859412.7
 10
660983.800000012
 20
6859403.8
 10
660966.300000004
 20
6859390.1
 10
660955
 20
6859382
 10
660945.199999996
 20
6859375
 10
660939.299999997
 20
6859370.40000001
 10
660930.300000012
 20
6859364.2
 10
660922.299999997
 20
6859359.10000001
 10
660898.5
 20
6859342.7
 10
660883.600000001
 20
6859331.6
 10
660869.700000018
 20
6859320.3
 10
660845.300000004
 20
6859298.2
 10
660838.700000003
 20
6859291
 10
660820.500000015
 20
6859270.2
 10
660804.099999994
 20
6859248.7
 10
660787.099999994
 20
6859223.1
 10
660772.600000016
 20
6859197
 10
660768.700000003
 20
6859188.2
 10
660768.200000018
 20
6859185.00000001
 10
660768.800000004
 20
6859182.1
 10
660769.299999997
 20
6859178.9
 10
660769.000000015
 20
6859176.4
 10
660767.600000001
 20
6859174.8
 10
660765.5
 20
6859173.3
 10
660763.500000015
 20
6859172.2
 10
660761.699999996
 20
6859170.8
 10
660757.600000001
 20
6859162.10000001
 10
660751.799999997
 20
6859145.6
 10
660746.100000001
 20
6859128.6
 10
660741.300000012
 20
6859112.3
 10
660736.500000015
 20
6859097.00000001
 10
660731.400000013
 20
6859078.7
 10
660728.400000006
 20
6859065.4
 10
660727.699999996
 20
6859062.70000001
 10
660725.899999999
 20
6859054.5
 10
660721.600000001
 20
6859033.3
 10
660717.900000013
 20
6859015.9
 10
660710.799999997
 20
6858980.50000001
 10
660708.199999996
 20
6858966.1
 10
660705.700000003
 20
6858951.6
 10
660702.899999999
 20
6858935.3
 10
660701.099999994
 20
6858920.1
 10
660700.400000006
 20
6858913.70000001
 10
660698.800000004
 20
6858899.7
 10
660697.399999999
 20
6858883.8
 10
660695.399999999
 20
6858852.90000001
 10
660695.5
 20
6858833
 10
660697.099999994
 20
6858784.3
 10
660697.700000018
 20
6858769
 10
660698
 20
6858765
 10
660698.699999996
 20
6858751.5
 10
660704.699999996
 20
6858749.60000001
 10
660713
 20
6858747.2
 10
660721.400000006
 20
6858744.6
 10
660730.400000006
 20
6858742.10000001
 10
660740.600000001
 20
6858756.1
 10
660752.199999996
 20
6858747.2
 10
660755.300000004
 20
6858744.8
 10
660809.800000012
 20
6858717.9
 10
660788.400000013
 20
6858638.40000001
 10
660780.900000013
 20
6858612.10000001
 10
660776.100000009
 20
6858595.6
 10
660774.700000003
 20
6858589.8
 10
660760.900000006
 20
6858532.8
 10
660758.900000006
 20
6858524.5
 10
660745
 20
6858457.20000001
 10
660735.399999999
 20
6858454.8
 10
660743.299999997
 20
6858426.7
 10
660738.600000001
 20
6858410.3
 10
660734.799999997
 20
6858396.4
 10
660732.600000016
 20
6858388.3
 10
660730.000000007
 20
6858378.8
 10
660726.899999999
 20
6858368.1
 10
660724.700000003
 20
6858360.3
 10
660724.099999994
 20
6858357.8
 10
660648
 20
6858160.2
 10
660646.399999999
 20
6858153.8
 10
660641.899999999
 20
6858140.4
 10
660636.299999997
 20
6858123.9
 10
660631.200000003
 20
6858109.20000001
 10
660627.399999999
 20
6858096.9
 10
660625.399999999
 20
6858090.9
 10
660598.300000004
 20
6858026
 10
660561.300000004
 20
6857924.5
 10
660554.899999999
 20
6857875.90000001
 10
660548.200000003
 20
6857834.7
 10
660535.800000004
 20
6857821.10000001
 10
660539.700000003
 20
6857814.4
 10
660544.800000004
 20
6857805.40000001
 10
660547.900000013
 20
6857800.3
 10
660529.899999999
 20
6857788.1
 10
660437.900000006
 20
6857722.7
 10
660388.100000001
 20
6857686.6
 10
660315.099999994
 20
6857636.4
 10
660283.700000003
 20
6857613.7
 10
660305.199999996
 20
6857556
 10
660283.700000003
 20
6857572.7
 10
660254.200000018
 20
6857577.1
 10
660205.500000015
 20
6857575.8
 10
660048.799999997
 20
6857583.8
 10
659988.800000004
 20
6857583.5
 10
659969.099999994
 20
6857585
 10
659958.400000006
 20
6857585.8
 10
659956.5
 20
6857585.8
 10
659936.400000013
 20
6857587.40000001
 10
659922.799999997
 20
6857588.5
 10
659906.299999997
 20
6857589.60000001
 10
659867.699999996
 20
6857592.5
 10
659858.900000006
 20
6857594.4
 10
659855.300000004
 20
6857595.1
 10
659834.700000003
 20
6857601
 10
659814.900000006
 20
6857607.4
 10
659812.599999994
 20
6857608.2
 10
659799.800000004
 20
6857611.7
 10
659787.700000003
 20
6857616.40000001
 10
659779.200000003
 20
6857619.7
 10
659711.099999994
 20
6857645.8
 10
659705.599999994
 20
6857647.6
 10
659673.899999999
 20
6857658.3
 10
659655.699999996
 20
6857663.4
 10
659627.200000003
 20
6857669.90000001
 10
659600.100000001
 20
6857675.5
 10
659572.400000006
 20
6857679
 10
659536.600000001
 20
6857681.7
 10
659496.300000004
 20
6857684.7
 10
659452.300000004
 20
6857686.2
 10
659436.700000018
 20
6857686.2
 10
659424.900000006
 20
6857685.7
 10
659372.600000001
 20
6857684.5
 10
659366.700000003
 20
6857684.3
 10
659226.600000016
 20
6857680.2
 10
659188.900000006
 20
6857679.7
 10
659077.800000004
 20
6857681.7
 10
659051.299999997
 20
6857682.2
 10
659034.5
 20
6857683.7
 10
659016.799999997
 20
6857686.8
 10
658955
 20
6857703.90000001
 10
658890.900000013
 20
6857722.8
 10
658876
 20
6857726.7
 10
658870.5
 20
6857727.5
 10
658861.200000018
 20
6857727.7
 10
658836.800000004
 20
6857726.2
 10
658766.799999997
 20
6857720.7
 10
658693.700000003
 20
6857715.40000001
 10
658684.600000001
 20
6857715.1
 10
658685.099999994
 20
6857720.5
 10
658690.600000001
 20
6857787.3
 10
658693.700000003
 20
6857818.90000001
 10
658692.899999999
 20
6857820.1
 10
658692.100000001
 20
6857821.10000001
 10
658689.700000003
 20
6857823.9
 10
658686.600000001
 20
6857827.4
 10
658678.700000003
 20
6857833.3
 10
658655.900000013
 20
6857847.40000001
 10
658625.000000015
 20
6857862.4
 10
658620.099999994
 20
6857864.50000001
 10
658612.5
 20
6857867.5
 10
658590.200000018
 20
6857873.2
 10
658527.300000004
 20
6857879.8
 10
658507.599999994
 20
6857882.3
 10
658497.800000012
 20
6857876.5
 10
658489.399999999
 20
6857870
 10
658475.099999994
 20
6857856.90000001
 10
658471.099999994
 20
6857852.8
 10
658467.099999994
 20
6857848.4
 10
658451.600000001
 20
6857832.3
 10
658460.799999997
 20
6857909.5
 10
658462.900000013
 20
6857937
 10
658449.800000004
 20
6857952.50000001
 10
658391.899999999
 20
6858018.7
 10
658379.100000001
 20
6858032.4
 10
658332.200000018
 20
6858078.8
 10
658361.500000015
 20
6858108.4
 10
658339.900000006
 20
6858132.7
 10
658308.800000012
 20
6858102.9
 10
658175.300000004
 20
6858240.3
 10
658198.300000004
 20
6858269.8
 10
658191.600000001
 20
6858274.3
 10
658170.400000006
 20
6858287
 10
658151.699999996
 20
6858297.3
 10
658140.5
 20
6858303.4
 10
658128.299999997
 20
6858309.6
 10
658105
 20
6858320.1
 10
658094.100000001
 20
6858324.8
 10
658060.499999993
 20
6858337.4
 10
658027.599999994
 20
6858348.3
 10
658001.20000001
 20
6858356.4
 10
657985.299999997
 20
6858360.5
 10
657961.800000004
 20
6858366.4
 10
657929.700000003
 20
6858373.3
 10
657899.800000012
 20
6858379
 10
657874.699999996
 20
6858382.7
 10
657833.400000006
 20
6858387
 10
657809.299999997
 20
6858388.9
 10
657793.899999999
 20
6858389.7
 10
657772.300000004
 20
6858390.20000001
 10
657758.800000004
 20
6858390.5
 10
657748.699999996
 20
6858390.20000001
 10
657733
 20
6858389.7
 10
657726.200000018
 20
6858389.6
 10
657702.299999997
 20
6858388.9
 10
657683.299999997
 20
6858387.9
 10
657670.399999999
 20
6858387.5
 10
657662.999999993
 20
6858386.7
 10
657641.599999994
 20
6858385.6
 10
657634.099999994
 20
6858385.1
 10
657628.399999999
 20
6858384.7
 10
657551.100000001
 20
6858377.3
 10
657543.200000003
 20
6858377.10000001
 10
657524.399999999
 20
6858377
 10
657466.800000004
 20
6858376.70000001
 10
657441.200000003
 20
6858378.3
 10
657414.300000012
 20
6858380.70000001
 10
657398.299999997
 20
6858384.1
 10
657372.100000001
 20
6858389.4
 10
657361.5
 20
6858392.10000001
 10
657337.5
 20
6858399.2
 10
657314.699999996
 20
6858407.20000001
 10
657287.600000001
 20
6858418.3
 10
657275.5
 20
6858423.3
 10
657261.199999996
 20
6858428.8
 10
657253.200000003
 20
6858432.00000001
 10
657231.400000006
 20
6858438.7
 10
657206.899999999
 20
6858445.50000001
 10
657187.099999994
 20
6858450
 10
657161.600000001
 20
6858455.5
 10
657141.099999994
 20
6858458.4
 10
657122.20000001
 20
6858460.4
 10
657098.800000004
 20
6858461.3
 10
657072.800000004
 20
6858461.7
 10
657068.800000019
 20
6858461.6
 10
657057.20000001
 20
6858460.8
 10
657046
 20
6858460.6
 10
657007.300000012
 20
6858457.8
 10
656961.300000012
 20
6858455.5
 10
656911.800000012
 20
6858455.3
 10
656876
 20
6858457.7
 10
656864.099999994
 20
6858458.90000001
 10
656861.100000016
 20
6858459.2
 10
656825.299999997
 20
6858463.5
 10
656812.5
 20
6858465.5
 10
656799.400000006
 20
6858468.5
 10
656783.699999996
 20
6858472.40000001
 10
656767.200000018
 20
6858476.40000001
 10
656750.200000003
 20
6858481.2
 10
656744
 20
6858483.4
 10
656730.300000012
 20
6858488
 10
656716.699999996
 20
6858492.7
 10
656703.5
 20
6858497.9
 10
656691.400000006
 20
6858503.3
 10
656680.5
 20
6858508.8
 10
656670.500000015
 20
6858514.60000001
 10
656664.100000016
 20
6858518.9
 10
656658.100000001
 20
6858522.2
 10
656638.399999999
 20
6858534.3
 10
656623.499999993
 20
6858544.70000001
 10
656587
 20
6858574.4
 10
656558.600000001
 20
6858599.6
 10
656544.000000007
 20
6858613.1
 10
656528.700000003
 20
6858627.9
 10
656516.399999999
 20
6858639.8
 10
656507.799999997
 20
6858648.7
 10
656503.700000003
 20
6858653.5
 10
656497.600000001
 20
6858660
 10
656457
 20
6858705.5
 10
656432.200000003
 20
6858733.90000001
 10
656429.200000003
 20
6858737.4
 10
656421.000000007
 20
6858747.40000001
 10
656410.200000003
 20
6858761.10000001
 10
656378.800000012
 20
6858801.7
 10
656346.800000004
 20
6858839.40000001
 10
656345
 20
6858841.5
 10
656338.799999997
 20
6858848.5
 10
656330.000000015
 20
6858858.20000001
 10
656325
 20
6858863.2
 10
656319
 20
6858869.5
 10
656314.200000018
 20
6858874.10000001
 10
656305.800000004
 20
6858881.40000001
 10
656280.900000013
 20
6858902.3
 10
656250.199999996
 20
6858927.60000001
 10
656245.099999994
 20
6858932.5
 10
656232.900000013
 20
6858943.2
 10
656226.400000006
 20
6858947.6
 10
656213.700000003
 20
6858956.2
 10
656198.100000016
 20
6858964.5
 10
656188.500000007
 20
6858969.40000001
 10
656164.000000015
 20
6858983.2
 10
656150.100000016
 20
6858990.3
 10
656134.700000018
 20
6858996.9
 10
656117.600000016
 20
6859003
 10
656063.900000006
 20
6858978.1
 10
656002.800000004
 20
6858948.9
 10
655958.100000001
 20
6858926
 10
655936.200000003
 20
6858915.60000001
 10
655913.300000004
 20
6858906.00000001
 10
655894.200000003
 20
6858897.6
 10
655886.400000006
 20
6858894.90000001
 10
655880
 20
6858892.90000001
 10
655872.600000001
 20
6858890.4
 10
655865.200000018
 20
6858887.9
 10
655853.399999999
 20
6858884
 10
655846.100000009
 20
6858881.60000001
 10
655837.000000015
 20
6858878.7
 10
655828.800000004
 20
6858875.9
 10
655821.600000016
 20
6858873.50000001
 10
655819.899999999
 20
6858872.9
 10
655814.400000006
 20
6858871.2
 10
655809
 20
6858869.3
 10
655797.699999996
 20
6858865.3
 10
655720.300000004
 20
6858835.3
 10
655636.600000001
 20
6858799.6
 10
655617.399999999
 20
6858795
 10
655597.800000004
 20
6858790.7
 10
655536.099999994
 20
6858779.4
 10
655510.500000015
 20
6858764.3
 10
655419.70000001
 20
6858704.3
 10
655376.500000015
 20
6858676.4
 10
655366.899999999
 20
6858670.7
 10
655354.5
 20
6858663.20000001
 10
655352.100000001
 20
6858661.7
 10
655337.700000018
 20
6858652.5
 10
655329.400000013
 20
6858647.3
 10
655312.5
 20
6858636.60000001
 10
655291.300000012
 20
6858623.20000001
 10
655286.100000001
 20
6858619.60000001
 10
655285.199999996
 20
6858619
 10
655221.200000018
 20
6858576.5
 10
655149.699999996
 20
6858650.6
 10
655149.299999997
 20
6858651
 10
655143.200000003
 20
6858657.3
 10
655134.699999996
 20
6858666.2
 10
655134.400000013
 20
6858666.5
 10
655133.400000006
 20
6858667.5
 10
655126.100000016
 20
6858675
 10
655119.5
 20
6858681.9
 10
655119.300000012
 20
6858682.2
 10
655107.600000001
 20
6858694.3
 10
655064.600000009
 20
6858748.9
 10
655008.599999994
 20
6858820.3
 10
655000.600000001
 20
6858830.8
 10
655000.100000001
 20
6858831.40000001
 10
654992.700000003
 20
6858841.20000001
 10
654991.399999999
 20
6858843.00000001
 10
654991.199999996
 20
6858843.4
 10
654987.799999997
 20
6858847.8
 10
654801.799999997
 20
6859093.3
 10
654779.5
 20
6859120.20000001
 10
654665.300000004
 20
6859258.10000001
 10
654561.399999999
 20
6859383.70000001
 10
654454.399999999
 20
6859515.60000001
 10
654369.399999999
 20
6859620.70000001
 10
654161.400000006
 20
6859893.4
 10
654148.800000012
 20
6859909.9
 10
654128.100000001
 20
6859940.9
 10
654127.800000012
 20
6859941.3
 10
654121.800000012
 20
6859950.3
 10
654115.700000003
 20
6859959.4
 10
654115.500000015
 20
6859959.7
 10
654110.399999999
 20
6859967.2
 10
654109.900000006
 20
6859967.9
 10
654104.5
 20
6859976.20000001
 10
654103.800000004
 20
6859977.1
 10
654020.299999997
 20
6860102.20000001
 10
653975
 20
6860156.2
 10
653888.600000001
 20
6860259.3
 10
653704.500000015
 20
6860471.8
 10
653693.200000003
 20
6860484.8
 10
653611.800000012
 20
6860578.8
 10
653477.600000001
 20
6860733.6
 10
653358.900000006
 20
6860870
 10
653420.200000003
 20
6860921.6
 10
653421.300000004
 20
6860922.5
 10
653427.200000003
 20
6860927.6
 10
653428.300000012
 20
6860928.6
 10
653431.600000001
 20
6860931.2
 10
653436.300000019
 20
6860935.20000001
 10
653436.600000009
 20
6860935.5
 10
653444.100000001
 20
6860941.8
 10
653444.700000003
 20
6860942.3
 10
653453.800000004
 20
6860949.9
 10
653454.400000006
 20
6860950.40000001
 10
653458.000000015
 20
6860953.5
 10
653475.500000015
 20
6860968.3
 10
653476.899999999
 20
6860969.4
 10
653484.700000003
 20
6860976
 10
653490.200000003
 20
6860980.7
 10
653490.700000003
 20
6860981.20000001
 10
653505.800000004
 20
6860993.8
 10
653506.599999994
 20
6861001
 10
653530.700000003
 20
6861079.7
 10
653539.800000004
 20
6861109.1
 10
653543.20000001
 20
6861120.4
 10
653549.000000007
 20
6861139.5
 10
653568.200000018
 20
6861201.9
 10
653619.399999999
 20
6861368.7
 10
653620.799999997
 20
6861373.2
 10
653664.200000003
 20
6861508.3
 10
653664.600000001
 20
6861509.3
 10
653666.200000003
 20
6861514.20000001
 10
653667.099999994
 20
6861517
 10
653667.300000012
 20
6861517.7
 10
653667.800000004
 20
6861519.3
 10
653669.200000003
 20
6861523.6
 10
653670.299999997
 20
6861527.2
 10
653671.099999994
 20
6861529.60000001
 10
653688.800000004
 20
6861584.5
 10
653691.899999999
 20
6861594.1
 10
653701.5
 20
6861624.2
 10
653705
 20
6861635.10000001
 10
653707.700000018
 20
6861643.4
 10
653715.5
 20
6861644.5
 10
653717.300000004
 20
6861644.8
 10
653729.900000013
 20
6861646.7
 10
653788.799999997
 20
6861655.6
 10
653807.000000007
 20
6861645.1
 10
653844.400000013
 20
6861608.4
 10
653860.900000006
 20
6861593.3
 10
653863.400000006
 20
6861591.5
 10
653897.500000015
 20
6861566.6
 10
653919.300000012
 20
6861554.8
 10
653943.799999997
 20
6861543.10000001
 10
653985.600000001
 20
6861525
 10
654043.199999996
 20
6861500.2
 10
654050.600000001
 20
6861497.00000001
 10
654086.900000006
 20
6861482.5
 10
654121.100000001
 20
6861468.9
 10
654127.700000003
 20
6861466.3
 10
654144.200000003
 20
6861459.9
 10
654164.899999999
 20
6861451.9
 10
654173.599999994
 20
6861448.5
 10
654222.399999999
 20
6861431.9
 10
654266.300000004
 20
6861414.90000001
 10
654300.5
 20
6861401.70000001
 10
654312.500000015
 20
6861397.1
 10
654330.300000012
 20
6861390.20000001
 10
654342.700000003
 20
6861385.3
 10
654394
 20
6861365.5
 10
654400.299999997
 20
6861363.3
 10
654422.600000009
 20
6861355.70000001
 10
654459.100000016
 20
6861348.10000001
 10
654474.700000003
 20
6861344.5
 10
654508.899999999
 20
6861336.70000001
 10
654512.800000004
 20
6861336.2
 10
654605.399999999
 20
6861329.9
 10
654611.5
 20
6861329.10000001
 10
654713.399999999
 20
6861314.7
 10
654719.900000013
 20
6861313.90000001
 10
654728.100000001
 20
6861312.8
 10
654743.099999994
 20
6861311
 10
654769.599999994
 20
6861307.8
 10
654780.900000013
 20
6861305.8
 10
654789.099999994
 20
6861304.40000001
 10
654807.000000007
 20
6861300.9
 10
654828.5
 20
6861296.70000001
 10
654849.5
 20
6861291.6
 10
655040.500000015
 20
6861245.10000001
 10
655202.200000018
 20
6861206.1
 10
655243.899999999
 20
6861196.2
 10
655263.600000016
 20
6861191.5
 10
655287.5
 20
6861185.8
 10
655371.000000015
 20
6861165.8
 10
655380.700000003
 20
6861163.5
 10
655453.200000003
 20
6861146.10000001
 10
655486.600000001
 20
6861138.7
 10
655546.100000009
 20
6861125.5
 10
655556.699999996
 20
6861121.5
 10
655592.100000016
 20
6861114.5
 10
655627.299999997
 20
6861106.3
 10
655672.600000016
 20
6861095.6
 10
655713.400000013
 20
6861089.8
 10
655744.100000001
 20
6861085.2
 10
655787.300000004
 20
6861079
 10
655790.700000018
 20
6861078.8
 10
655799.100000001
 20
6861078.4
 10
655836.300000019
 20
6861074.1
 10
655904.299999997
 20
6861062.3
 97
0
 75
0
 76
1
 98
0
  0
HATCH
  5
20002
  8
0
100
AcDbEntity
100
AcDbHatch
 10
0
 20
0
 30
0
210
0
220
0
230
1
  2
SOLID
 70
1
 71
0
 91
1
 92
2
 72
0
 73
1
 93
443
 10
655231.799999997
 20
6866968.5
 10
655236.700000003
 20
6866967
 10
655328.100000001
 20
6866941.7
 10
655341.899999999
 20
6866939.40000001
 10
655354.300000012
 20
6866928.6
 10
655359.399999999
 20
6866925.1
 10
655363.400000006
 20
6866921.5
 10
655368.099999994
 20
6866917
 10
655371.899999999
 20
6866913.2
 10
655377.800000004
 20
6866909.10000001
 10
655380.500000015
 20
6866906.5
 10
655385.899999999
 20
6866901.3
 10
655389.600000016
 20
6866897.9
 10
655402.700000018
 20
6866886.7
 10
655410
 20
6866880.6
 10
655424.200000003
 20
6866867.5
 10
655441
 20
6866853
 10
655454.200000018
 20
6866841.3
 10
655459.100000001
 20
6866837.2
 10
655473
 20
6866825.3
 10
655479.300000004
 20
6866820.4
 10
655484.100000001
 20
6866816.5
 10
655531
 20
6866774.5
 10
655563.400000006
 20
6866746.20000001
 10
655600.699999996
 20
6866713.90000001
 10
655618.099999994
 20
6866698.8
 10
655649.100000001
 20
6866671.8
 10
655682.800000004
 20
6866642.90000001
 10
655689.5
 20
6866632.3
 10
655689.700000003
 20
6866631.90000001
 10
655693.600000016
 20
6866621.1
 10
655696.900000006
 20
6866612
 10
655697.100000009
 20
6866611.4
 10
655700.300000012
 20
6866602.5
 10
655702.099999994
 20
6866597.60000001
 10
655703.699999996
 20
6866593.5
 10
655705.899999999
 20
6866587.3
 10
655706.5
 20
6866585.70000001
 10
655707.899999999
 20
6866581.90000001
 10
655710.700000003
 20
6866574.20000001
 10
655712.600000016
 20
6866569
 10
655714.799999997
 20
6866562.90000001
 10
655716.500000007
 20
6866558.4
 10
655718.600000001
 20
6866553.40000001
 10
655756.200000018
 20
6866449.5
 10
655767.800000004
 20
6866417.8
 10
655768
 20
6866417.3
 10
655770.500000015
 20
6866410.4
 10
655775.400000006
 20
6866396.90000001
 10
655783.500000015
 20
6866374.9
 10
655788.900000006
 20
6866362.20000001
 10
655789.200000003
 20
6866358.9
 10
655791.000000007
 20
6866353.10000001
 10
655803.100000001
 20
6866324.9
 10
655818.600000001
 20
6866288.4
 10
655834.299999997
 20
6866247.3
 10
655838.899999999
 20
6866235.1
 10
655844.500000007
 20
6866195.5
 10
655852.399999999
 20
6866153.3
 10
655862.999999993
 20
6866116.9
 10
655877.299999997
 20
6866016
 10
655895.600000001
 20
6865887.3
 10
655914.900000006
 20
6865751.8
 10
655923.699999996
 20
6865686.5
 10
655926.400000006
 20
6865670
 10
655938.100000016
 20
6865572.7
 10
655938.700000003
 20
6865569.7
 10
655939.800000004
 20
6865558.7
 10
655940
 20
6865550.7
 10
655941.5
 20
6865458.1
 10
655941.600000009
 20
6865449.10000001
 10
655941.700000018
 20
6865438.6
 10
655942.200000003
 20
6865413
 10
655942.5
 20
6865396.3
 10
655942.800000012
 20
6865371.4
 10
655943.099999994
 20
6865355.00000001
 10
655943.400000006
 20
6865336.10000001
 10
655943.300000019
 20
6865335.5
 10
655943.800000004
 20
6865315.6
 10
655944.000000015
 20
6865298
 10
655944.200000003
 20
6865287.5
 10
655944.400000013
 20
6865279.9
 10
655944.600000001
 20
6865262.1
 10
655945.099999994
 20
6865234.90000001
 10
655945.400000006
 20
6865219.7
 10
655945.600000016
 20
6865206.10000001
 10
655947.700000003
 20
6865200
 10
655961.100000016
 20
6865162.60000001
 10
655962.5
 20
6865158.8
 10
655963.299999997
 20
6865156.5
 10
655965.5
 20
6865150.5
 10
655976.799999997
 20
6865118.60000001
 10
655981.099999994
 20
6865106.90000001
 10
655984.800000004
 20
6865096.4
 10
655996.800000019
 20
6865062.70000001
 10
656007.000000007
 20
6865034.3
 10
656034.999999993
 20
6864997.8
 10
656036.199999996
 20
6864995.8
 10
656041.500000015
 20
6864988.40000001
 10
656070.400000006
 20
6864951.3
 10
656072.5
 20
6864948.7
 10
656096.800000004
 20
6864916.8
 10
656108.700000003
 20
6864901.2
 10
656125.500000007
 20
6864889.8
 10
656146.500000007
 20
6864875.40000001
 10
656162.699999996
 20
6864864.3
 10
656184.100000001
 20
6864849.6
 10
656190.600000001
 20
6864845.2
 10
656210.70000001
 20
6864831.50000001
 10
656221.100000016
 20
6864824.2
 10
656229.199999996
 20
6864818.8
 10
656234.600000001
 20
6864815
 10
656251.700000003
 20
6864803.3
 10
656253.700000003
 20
6864802
 10
656269.400000013
 20
6864791.2
 10
656288.100000001
 20
6864778.5
 10
656332.600000001
 20
6864748
 10
656408.399999999
 20
6864718.3
 10
656492.500000015
 20
6864691.8
 10
656503.899999999
 20
6864688.20000001
 10
656515.600000001
 20
6864684.5
 10
656522.700000003
 20
6864682.2
 10
656540
 20
6864676.90000001
 10
656572.600000016
 20
6864666.7
 10
656588.100000001
 20
6864661.70000001
 10
656603.600000001
 20
6864656.9
 10
656609.000000015
 20
6864655.2
 10
656682.599999994
 20
6864632.70000001
 10
656686.599999994
 20
6864624.5
 10
656723.799999997
 20
6864552.60000001
 10
656778.20000001
 20
6864447.1
 10
656787.700000003
 20
6864430.60000001
 10
656784
 20
6864429.1
 10
656779.5
 20
6864427.5
 10
656722.300000004
 20
6864404.6
 10
656694.899999999
 20
6864390.5
 10
656690.300000012
 20
6864388.60000001
 10
656685.399999999
 20
6864386.1
 10
656678.5
 20
6864382.90000001
 10
656664.700000003
 20
6864376.5
 10
656642.599999994
 20
6864366.1
 10
656633.700000003
 20
6864362
 10
656625
 20
6864357.90000001
 10
656616.399999999
 20
6864354
 10
656609.5
 20
6864350.8
 10
656600.199999996
 20
6864346.5
 10
656587.600000016
 20
6864341.1
 10
656578
 20
6864336.1
 10
656550.199999996
 20
6864321
 10
656543.800000004
 20
6864317.60000001
 10
656534.799999997
 20
6864312.8
 10
656529.800000012
 20
6864310
 10
656519.800000004
 20
6864305.7
 10
656506.100000001
 20
6864298.60000001
 10
656503.899999999
 20
6864297.3
 10
656495.800000004
 20
6864292.4
 10
656475.900000013
 20
6864284.7
 10
656445.5
 20
6864278.6
 10
656434.099999994
 20
6864274.8
 10
656385.600000001
 20
6864255.2
 10
656373
 20
6864247.7
 10
656333.200000018
 20
6864228.3
 10
656315.599999994
 20
6864219.7
 10
656267.200000003
 20
6864196
 10
656261.500000015
 20
6864193.8
 10
656181.000000015
 20
6864161.5
 10
655934.100000016
 20
6864113.9
 10
655916.300000012
 20
6864108.7
 10
655907.100000001
 20
6864107.40000001
 10
655881.200000003
 20
6864105.3
 10
655839.699999996
 20
6864106.1
 10
655823.700000003
 20
6864104
 10
655816.200000003
 20
6864103
 10
655676.100000009
 20
6864087.2
 10
655652.199999996
 20
6864084.40000001
 10
655641.5
 20
6864085.1
 10
655612.100000001
 20
6864087.1
 10
655555.200000003
 20
6864091.2
 10
655520.699999996
 20
6864095.1
 10
655494.400000006
 20
6864098.2
 10
655453.899999999
 20
6864104
 10
655448.400000006
 20
6864104.9
 10
655429
 20
6864109.7
 10
655419.5
 20
6864109.40000001
 10
655410.400000006
 20
6864109.40000001
 10
655360.200000003
 20
6864109.40000001
 10
655356.5
 20
6864109.40000001
 10
655292.200000003
 20
6864107.7
 10
655232.500000007
 20
6864093
 10
655213.5
 20
6864076.1
 10
655193.400000013
 20
6864061.1
 10
655179.700000003
 20
6864052.6
 10
655147.800000004
 20
6864033.8
 10
655129.800000004
 20
6864028.5
 10
655098.300000012
 20
6864025.9
 10
655094.799999997
 20
6864025.7
 10
655068
 20
6864024.4
 10
655064
 20
6864023.9
 10
655030.500000007
 20
6864019.7
 10
655000.5
 20
6864003.4
 10
654982.5
 20
6863992.70000001
 10
654941.200000003
 20
6863960.60000001
 10
654935.5
 20
6863956.7
 10
654914.200000003
 20
6863941.9
 10
654887.600000001
 20
6863923.6
 10
654835.000000007
 20
6863909.6
 10
654755.300000004
 20
6863894.9
 10
654749.799999997
 20
6863893.60000001
 10
654745.600000016
 20
6863892.6
 10
654719.299999997
 20
6863886.5
 10
654714.100000001
 20
6863885.1
 10
654704.299999997
 20
6863882.4
 10
654663.400000006
 20
6863871.1
 10
654563.700000018
 20
6863840.9
 10
654510.800000004
 20
6863826.50000001
 10
654465.600000001
 20
6863810.3
 10
654427.5
 20
6863794.9
 10
654416.600000001
 20
6863790.9
 10
654413.900000013
 20
6863790.00000001
 10
654384.400000006
 20
6863778.90000001
 10
654349.599999994
 20
6863765.3
 10
654337.000000015
 20
6863760.10000001
 10
654316.5
 20
6863749.4
 10
654306.700000003
 20
6863745.3
 10
654295.200000003
 20
6863738.40000001
 10
654184.000000007
 20
6863892.5
 10
654160
 20
6863925.70000001
 10
654104.699999996
 20
6864002.20000001
 10
654050.700000003
 20
6864076.90000001
 10
653999.599999994
 20
6864147.70000001
 10
653963.199999996
 20
6864198.2
 10
653842.5
 20
6864365.3
 10
653829.199999996
 20
6864383.7
 10
653815.300000004
 20
6864403
 10
653815.399999999
 20
6864443.70000001
 10
653815.500000015
 20
6864462
 10
653815.500000015
 20
6864469.6
 10
653815.200000003
 20
6864569.1
 10
653814.700000018
 20
6864648.9
 10
653814.599999994
 20
6864681.3
 10
653815.399999999
 20
6864769
 10
653815.200000003
 20
6864785.70000001
 10
653815.100000016
 20
6864792.5
 10
653814.599999994
 20
6864844.7
 10
653814.199999996
 20
6864882.6
 10
653814.100000001
 20
6864890.3
 10
653814
 20
6864895.7
 10
653814
 20
6864897.10000001
 10
653813.799999997
 20
6864902.5
 10
653812.900000006
 20
6864908.40000001
 10
653812.199999996
 20
6864912.9
 10
653811.500000015
 20
6864916.6
 10
653810.300000012
 20
6864920.9
 10
653809.399999999
 20
6864924.9
 10
653808.5
 20
6864926.7
 10
653805.600000016
 20
6864932.6
 10
653803.800000004
 20
6864935.6
 10
653802.899999999
 20
6864937
 10
653800.100000001
 20
6864941.4
 10
653796.900000013
 20
6864945.4
 10
653792.700000003
 20
6864949.90000001
 10
653788.100000009
 20
6864954.8
 10
653785.899999999
 20
6864957
 10
653783.299999997
 20
6864959.50000001
 10
653778.600000009
 20
6864964.1
 10
653776.5
 20
6864966.2
 10
653774.300000012
 20
6864968.6
 10
653766.100000001
 20
6864976.4
 10
653759.800000004
 20
6864982.3
 10
653758.699999996
 20
6864983.2
 10
653754.900000013
 20
6864987
 10
653747.5
 20
6864995.4
 10
653743.700000003
 20
6865000.7
 10
653740.5
 20
6865005.8
 10
653736.20000001
 20
6865014.3
 10
653727.100000016
 20
6865031.8
 10
653720.100000001
 20
6865045
 10
653713.299999997
 20
6865057.9
 10
653705.700000018
 20
6865065.9
 10
653702.799999997
 20
6865068.8
 10
653702.100000009
 20
6865069.5
 10
653697.5
 20
6865073.7
 10
653694.700000003
 20
6865076.00000001
 10
653691.800000004
 20
6865078.00000001
 10
653689.299999997
 20
6865079.5
 10
653686.300000012
 20
6865080.7
 10
653683.500000015
 20
6865082
 10
653680.000000015
 20
6865083.6
 10
653676.800000012
 20
6865084.8
 10
653673
 20
6865086
 10
653669.5
 20
6865087
 10
653660.900000013
 20
6865088.6
 10
653657.199999996
 20
6865089
 10
653651.200000003
 20
6865089.90000001
 10
653644.300000012
 20
6865090.7
 10
653633.800000004
 20
6865091.8
 10
653614.100000001
 20
6865093.8
 10
653579.600000001
 20
6865097.60000001
 10
653568.099999994
 20
6865098.90000001
 10
653530.799999997
 20
6865103
 10
653455.400000006
 20
6865110.3
 10
653452.699999996
 20
6865110.60000001
 10
653409.900000006
 20
6865115.5
 10
653418.5
 20
6865127.70000001
 10
653468.199999996
 20
6865206.40000001
 10
653469.700000003
 20
6865208.5
 10
653493.300000012
 20
6865245.5
 10
653549.600000016
 20
6865338.2
 10
653561.500000015
 20
6865357.7
 10
653565.299999997
 20
6865365.9
 10
653570.899999999
 20
6865389.1
 10
653584.200000003
 20
6865444.8
 10
653590.5
 20
6865462.40000001
 10
653600.399999999
 20
6865492.90000001
 10
653607.899999999
 20
6865521.5
 10
653615.5
 20
6865548.3
 10
653626.500000015
 20
6865587
 10
653635.400000006
 20
6865614.3
 10
653649.600000001
 20
6865658.3
 10
653666.200000003
 20
6865706.70000001
 10
653713.099999994
 20
6865853.70000001
 10
653718.600000001
 20
6865872.5
 10
653744.700000003
 20
6865962.5
 10
653745.399999999
 20
6865965
 10
653747.199999996
 20
6865971
 10
653749
 20
6865977.1
 10
653773.600000001
 20
6866062.00000001
 10
653798.600000001
 20
6866141.8
 10
653809.100000009
 20
6866179.10000001
 10
653810.800000019
 20
6866183.9
 10
653820.299999997
 20
6866203.40000001
 10
653840.800000004
 20
6866239
 10
653845.400000006
 20
6866247.90000001
 10
653855.700000003
 20
6866261.2
 10
653940.800000004
 20
6866337.20000001
 10
653937.200000018
 20
6866340.4
 10
653934.899999999
 20
6866342.3
 10
653932.600000001
 20
6866345.00000001
 10
653932.100000001
 20
6866345.6
 10
653929.899999999
 20
6866348.1
 10
653929.20000001
 20
6866348.8
 10
653927
 20
6866351.2
 10
653920.900000013
 20
6866358
 10
653916.200000018
 20
6866363.3
 10
653913.599999994
 20
6866366.10000001
 10
653911.899999999
 20
6866368
 10
653911.200000003
 20
6866368.8
 10
653909.400000013
 20
6866370.9
 10
653901.900000013
 20
6866379.3
 10
653902.800000004
 20
6866387.8
 10
653899.700000003
 20
6866397.10000001
 10
653896.199999996
 20
6866404.40000001
 10
653844.299999997
 20
6866469.40000001
 10
653842.600000001
 20
6866473.6
 10
653841.400000006
 20
6866478.70000001
 10
653840.200000003
 20
6866489.9
 10
653839
 20
6866502
 10
653837
 20
6866557.60000001
 10
653837
 20
6866560.4
 10
653836.900000013
 20
6866568
 10
653836.700000003
 20
6866578.9
 10
653836.500000015
 20
6866585.5
 10
653835.900000006
 20
6866625.1
 10
653835.100000001
 20
6866683.60000001
 10
653835.100000001
 20
6866687.9
 10
653835.399999999
 20
6866703.8
 10
653836.100000016
 20
6866719.1
 10
653836.399999999
 20
6866729.9
 10
653835
 20
6866778.1
 10
653831.399999999
 20
6866779.4
 10
653830.300000004
 20
6866808.4
 10
653830.100000001
 20
6866832.8
 10
653830
 20
6866838.00000001
 10
653830.700000003
 20
6866861.9
 10
653831.900000006
 20
6866878.00000001
 10
653832.200000018
 20
6866883
 10
653834.799999997
 20
6866890.9
 10
653839.300000012
 20
6866910
 10
653838.500000015
 20
6866930.9
 10
653838
 20
6866943.7
 10
653837.099999994
 20
6866959
 10
653831.900000006
 20
6866973.70000001
 10
653828.200000018
 20
6867002.9
 10
653827.800000012
 20
6867011.2
 10
653827.800000012
 20
6867018.3
 10
653827.899999999
 20
6867023.20000001
 10
653828.700000003
 20
6867030.8
 10
653831.800000019
 20
6867043.1
 10
653833.5
 20
6867047
 10
653837.300000012
 20
6867055.8
 10
653854.399999999
 20
6867056.2
 10
653885.700000018
 20
6867057
 10
653935.899999999
 20
6867058.2
 10
653950.20000001
 20
6867058.5
 10
653950.600000009
 20
6867058.5
 10
653951.899999999
 20
6867058.6
 10
653963.100000001
 20
6867058.9
 10
653967.200000003
 20
6867058.9
 10
653973.800000004
 20
6867059.1
 10
654004.500000015
 20
6867059.8
 10
654013.600000009
 20
6867060.10000001
 10
654098.200000003
 20
6867062
 10
654207.100000001
 20
6867064.7
 10
654296.5
 20
6867066.8
 10
654354.100000016
 20
6867068.2
 10
654359
 20
6867068.3
 10
654387.700000003
 20
6867069
 10
654407.000000007
 20
6867069.40000001
 10
654454.599999994
 20
6867070.6
 10
654532.000000015
 20
6867072.5
 10
654537.900000006
 20
6867072.6
 10
654568.100000016
 20
6867073.3
 10
654574.100000001
 20
6867073.4
 10
654575.700000003
 20
6867073.5
 10
654579.799999997
 20
6867073.6
 10
654593.600000001
 20
6867074
 10
654608.399999999
 20
6867074.2
 10
654619.800000004
 20
6867074.5
 10
654623.100000001
 20
6867074.6
 10
654649.5
 20
6867075.3
 10
654674.600000001
 20
6867075.9
 10
654683.200000003
 20
6867076.1
 10
654695.499999993
 20
6867076.3
 10
654703.400000006
 20
6867076.5
 10
654711.700000003
 20
6867076.8
 10
654739.700000018
 20
6867077.4
 10
654753.100000009
 20
6867077.7
 10
654765.5
 20
6867078
 10
654771.599999994
 20
6867078.2
 10
654777.300000012
 20
6867078.3
 10
654785.899999999
 20
6867078.5
 10
654793.700000003
 20
6867078.70000001
 10
654796.70000001
 20
6867078.8
 10
654809.899999999
 20
6867079.10000001
 10
654814.200000018
 20
6867079
 10
654830.000000015
 20
6867078.8
 10
654880.599999994
 20
6867080.90000001
 10
654918.899999999
 20
6867068.5
 10
654946.900000013
 20
6867059.60000001
 10
654957.5
 20
6867056.2
 10
655148.400000006
 20
6866995.2
 10
655226.900000006
 20
6866970.10000001
 10
655231.799999997
 20
6866968.5
 97
0
 75
0
 76
1
 98
0
  0
HATCH
  5
20003
  8
0
100
AcDbEntity
100
AcDbHatch
 10
0
 20
0
 30
0
210
0
220
0
230
1
  2
SOLID
 70
1
 71
0
 91
1
 92
2
 72
0
 73
1
 93
110
 10
652167.800000004
 20
6863604.3
 10
652193.800000012
 20
6863596
 10
652224.5
 20
6863586.3
 10
652254.200000003
 20
6863576.9
 10
652288.200000018
 20
6863566.1
 10
652300.800000012
 20
6863562.1
 10
652327.000000015
 20
6863553.60000001
 10
652355.100000016
 20
6863543.3
 10
652378.600000001
 20
6863535.90000001
 10
652390.200000003
 20
6863532.20000001
 10
652469.899999999
 20
6863505.5
 10
652514.800000012
 20
6863489.9
 10
652555.099999994
 20
6863476
 10
652579.5
 20
6863467
 10
652597.099999994
 20
6863460.3
 10
652630.500000007
 20
6863449.4
 10
652615.799999997
 20
6863406.7
 10
652615.100000016
 20
6863404.7
 10
652604.299999997
 20
6863377.5
 10
652591.5
 20
6863344.2
 10
652583.599999994
 20
6863323.7
 10
652571.600000001
 20
6863290.6
 10
652560.800000012
 20
6863261
 10
652550
 20
6863233.1
 10
652542.000000007
 20
6863212.7
 10
652535.100000001
 20
6863194.7
 10
652502.300000004
 20
6863106.40000001
 10
652459.70000001
 20
6862996.8
 10
652425.600000001
 20
6862906
 10
652413.899999999
 20
6862874.4
 10
652383.299999997
 20
6862792.6
 10
652314.5
 20
6862820
 10
652244.900000006
 20
6862844.40000001
 10
652243.5
 20
6862844.9
 10
652196.5
 20
6862861.3
 10
652139
 20
6862884.40000001
 10
652071.5
 20
6862910.3
 10
652046.400000013
 20
6862919.10000001
 10
652020.20000001
 20
6862928.20000001
 10
652010.5
 20
6862931.6
 10
652000.200000003
 20
6862935.2
 10
651987.599999994
 20
6862939.70000001
 10
651982.5
 20
6862941.4
 10
651967.300000004
 20
6862946.7
 10
651958.100000001
 20
6862949.9
 10
651954.800000004
 20
6862951
 10
651946.500000007
 20
6862954.2
 10
651864.900000013
 20
6862985.1
 10
651808.099999994
 20
6863006.5
 10
651771.100000001
 20
6863019.3
 10
651741.5
 20
6863030.3
 10
651701
 20
6863046.6
 10
651689.900000006
 20
6863051.10000001
 10
651680.5
 20
6863054.8
 10
651670.599999994
 20
6863058.7
 10
651662.5
 20
6863061.90000001
 10
651658.800000012
 20
6863063.4
 10
651649
 20
6863067.2
 10
651637.200000003
 20
6863071.8
 10
651616.299999997
 20
6863079
 10
651565.300000012
 20
6863096.40000001
 10
651556.400000006
 20
6863099.7
 10
651541.600000001
 20
6863105.1
 10
651531.099999994
 20
6863109.1
 10
651514.399999999
 20
6863115.2
 10
651485.300000019
 20
6863126.1
 10
651391
 20
6863161.2
 10
651331
 20
6863181.9
 10
651318.5
 20
6863186.3
 10
651280.900000006
 20
6863199.3
 10
651235.5
 20
6863216
 10
651227.299999997
 20
6863218.90000001
 10
651188.000000015
 20
6863232.60000001
 10
651118.300000012
 20
6863259.7
 10
651019.400000006
 20
6863296
 10
650979.200000018
 20
6863309.7
 10
650882.400000006
 20
6863345.10000001
 10
650872.100000001
 20
6863351.6
 10
650859.200000003
 20
6863361.90000001
 10
650806.800000012
 20
6863418.7
 10
650725.100000009
 20
6863512.90000001
 10
650706.100000016
 20
6863530.5
 10
650780.099999994
 20
6863549.40000001
 10
650787.799999997
 20
6863551.40000001
 10
650851.100000009
 20
6863568.3
 10
650856.100000001
 20
6863569.5
 10
651005.100000001
 20
6863607.4
 10
651038.5
 20
6863614.20000001
 10
651043.5
 20
6863615.5
 10
651158.499999993
 20
6863643.9
 10
651160.600000001
 20
6863644.5
 10
651190.599999994
 20
6863651.8
 10
651203.200000003
 20
6863654.9
 10
651288.800000004
 20
6863678.1
 10
651356.400000006
 20
6863694.90000001
 10
651367.399999999
 20
6863697.7
 10
651374.700000018
 20
6863699.6
 10
651422.400000006
 20
6863711.5
 10
651444.100000001
 20
6863716.9
 10
651466.200000018
 20
6863722.4
 10
651590.800000004
 20
6863753.5
 10
651706.899999999
 20
6863723.20000001
 10
651723.600000001
 20
6863718.8
 10
651811.5
 20
6863695.9
 10
651835.799999997
 20
6863689.5
 10
652003.300000004
 20
6863645.8
 10
652027.199999996
 20
6863639.5
 10
652082.699999996
 20
6863625.2
 10
652102.700000018
 20
6863620.20000001
 10
652167.800000004
 20
6863604.3
 97
0
 75
0
 76
1
 98
0
  0
HATCH
  5
20004
  8
0
100
AcDbEntity
100
AcDbHatch
 10
0
 20
0
 30
0
210
0
220
0
230
1
  2
SOLID
 70
1
 71
0
 91
1
 92
2
 72
0
 73
1
 93
148
 10
652293.199999996
 20
6865053
 10
652293.900000006
 20
6865040.8
 10
652294.100000016
 20
6865040.5
 10
652302.899999999
 20
6865025.7
 10
652305.400000006
 20
6864968.2
 10
652308.000000015
 20
6864908.00000001
 10
652308.199999996
 20
6864906.40000001
 10
652318
 20
6864760.6
 10
652320.400000006
 20
6864718.90000001
 10
652317.399999999
 20
6864690.7
 10
652294.300000004
 20
6864604.3
 10
652293.900000006
 20
6864602.8
 10
652280
 20
6864550.8
 10
652276.899999999
 20
6864539.20000001
 10
652273.200000003
 20
6864513
 10
652269.100000016
 20
6864482.10000001
 10
652267.799999997
 20
6864465.7
 10
652266.399999999
 20
6864442.10000001
 10
652264.400000013
 20
6864403.90000001
 10
652262.400000013
 20
6864364.9
 10
652258.200000003
 20
6864351.4
 10
652253.099999994
 20
6864336.4
 10
652248.799999997
 20
6864326.6
 10
652239.899999999
 20
6864298.5
 10
652226.599999994
 20
6864263.8
 10
652222.799999997
 20
6864254
 10
652204.799999997
 20
6864208.90000001
 10
652202.799999997
 20
6864203.8
 10
652200.200000018
 20
6864194.7
 10
652198.5
 20
6864187.3
 10
652195.100000001
 20
6864170.9
 10
652189.900000013
 20
6864137.4
 10
652181.600000001
 20
6864068.90000001
 10
652172.5
 20
6864002.60000001
 10
652169.600000009
 20
6863974.7
 10
652168.500000015
 20
6863909
 10
652167.800000004
 20
6863868.8
 10
652166.900000013
 20
6863802.9
 10
652166.900000013
 20
6863756.8
 10
652167
 20
6863751.4
 10
652166.799999997
 20
6863674.8
 10
652167.800000004
 20
6863604.3
 10
652102.700000018
 20
6863620.20000001
 10
652082.699999996
 20
6863625.2
 10
652027.199999996
 20
6863639.5
 10
652003.300000004
 20
6863645.8
 10
651835.799999997
 20
6863689.5
 10
651811.5
 20
6863695.9
 10
651723.600000001
 20
6863718.8
 10
651706.899999999
 20
6863723.20000001
 10
651590.800000004
 20
6863753.5
 10
651466.200000018
 20
6863722.4
 10
651444.100000001
 20
6863716.9
 10
651422.400000006
 20
6863711.5
 10
651374.700000018
 20
6863699.6
 10
651367.399999999
 20
6863697.7
 10
651356.400000006
 20
6863694.90000001
 10
651288.800000004
 20
6863678.1
 10
651203.200000003
 20
6863654.9
 10
651190.599999994
 20
6863651.8
 10
651160.600000001
 20
6863644.5
 10
651158.499999993
 20
6863643.9
 10
651043.5
 20
6863615.5
 10
651038.5
 20
6863614.20000001
 10
651005.100000001
 20
6863607.4
 10
650856.100000001
 20
6863569.5
 10
650851.100000009
 20
6863568.3
 10
650787.799999997
 20
6863551.40000001
 10
650780.099999994
 20
6863549.40000001
 10
650706.100000016
 20
6863530.5
 10
650591.400000006
 20
6863501.50000001
 10
650547.300000004
 20
6863490.7
 10
650557.399999999
 20
6863551.20000001
 10
650566.5
 20
6863603.9
 10
650603.600000001
 20
6863810.9
 10
650614.700000003
 20
6863888.7
 10
650638.199999996
 20
6863944.7
 10
650639.500000015
 20
6863947.7
 10
650642.300000012
 20
6863954.70000001
 10
650644.600000001
 20
6863959.7
 10
650640.399999999
 20
6863966.7
 10
650637.799999997
 20
6863974
 10
650635.600000016
 20
6863983.8
 10
650632.100000001
 20
6864005.4
 10
650618.700000003
 20
6864077.6
 10
650618.300000004
 20
6864080.3
 10
650615.700000003
 20
6864100.10000001
 10
650612.400000006
 20
6864126
 10
650610.899999999
 20
6864138.2
 10
650611.400000013
 20
6864147.50000001
 10
650613.5
 20
6864157.3
 10
650616.900000006
 20
6864163.6
 10
650624.699999996
 20
6864181.70000001
 10
650627.5
 20
6864193.8
 10
650629.5
 20
6864228.4
 10
650632.699999996
 20
6864328.3
 10
650632.999999993
 20
6864340.9
 10
650637.600000016
 20
6864413.3
 10
650637.700000003
 20
6864420.3
 10
650639.600000001
 20
6864509.9
 10
650642.399999999
 20
6864607.8
 10
650642.399999999
 20
6864610.10000001
 10
650642.600000001
 20
6864613.8
 10
650646.700000018
 20
6864701.3
 10
650647.500000015
 20
6864741.70000001
 10
650649.299999997
 20
6864794
 10
650655.599999994
 20
6864972.4
 10
650656.700000003
 20
6865007.3
 10
650656.900000006
 20
6865008.9
 10
650656.799999997
 20
6865011.3
 10
650657.599999994
 20
6865036.7
 10
650670.400000006
 20
6865040.6
 10
650676.599999994
 20
6865042.4
 10
650686.399999999
 20
6865045.3
 10
650700.100000001
 20
6865049.3
 10
650709.800000004
 20
6865052.2
 10
650728
 20
6865064.1
 10
650752.299999997
 20
6865087
 10
650832.900000013
 20
6865161.4
 10
650840.000000007
 20
6865157.9
 10
650933.300000004
 20
6865117.6
 10
651019.700000003
 20
6865085.1
 10
651044.500000007
 20
6865075.8
 10
651047.900000006
 20
6865074.60000001
 10
651055.800000004
 20
6865070.9
 10
651080.300000004
 20
6865059.8
 10
651227
 20
6864993.3
 10
651375
 20
6864925.9
 10
651389.900000006
 20
6864919.3
 10
651407.200000018
 20
6864911.5
 10
651422.099999994
 20
6864907.90000001
 10
651443.5
 20
6864902.8
 10
651564.600000001
 20
6864874.10000001
 10
651578.700000003
 20
6864870.7
 10
651583
 20
6864869.70000001
 10
651741.600000009
 20
6864915.2
 10
651807.100000001
 20
6864934
 10
651883.900000013
 20
6864956.10000001
 10
651923.300000004
 20
6864967.5
 10
652088.5
 20
6865015.10000001
 10
652105.500000015
 20
6865020
 10
652117.199999996
 20
6865021.9
 10
652129.899999999
 20
6865023.9
 10
652152.600000016
 20
6865028
 10
652251.300000012
 20
6865045.90000001
 10
652256.899999999
 20
6865046.9
 10
652279.5
 20
6865050.9
 10
652293.199999996
 20
6865053
 97
0
 75
0
 76
1
 98
0
  0
HATCH
  5
20005
  8
0
100
AcDbEntity
100
AcDbHatch
 10
0
 20
0
 30
0
210
0
220
0
230
1
  2
SOLID
 70
1
 71
0
 91
1
 92
2
 72
0
 73
1
 93
305
 10
656975.300000004
 20
6863839.3
 10
656990.5
 20
6863761.1
 10
656991.299999997
 20
6863747.6
 10
656991.400000006
 20
6863743.2
 10
656993.400000006
 20
6863702.40000001
 10
656993.899999999
 20
6863696.90000001
 10
656994.300000019
 20
6863692.3
 10
656995.200000003
 20
6863663.2
 10
656999.599999994
 20
6863588.7
 10
656999.599999994
 20
6863587.50000001
 10
657002.600000016
 20
6863548.4
 10
657002.900000006
 20
6863544.5
 10
657004.900000013
 20
6863502.8
 10
657008.200000003
 20
6863451.5
 10
657008.700000003
 20
6863445
 10
657009.700000018
 20
6863441.1
 10
657010.200000003
 20
6863434.4
 10
657009.399999999
 20
6863431
 10
657009.300000012
 20
6863422.7
 10
657011
 20
6863402.9
 10
657009.499999993
 20
6863213.3
 10
657010.699999996
 20
6863166.6
 10
657011.399999999
 20
6863135.7
 10
657011.500000007
 20
6863135.3
 10
657011.700000018
 20
6863130.4
 10
657011.700000018
 20
6863128.8
 10
657011.500000007
 20
6863125.3
 10
657011.300000012
 20
6863099
 10
657012.600000001
 20
6863091.9
 10
657012.699999996
 20
6863089.4
 10
657012.900000013
 20
6863080.2
 10
657013
 20
6863077
 10
657012.600000001
 20
6863070.5
 10
657011.500000007
 20
6863058.9
 10
657011.399999999
 20
6863050
 10
657009.099999994
 20
6862976.60000001
 10
657008.500000015
 20
6862931.4
 10
657006.500000015
 20
6862901.90000001
 10
657008.799999997
 20
6862874.4
 10
657009.399999999
 20
6862868.1
 10
657010.300000004
 20
6862857.70000001
 10
657011.200000003
 20
6862846.9
 10
657016.200000003
 20
6862789.5
 10
657018.100000001
 20
6862768
 10
657018.400000013
 20
6862763.5
 10
657019
 20
6862752.90000001
 10
657026.100000001
 20
6862633.1
 10
657026
 20
6862631.9
 10
657027.399999999
 20
6862611.10000001
 10
657035.200000003
 20
6862483.8
 10
657036.600000009
 20
6862450.50000001
 10
657039.800000012
 20
6862413
 10
657039.5
 20
6862391.7
 10
657041.200000003
 20
6862375.3
 10
657041.599999994
 20
6862369.1
 10
657042.899999999
 20
6862360.90000001
 10
657044
 20
6862344.3
 10
657044.900000006
 20
6862341.8
 10
657044.900000006
 20
6862337.2
 10
657047
 20
6862333.7
 10
657047.70000001
 20
6862332.3
 10
657048.900000013
 20
6862315.10000001
 10
657049.599999994
 20
6862307.60000001
 10
657057.300000019
 20
6862227.00000001
 10
657059.20000001
 20
6862208.2
 10
657060.100000001
 20
6862197.8
 10
657061.800000004
 20
6862183.40000001
 10
657067.799999997
 20
6862127.3
 10
657073.399999999
 20
6862074
 10
657085.000000015
 20
6861953.2
 10
657085.299999997
 20
6861950.00000001
 10
657097
 20
6861852.90000001
 10
657098.699999996
 20
6861840.5
 10
657099.700000018
 20
6861832.3
 10
657099.200000003
 20
6861828.3
 10
657098.900000013
 20
6861824.10000001
 10
657102.200000003
 20
6861792
 10
657102.400000013
 20
6861789.9
 10
657105.700000003
 20
6861765.10000001
 10
657107.600000016
 20
6861748.3
 10
657134.799999997
 20
6861505
 10
657144.800000012
 20
6861416.1
 10
657144.899999999
 20
6861415.3
 10
657145.600000016
 20
6861408.2
 10
657145.899999999
 20
6861405.60000001
 10
657148.999999993
 20
6861377.5
 10
657156.5
 20
6861302.20000001
 10
657159.600000001
 20
6861273.3
 10
657164
 20
6861233.9
 10
657164.700000018
 20
6861226.8
 10
657165.100000001
 20
6861223.6
 10
657165.5
 20
6861220.00000001
 10
657165.600000001
 20
6861219.1
 10
657165.800000012
 20
6861216.9
 10
657165.800000012
 20
6861215.2
 10
657166
 20
6861213.4
 10
657166.700000003
 20
6861207.3
 10
657167.000000015
 20
6861204.90000001
 10
657167.800000012
 20
6861197.5
 10
657168.099999994
 20
6861194.8
 10
657169.100000001
 20
6861179.5
 10
657169.299999997
 20
6861120.1
 10
657148.5
 20
6860960
 10
657144.299999997
 20
6860924.9
 10
657140.800000004
 20
6860897.40000001
 10
657139.800000004
 20
6860889.40000001
 10
657131.399999999
 20
6860890.3
 10
657090.100000009
 20
6860896.2
 10
657081.299999997
 20
6860897.40000001
 10
657059.400000006
 20
6860900.5
 10
657054
 20
6860901.2
 10
657053.500000007
 20
6860901.3
 10
657046.799999997
 20
6860902.1
 10
657043.800000012
 20
6860902.5
 10
657033.900000013
 20
6860904.1
 10
657029.600000001
 20
6860904.6
 10
657024.000000015
 20
6860905.3
 10
657021.100000001
 20
6860905.8
 10
657014.100000016
 20
6860906.8
 10
657011.600000001
 20
6860907.2
 10
657006.700000003
 20
6860907.8
 10
657003.000000015
 20
6860908.3
 10
656995.000000015
 20
6860909.5
 10
656993.899999999
 20
6860909.6
 10
656991.200000003
 20
6860910
 10
656984.100000001
 20
6860911
 10
656978.800000012
 20
6860911.6
 10
656967.800000004
 20
6860913.2
 10
656930.100000001
 20
6860918.5
 10
656918.100000009
 20
6860920.40000001
 10
656812.70000001
 20
6860937.1
 10
656810.100000001
 20
6860937.5
 10
656767.900000006
 20
6860941.10000001
 10
656760.299999997
 20
6860942.1
 10
656682.70000001
 20
6860953.4
 10
656666
 20
6860955.8
 10
656654.400000006
 20
6860957.3
 10
656541.899999999
 20
6860972.4
 10
656430.399999999
 20
6860987.2
 10
656423.300000004
 20
6860988.1
 10
656222.400000006
 20
6861016.9
 10
655904.299999997
 20
6861062.3
 10
655908.5
 20
6861091.3
 10
655909.799999997
 20
6861099.70000001
 10
655913.300000004
 20
6861137.1
 10
655913
 20
6861150.1
 10
655912
 20
6861157.20000001
 10
655892
 20
6861250.60000001
 10
655881.899999999
 20
6861298
 10
655878.099999994
 20
6861317.90000001
 10
655870.800000004
 20
6861356.3
 10
655863.100000001
 20
6861393.3
 10
655857.400000006
 20
6861410
 10
655852.200000003
 20
6861418.8
 10
655767
 20
6861588.1
 10
655681.700000018
 20
6861757.5
 10
655561.200000018
 20
6862001.8
 10
655500.5
 20
6862051.5
 10
655426.500000015
 20
6862112.2
 10
655409.100000001
 20
6862126.4
 10
655405.100000016
 20
6862128.9
 10
655402.399999999
 20
6862130.6
 10
655249.399999999
 20
6862200.8
 10
655243.800000012
 20
6862203.3
 10
655235.299999997
 20
6862207
 10
655222.300000004
 20
6862212.4
 10
655216.400000013
 20
6862216.6
 10
655212.800000004
 20
6862219.9
 10
655210.100000016
 20
6862223.40000001
 10
655206.399999999
 20
6862230.4
 10
655204.500000015
 20
6862237.9
 10
655202.900000006
 20
6862243.8
 10
655173.800000004
 20
6862337.5
 10
655161.100000001
 20
6862377.5
 10
655122.500000015
 20
6862502.60000001
 10
655109.600000001
 20
6862544.60000001
 10
655058.100000001
 20
6862711.5
 10
655037
 20
6862743.7
 10
654960.200000003
 20
6862849.8
 10
654896.899999999
 20
6862933.6
 10
654878.100000001
 20
6862958.3
 10
654876.400000013
 20
6862960.5
 10
654863.900000006
 20
6862977.2
 10
654860.399999999
 20
6862983.90000001
 10
654832.699999996
 20
6863021.90000001
 10
654801.900000013
 20
6863061.3
 10
654796.800000019
 20
6863067.90000001
 10
654783.400000006
 20
6863087.4
 10
654780.100000016
 20
6863091.7
 10
654769.800000012
 20
6863112
 10
654760.300000012
 20
6863138.60000001
 10
654751.200000018
 20
6863166
 10
654746.200000003
 20
6863181
 10
654740.900000013
 20
6863195.90000001
 10
654639.200000003
 20
6863311.6
 10
654564.399999999
 20
6863397.9
 10
654564.100000016
 20
6863398.2
 10
654514.100000001
 20
6863458.7
 10
654464.899999999
 20
6863518.3
 10
654400.400000013
 20
6863598.1
 10
654368.300000012
 20
6863637.20000001
 10
654305.199999996
 20
6863724.5
 10
654295.200000003
 20
6863738.40000001
 10
654306.700000003
 20
6863745.3
 10
654316.5
 20
6863749.4
 10
654337.000000015
 20
6863760.10000001
 10
654349.599999994
 20
6863765.3
 10
654384.400000006
 20
6863778.90000001
 10
654413.900000013
 20
6863790.00000001
 10
654416.600000001
 20
6863790.9
 10
654427.5
 20
6863794.9
 10
654465.600000001
 20
6863810.3
 10
654510.800000004
 20
6863826.50000001
 10
654563.700000018
 20
6863840.9
 10
654663.400000006
 20
6863871.1
 10
654704.299999997
 20
6863882.4
 10
654714.100000001
 20
6863885.1
 10
654719.299999997
 20
6863886.5
 10
654745.600000016
 20
6863892.6
 10
654749.799999997
 20
6863893.60000001
 10
654755.300000004
 20
6863894.9
 10
654835.000000007
 20
6863909.6
 10
654887.600000001
 20
6863923.6
 10
654914.200000003
 20
6863941.9
 10
654935.5
 20
6863956.7
 10
654941.200000003
 20
6863960.60000001
 10
654982.5
 20
6863992.70000001
 10
655000.5
 20
6864003.4
 10
655030.500000007
 20
6864019.7
 10
655064
 20
6864023.9
 10
655068
 20
6864024.4
 10
655094.799999997
 20
6864025.7
 10
655098.300000012
 20
6864025.9
 10
655129.800000004
 20
6864028.5
 10
655147.800000004
 20
6864033.8
 10
655179.700000003
 20
6864052.6
 10
655193.400000013
 20
6864061.1
 10
655213.5
 20
6864076.1
 10
655232.500000007
 20
6864093
 10
655292.200000003
 20
6864107.7
 10
655356.5
 20
6864109.40000001
 10
655360.200000003
 20
6864109.40000001
 10
655410.400000006
 20
6864109.40000001
 10
655419.5
 20
6864109.40000001
 10
655429
 20
6864109.7
 10
655448.400000006
 20
6864104.9
 10
655453.899999999
 20
6864104
 10
655494.400000006
 20
6864098.2
 10
655520.699999996
 20
6864095.1
 10
655555.200000003
 20
6864091.2
 10
655612.100000001
 20
6864087.1
 10
655641.5
 20
6864085.1
 10
655652.199999996
 20
6864084.40000001
 10
655676.100000009
 20
6864087.2
 10
655816.200000003
 20
6864103
 10
655823.700000003
 20
6864104
 10
655839.699999996
 20
6864106.1
 10
655881.200000003
 20
6864105.3
 10
655907.100000001
 20
6864107.40000001
 10
655916.300000012
 20
6864108.7
 10
655934.100000016
 20
6864113.9
 10
656181.000000015
 20
6864161.5
 10
656261.500000015
 20
6864193.8
 10
656267.200000003
 20
6864196
 10
656315.599999994
 20
6864219.7
 10
656333.200000018
 20
6864228.3
 10
656373
 20
6864247.7
 10
656385.600000001
 20
6864255.2
 10
656434.099999994
 20
6864274.8
 10
656445.5
 20
6864278.6
 10
656475.900000013
 20
6864284.7
 10
656495.800000004
 20
6864292.4
 10
656503.899999999
 20
6864297.3
 10
656506.100000001
 20
6864298.60000001
 10
656519.800000004
 20
6864305.7
 10
656529.800000012
 20
6864310
 10
656534.799999997
 20
6864312.8
 10
656543.800000004
 20
6864317.60000001
 10
656550.199999996
 20
6864321
 10
656578
 20
6864336.1
 10
656587.600000016
 20
6864341.1
 10
656600.199999996
 20
6864346.5
 10
656609.5
 20
6864350.8
 10
656616.399999999
 20
6864354
 10
656625
 20
6864357.90000001
 10
656633.700000003
 20
6864362
 10
656642.599999994
 20
6864366.1
 10
656664.700000003
 20
6864376.5
 10
656678.5
 20
6864382.90000001
 10
656685.399999999
 20
6864386.1
 10
656690.300000012
 20
6864388.60000001
 10
656694.899999999
 20
6864390.5
 10
656722.300000004
 20
6864404.6
 10
656779.5
 20
6864427.5
 10
656784
 20
6864429.1
 10
656787.700000003
 20
6864430.60000001
 10
656848.100000001
 20
6864316.8
 10
656888.600000001
 20
6864240.5
 10
656906.299999997
 20
6864207.10000001
 10
656921.5
 20
6864126.1
 10
656925.099999994
 20
6864106.3
 10
656932.200000003
 20
6864068.8
 10
656940.70000001
 20
6864023.3
 10
656955.400000013
 20
6863945
 10
656975.300000004
 20
6863839.3
 97
0
 75
0
 76
1
 98
0
  0
HATCH
  5
20006
  8
0
100
AcDbEntity
100
AcDbHatch
 10
0
 20
0
 30
0
210
0
220
0
230
1
  2
SOLID
 70
1
 71
0
 91
1
 92
2
 72
0
 73
1
 93
137
 10
652383.299999997
 20
6862792.6
 10
652364.5
 20
6862739.40000001
 10
652345.400000006
 20
6862689.3
 10
652326.400000006
 20
6862639.90000001
 10
652324.400000006
 20
6862634.7
 10
652293.600000001
 20
6862554.6
 10
652266.300000004
 20
6862483.60000001
 10
652264.700000003
 20
6862479.7
 10
652264.5
 20
6862479.20000001
 10
652263.899999999
 20
6862477.5
 10
652244
 20
6862423.6
 10
652221.300000004
 20
6862363.3
 10
652218.999999993
 20
6862357.40000001
 10
652211
 20
6862335.90000001
 10
652206
 20
6862322.70000001
 10
652204.100000009
 20
6862317.5
 10
652188
 20
6862274.8
 10
652181.100000009
 20
6862256.6
 10
652179
 20
6862250.8
 10
652175.5
 20
6862241.6
 10
652163
 20
6862208.4
 10
652151.100000001
 20
6862176.8
 10
652146.099999994
 20
6862163.4
 10
652130.299999997
 20
6862122.4
 10
652126.100000016
 20
6862116.20000001
 10
652112.200000018
 20
6862102.8
 10
652096.5
 20
6862109.6
 10
652093.300000004
 20
6862102.5
 10
652088.000000015
 20
6862089.3
 10
652086.000000015
 20
6862084.6
 10
652052.70000001
 20
6862003
 10
652052.399999999
 20
6862002.10000001
 10
652048.700000003
 20
6861993.1
 10
652016.900000006
 20
6861920.6
 10
652011.300000004
 20
6861907.8
 10
652004.800000012
 20
6861894.8
 10
652002.100000001
 20
6861889.6
 10
651932.700000018
 20
6861790.2
 10
651925.700000003
 20
6861780.3
 10
651924.70000001
 20
6861778.9
 10
651911.600000001
 20
6861760.6
 10
651873.300000004
 20
6861782.5
 10
651787.20000001
 20
6861844.4
 10
651756.399999999
 20
6861874.8
 10
651702.100000001
 20
6861945.2
 10
651673.799999997
 20
6861989.4
 10
651636.600000016
 20
6862028.60000001
 10
651633.600000001
 20
6862031.8
 10
651630.800000004
 20
6862034.8
 10
651615.600000016
 20
6862050.7
 10
651487
 20
6862161.4
 10
651404.699999996
 20
6862234.3
 10
651393.100000001
 20
6862238.70000001
 10
651310.800000004
 20
6862270.1
 10
651196.900000006
 20
6862306.8
 10
651091.399999999
 20
6862340.2
 10
651056.699999996
 20
6862351.20000001
 10
650932.000000015
 20
6862390.5
 10
650842.800000012
 20
6862439.3
 10
650841.20000001
 20
6862440.1
 10
650838.100000016
 20
6862441.7
 10
650835.100000001
 20
6862443.5
 10
650833.199999996
 20
6862444.5
 10
650696
 20
6862519.40000001
 10
650494.300000004
 20
6862616.90000001
 10
650257
 20
6862731.70000001
 10
650181.100000001
 20
6862768.3
 10
650208.599999994
 20
6862824.1
 10
650212.700000018
 20
6862832.5
 10
650215.700000003
 20
6862838.60000001
 10
650221.200000003
 20
6862849.8
 10
650230.399999999
 20
6862868.5
 10
650288.000000015
 20
6862979.1
 10
650295.500000007
 20
6862992.8
 10
650304.099999994
 20
6863008.40000001
 10
650359.900000006
 20
6863117.70000001
 10
650363.399999999
 20
6863125.40000001
 10
650372.400000013
 20
6863142.8
 10
650376.299999997
 20
6863150.7
 10
650379.799999997
 20
6863155.8
 10
650453.600000001
 20
6863314.20000001
 10
650508.5
 20
6863431.9
 10
650497.299999997
 20
6863478.5
 10
650547.300000004
 20
6863490.7
 10
650591.400000006
 20
6863501.50000001
 10
650706.100000016
 20
6863530.5
 10
650725.100000009
 20
6863512.90000001
 10
650806.800000012
 20
6863418.7
 10
650859.200000003
 20
6863361.90000001
 10
650872.100000001
 20
6863351.6
 10
650882.400000006
 20
6863345.10000001
 10
650979.200000018
 20
6863309.7
 10
651019.400000006
 20
6863296
 10
651118.300000012
 20
6863259.7
 10
651188.000000015
 20
6863232.60000001
 10
651227.299999997
 20
6863218.90000001
 10
651235.5
 20
6863216
 10
651280.900000006
 20
6863199.3
 10
651318.5
 20
6863186.3
 10
651331
 20
6863181.9
 10
651391
 20
6863161.2
 10
651485.300000019
 20
6863126.1
 10
651514.399999999
 20
6863115.2
 10
651531.099999994
 20
6863109.1
 10
651541.600000001
 20
6863105.1
 10
651556.400000006
 20
6863099.7
 10
651565.300000012
 20
6863096.40000001
 10
651616.299999997
 20
6863079
 10
651637.200000003
 20
6863071.8
 10
651649
 20
6863067.2
 10
651658.800000012
 20
6863063.4
 10
651662.5
 20
6863061.90000001
 10
651670.599999994
 20
6863058.7
 10
651680.5
 20
6863054.8
 10
651689.900000006
 20
6863051.10000001
 10
651701
 20
6863046.6
 10
651741.5
 20
6863030.3
 10
651771.100000001
 20
6863019.3
 10
651808.099999994
 20
6863006.5
 10
651864.900000013
 20
6862985.1
 10
651946.500000007
 20
6862954.2
 10
651954.800000004
 20
6862951
 10
651958.100000001
 20
6862949.9
 10
651967.300000004
 20
6862946.7
 10
651982.5
 20
6862941.4
 10
651987.599999994
 20
6862939.70000001
 10
652000.200000003
 20
6862935.2
 10
652010.5
 20
6862931.6
 10
652020.20000001
 20
6862928.20000001
 10
652046.400000013
 20
6862919.10000001
 10
652071.5
 20
6862910.3
 10
652139
 20
6862884.40000001
 10
652196.5
 20
6862861.3
 10
652243.5
 20
6862844.9
 10
652244.900000006
 20
6862844.40000001
 10
652314.5
 20
6862820
 10
652383.299999997
 20
6862792.6
 97
0
 75
0
 76
1
 98
0
  0
HATCH
  5
20007
  8
0
100
AcDbEntity
100
AcDbHatch
 10
0
 20
0
 30
0
210
0
220
0
230
1
  2
SOLID
 70
1
 71
0
 91
1
 92
2
 72
0
 73
1
 93
367
 10
653409.900000006
 20
6865115.5
 10
653392.600000009
 20
6865117.3
 10
653380.100000001
 20
6865118.1
 10
653360.700000003
 20
6865118.7
 10
653344
 20
6865119.1
 10
653317.5
 20
6865119.3
 10
653309.899999999
 20
6865119.4
 10
653307.100000001
 20
6865119.5
 10
653296.900000006
 20
6865119.7
 10
653288.400000013
 20
6865119.8
 10
653276
 20
6865120.10000001
 10
653274.700000003
 20
6865120.10000001
 10
653262.400000006
 20
6865120.40000001
 10
653254.399999999
 20
6865120.60000001
 10
653249.300000004
 20
6865120.7
 10
653219.400000006
 20
6865121
 10
653176.400000006
 20
6865121.4
 10
653134.299999997
 20
6865121.8
 10
653059.300000004
 20
6865123
 10
653055.5
 20
6865123.1
 10
653037.500000007
 20
6865123.2
 10
653018
 20
6865123.2
 10
652994.000000015
 20
6865123.2
 10
652988.899999999
 20
6865123.1
 10
652984.299999997
 20
6865122.8
 10
652945.700000003
 20
6865119.1
 10
652941.700000018
 20
6865118.60000001
 10
652938.399999999
 20
6865118.3
 10
652933.70000001
 20
6865117.8
 10
652927.200000003
 20
6865117.2
 10
652924.099999994
 20
6865116.9
 10
652919.100000016
 20
6865116.3
 10
652917.900000013
 20
6865116.20000001
 10
652914.300000012
 20
6865115.9
 10
652912.399999999
 20
6865115.6
 10
652906.5
 20
6865115
 10
652902.899999999
 20
6865114.7
 10
652891.5
 20
6865113.5
 10
652889.800000019
 20
6865113.3
 10
652881.299999997
 20
6865112.50000001
 10
652878.700000003
 20
6865112.2
 10
652862.5
 20
6865110.50000001
 10
652861.899999999
 20
6865110.40000001
 10
652858.400000013
 20
6865110
 10
652857.5
 20
6865110
 10
652855.200000003
 20
6865109.8
 10
652853.099999994
 20
6865109.5
 10
652846.700000003
 20
6865108.8
 10
652845.000000015
 20
6865108.8
 10
652834
 20
6865107.6
 10
652832.200000003
 20
6865107.4
 10
652827.799999997
 20
6865106.90000001
 10
652818.000000015
 20
6865105.9
 10
652808.900000013
 20
6865105
 10
652791.600000001
 20
6865103.2
 10
652760.399999999
 20
6865100.2
 10
652728.600000001
 20
6865097.1
 10
652580.700000003
 20
6865082.7
 10
652423.700000018
 20
6865066.8
 10
652413.299999997
 20
6865065.7
 10
652338.299999997
 20
6865058.4
 10
652317.600000001
 20
6865056.5
 10
652313.500000015
 20
6865055.9
 10
652297
 20
6865053.60000001
 10
652293.199999996
 20
6865053
 10
652279.5
 20
6865050.9
 10
652256.899999999
 20
6865046.9
 10
652251.300000012
 20
6865045.90000001
 10
652152.600000016
 20
6865028
 10
652129.899999999
 20
6865023.9
 10
652117.199999996
 20
6865021.9
 10
652105.500000015
 20
6865020
 10
652088.5
 20
6865015.10000001
 10
651923.300000004
 20
6864967.5
 10
651883.900000013
 20
6864956.10000001
 10
651807.100000001
 20
6864934
 10
651741.600000009
 20
6864915.2
 10
651583
 20
6864869.70000001
 10
651578.700000003
 20
6864870.7
 10
651564.600000001
 20
6864874.10000001
 10
651443.5
 20
6864902.8
 10
651422.099999994
 20
6864907.90000001
 10
651407.200000018
 20
6864911.5
 10
651389.900000006
 20
6864919.3
 10
651375
 20
6864925.9
 10
651227
 20
6864993.3
 10
651080.300000004
 20
6865059.8
 10
651055.800000004
 20
6865070.9
 10
651047.900000006
 20
6865074.60000001
 10
651044.500000007
 20
6865075.8
 10
651019.700000003
 20
6865085.1
 10
650933.300000004
 20
6865117.6
 10
650840.000000007
 20
6865157.9
 10
650832.900000013
 20
6865161.4
 10
650752.299999997
 20
6865087
 10
650728
 20
6865064.1
 10
650709.800000004
 20
6865052.2
 10
650700.100000001
 20
6865049.3
 10
650686.399999999
 20
6865045.3
 10
650676.599999994
 20
6865042.4
 10
650674.400000013
 20
6865051
 10
650671.5
 20
6865063.3
 10
650666.299999997
 20
6865081.2
 10
650645.200000003
 20
6865153.9
 10
650631.200000018
 20
6865202.9
 10
650627.700000018
 20
6865214.2
 10
650616.600000016
 20
6865250.20000001
 10
650601.799999997
 20
6865297.6
 10
650584.899999999
 20
6865351.20000001
 10
650574.500000007
 20
6865387.2
 10
650569.5
 20
6865403.2
 10
650553.600000001
 20
6865453.5
 10
650542.000000007
 20
6865490.3
 10
650546.999999993
 20
6865498.3
 10
650560.200000003
 20
6865543
 10
650573.000000015
 20
6865600.8
 10
650587.400000006
 20
6865665.6
 10
650598.800000004
 20
6865717.8
 10
650602.700000018
 20
6865733.70000001
 10
650612.899999999
 20
6865777.2
 10
650620.900000013
 20
6865810.4
 10
650625.400000006
 20
6865830.7
 10
650627.5
 20
6865840.1
 10
650643.900000013
 20
6865913.40000001
 10
650650.5
 20
6865943.4
 10
650689.400000006
 20
6866103
 10
650697.599999994
 20
6866142.2
 10
650712.699999996
 20
6866213.00000001
 10
650736.899999999
 20
6866315.8
 10
650743.700000003
 20
6866347.2
 10
650748.600000001
 20
6866370.2
 10
650751
 20
6866381.3
 10
650754.200000003
 20
6866392.70000001
 10
650757.600000009
 20
6866404.60000001
 10
650761.800000004
 20
6866419.70000001
 10
650768.599999994
 20
6866449.6
 10
650779.699999996
 20
6866498.8
 10
650802.100000001
 20
6866598.4
 10
650805.300000004
 20
6866610.2
 10
650806.300000004
 20
6866619.3
 10
650809.799999997
 20
6866629.5
 10
650813
 20
6866646.70000001
 10
650824.5
 20
6866696
 10
650836
 20
6866745.6
 10
650837.300000012
 20
6866750.9
 10
650841.099999994
 20
6866766.3
 10
650870.5
 20
6866896.9
 10
650877.399999999
 20
6866926.2
 10
650883
 20
6866949.9
 10
650890.400000013
 20
6866980.7
 10
650892.899999999
 20
6866990.6
 10
650913.000000015
 20
6866991
 10
650954.600000016
 20
6866991.8
 10
650968
 20
6866992.1
 10
650978.700000003
 20
6866992.3
 10
650984.900000006
 20
6866992.5
 10
650994.099999994
 20
6866992.6
 10
651007.600000001
 20
6866992.90000001
 10
651028.5
 20
6866993.3
 10
651220.200000003
 20
6866998
 10
651236.100000001
 20
6866998.50000001
 10
651256.900000006
 20
6866998.9
 10
651261.300000012
 20
6866999
 10
651268.800000004
 20
6866999.2
 10
651288.900000006
 20
6866999.7
 10
651295.800000012
 20
6866999.8
 10
651334.700000018
 20
6867000.8
 10
651374.800000004
 20
6867001.8
 10
651380.099999994
 20
6867001.9
 10
651413
 20
6867002.60000001
 10
651425.400000013
 20
6867002.9
 10
651432.799999997
 20
6867003.1
 10
651435.199999996
 20
6867003.2
 10
651446.699999996
 20
6867003.7
 10
651456.900000006
 20
6867003.8
 10
651464.20000001
 20
6867004
 10
651513.899999999
 20
6867005.1
 10
651516.900000006
 20
6867005.2
 10
651598.600000016
 20
6867007
 10
651612.000000007
 20
6867007.1
 10
651617.700000003
 20
6867007.1
 10
651668.199999996
 20
6867008.10000001
 10
651670.100000001
 20
6867008.20000001
 10
651675.100000016
 20
6867008.5
 10
651716.800000004
 20
6867009.5
 10
651773.799999997
 20
6867010.6
 10
651785.899999999
 20
6867010.8
 10
651850.600000009
 20
6867012.3
 10
651855.100000001
 20
6867012.2
 10
651862
 20
6867012.2
 10
651893.5
 20
6867013.1
 10
651902.399999999
 20
6867013.4
 10
651912.800000004
 20
6867013.6
 10
651916.699999996
 20
6867013.6
 10
651945.800000019
 20
6867014.4
 10
651980.899999999
 20
6867015
 10
651995
 20
6867015.4
 10
652012.5
 20
6867015.70000001
 10
652034.399999999
 20
6867016.3
 10
652101.900000013
 20
6867017.8
 10
652207.700000018
 20
6867020
 10
652224
 20
6867020.3
 10
652489.400000006
 20
6867026.2
 10
652494.099999994
 20
6867026.3
 10
652526.100000001
 20
6867027.00000001
 10
652531.299999997
 20
6867027.10000001
 10
652539.600000001
 20
6867027.3
 10
652557.5
 20
6867027.60000001
 10
652567.399999999
 20
6867027.8
 10
652580
 20
6867028.1
 10
652591.700000018
 20
6867028.4
 10
652605.700000003
 20
6867028.7
 10
652617.699999996
 20
6867029.00000001
 10
652623.600000001
 20
6867029.10000001
 10
652627.800000012
 20
6867029.20000001
 10
652634.700000003
 20
6867029.40000001
 10
652643.5
 20
6867029.5
 10
652647.700000003
 20
6867029.7
 10
652653.200000018
 20
6867029.7
 10
652661
 20
6867029.9
 10
652672.100000001
 20
6867030.2
 10
652679.600000001
 20
6867030.3
 10
652688.800000012
 20
6867030.5
 10
652703.200000003
 20
6867030.8
 10
652713.800000012
 20
6867031.10000001
 10
652718.799999997
 20
6867031.2
 10
652732.800000012
 20
6867031.4
 10
652754
 20
6867032
 10
652773.099999994
 20
6867032.4
 10
652792
 20
6867032.70000001
 10
652807.800000004
 20
6867033.10000001
 10
652813.899999999
 20
6867033.3
 10
652819.100000001
 20
6867033.4
 10
652824.300000012
 20
6867033.5
 10
652838.700000003
 20
6867033.9
 10
652852.100000016
 20
6867034.1
 10
652865.200000018
 20
6867034.4
 10
652877.699999996
 20
6867034.70000001
 10
652891.5
 20
6867035
 10
652909
 20
6867035.4
 10
652915.600000001
 20
6867035.5
 10
652965.299999997
 20
6867036.70000001
 10
652967.100000001
 20
6867036.70000001
 10
652973.300000004
 20
6867036.8
 10
652977.300000012
 20
6867036.90000001
 10
652986.800000012
 20
6867037.10000001
 10
652994.400000013
 20
6867037.3
 10
653000.900000006
 20
6867037.5
 10
653006.600000009
 20
6867037.5
 10
653011.400000013
 20
6867037.7
 10
653014.900000006
 20
6867037.8
 10
653017.399999999
 20
6867037.8
 10
653020.200000003
 20
6867037.9
 10
653030.000000015
 20
6867038.1
 10
653038.199999996
 20
6867038.3
 10
653042.100000001
 20
6867038.3
 10
653166.300000004
 20
6867041.2
 10
653250.100000001
 20
6867043.1
 10
653258.499999993
 20
6867043.2
 10
653346
 20
6867045.2
 10
653358.100000001
 20
6867045.5
 10
653375.899999999
 20
6867045.8
 10
653473.500000015
 20
6867048.10000001
 10
653494
 20
6867048.5
 10
653534.900000013
 20
6867049.6
 10
653549.000000007
 20
6867050.00000001
 10
653582.800000004
 20
6867050.8
 10
653644.099999994
 20
6867052.4
 10
653665.900000006
 20
6867053
 10
653691.299999997
 20
6867053.5
 10
653723.500000007
 20
6867054.10000001
 10
653733.299999997
 20
6867054.3
 10
653737.299999997
 20
6867054
 10
653743.400000013
 20
6867053.70000001
 10
653749.399999999
 20
6867053.70000001
 10
653798.100000016
 20
6867055.1
 10
653810.599999994
 20
6867055.3
 10
653813.700000003
 20
6867055.3
 10
653815.700000003
 20
6867055.4
 10
653837.300000012
 20
6867055.8
 10
653833.5
 20
6867047
 10
653831.800000019
 20
6867043.1
 10
653828.700000003
 20
6867030.8
 10
653827.899999999
 20
6867023.20000001
 10
653827.800000012
 20
6867018.3
 10
653827.800000012
 20
6867011.2
 10
653828.200000018
 20
6867002.9
 10
653831.900000006
 20
6866973.70000001
 10
653837.099999994
 20
6866959
 10
653838
 20
6866943.7
 10
653838.500000015
 20
6866930.9
 10
653839.300000012
 20
6866910
 10
653834.799999997
 20
6866890.9
 10
653832.200000018
 20
6866883
 10
653831.900000006
 20
6866878.00000001
 10
653830.700000003
 20
6866861.9
 10
653830
 20
6866838.00000001
 10
653830.100000001
 20
6866832.8
 10
653830.300000004
 20
6866808.4
 10
653831.399999999
 20
6866779.4
 10
653835
 20
6866778.1
 10
653836.399999999
 20
6866729.9
 10
653836.100000016
 20
6866719.1
 10
653835.399999999
 20
6866703.8
 10
653835.100000001
 20
6866687.9
 10
653835.100000001
 20
6866683.60000001
 10
653835.900000006
 20
6866625.1
 10
653836.500000015
 20
6866585.5
 10
653836.700000003
 20
6866578.9
 10
653836.900000013
 20
6866568
 10
653837
 20
6866560.4
 10
653837
 20
6866557.60000001
 10
653839
 20
6866502
 10
653840.200000003
 20
6866489.9
 10
653841.400000006
 20
6866478.70000001
 10
653842.600000001
 20
6866473.6
 10
653844.299999997
 20
6866469.40000001
 10
653896.199999996
 20
6866404.40000001
 10
653899.700000003
 20
6866397.10000001
 10
653902.800000004
 20
6866387.8
 10
653901.900000013
 20
6866379.3
 10
653909.400000013
 20
6866370.9
 10
653911.200000003
 20
6866368.8
 10
653911.899999999
 20
6866368
 10
653913.599999994
 20
6866366.10000001
 10
653916.200000018
 20
6866363.3
 10
653920.900000013
 20
6866358
 10
653927
 20
6866351.2
 10
653929.20000001
 20
6866348.8
 10
653929.899999999
 20
6866348.1
 10
653932.100000001
 20
6866345.6
 10
653932.600000001
 20
6866345.00000001
 10
653934.899999999
 20
6866342.3
 10
653937.200000018
 20
6866340.4
 10
653940.800000004
 20
6866337.20000001
 10
653855.700000003
 20
6866261.2
 10
653845.400000006
 20
6866247.90000001
 10
653840.800000004
 20
6866239
 10
653820.299999997
 20
6866203.40000001
 10
653810.800000019
 20
6866183.9
 10
653809.100000009
 20
6866179.10000001
 10
653798.600000001
 20
6866141.8
 10
653773.600000001
 20
6866062.00000001
 10
653749
 20
6865977.1
 10
653747.199999996
 20
6865971
 10
653745.399999999
 20
6865965
 10
653744.700000003
 20
6865962.5
 10
653718.600000001
 20
6865872.5
 10
653713.099999994
 20
6865853.70000001
 10
653666.200000003
 20
6865706.70000001
 10
653649.600000001
 20
6865658.3
 10
653635.400000006
 20
6865614.3
 10
653626.500000015
 20
6865587
 10
653615.5
 20
6865548.3
 10
653607.899999999
 20
6865521.5
 10
653600.399999999
 20
6865492.90000001
 10
653590.5
 20
6865462.40000001
 10
653584.200000003
 20
6865444.8
 10
653570.899999999
 20
6865389.1
 10
653565.299999997
 20
6865365.9
 10
653561.500000015
 20
6865357.7
 10
653549.600000016
 20
6865338.2
 10
653493.300000012
 20
6865245.5
 10
653469.700000003
 20
6865208.5
 10
653468.199999996
 20
6865206.40000001
 10
653418.5
 20
6865127.70000001
 10
653409.900000006
 20
6865115.5
 97
0
 75
0
 76
1
 98
0
  0
HATCH
  5
20008
  8
0
100
AcDbEntity
100
AcDbHatch
 10
0
 20
0
 30
0
210
0
220
0
230
1
  2
SOLID
 70
1
 71
0
 91
1
 92
2
 72
0
 73
1
 93
228
 10
650676.599999994
 20
6865042.4
 10
650670.400000006
 20
6865040.6
 10
650657.599999994
 20
6865036.7
 10
650650.5
 20
6865034.7
 10
650640.5
 20
6865031.6
 10
650624.100000016
 20
6865026.8
 10
650526.700000003
 20
6864997.8
 10
650439.5
 20
6864971.9
 10
650438.700000003
 20
6864971.7
 10
650374.899999999
 20
6864952.7
 10
650206.400000013
 20
6864902.7
 10
650205.600000016
 20
6864902.40000001
 10
650199.600000009
 20
6864900.60000001
 10
650192.700000003
 20
6864898.60000001
 10
650186.200000018
 20
6864896.60000001
 10
650179.600000001
 20
6864894.60000001
 10
650173.900000013
 20
6864892.90000001
 10
650172.600000001
 20
6864892.6
 10
650167.600000001
 20
6864891.10000001
 10
650163.799999997
 20
6864889.9
 10
649896.400000006
 20
6864810.50000001
 10
649873.200000003
 20
6864806.2
 10
649805.5
 20
6864793.8
 10
649787.900000013
 20
6864790.4
 10
649771.899999999
 20
6864787.60000001
 10
649703
 20
6864776.20000001
 10
649700.300000012
 20
6864775.7
 10
649624.200000018
 20
6864763
 10
649581.5
 20
6864755.9
 10
649557.600000016
 20
6864751.5
 10
649522.100000001
 20
6864745.40000001
 10
649409.299999997
 20
6864726.3
 10
649369.400000013
 20
6864718.4
 10
649369.100000001
 20
6864720
 10
649368.700000003
 20
6864722.60000001
 10
649355.600000001
 20
6864719.5
 10
649343.300000004
 20
6864716.7
 10
649338
 20
6864715.5
 10
649329.5
 20
6864713.5
 10
649314
 20
6864709.9
 10
649311.399999999
 20
6864709.3
 10
649304.800000012
 20
6864707.8
 10
649293.800000004
 20
6864705.2
 10
649294
 20
6864703.40000001
 10
649294.300000004
 20
6864701.50000001
 10
649270.399999999
 20
6864694.4
 10
649184.399999999
 20
6864666
 10
649060.300000012
 20
6864626.8
 10
649027.800000012
 20
6864616.10000001
 10
648895.600000001
 20
6864574.6
 10
648891.699999996
 20
6864573.3
 10
648839.500000015
 20
6864557
 10
648790.299999997
 20
6864541.5
 10
648732.500000015
 20
6864523.3
 10
648722.20000001
 20
6864520.10000001
 10
648707
 20
6864515.2
 10
648574.899999999
 20
6864473.4
 10
648560.300000004
 20
6864468.60000001
 10
648548.400000006
 20
6864464.8
 10
648544.900000006
 20
6864463.7
 10
648536.5
 20
6864461
 10
648524.900000013
 20
6864457.20000001
 10
648519.599999994
 20
6864446.2
 10
648517.300000012
 20
6864441.2
 10
648515.100000001
 20
6864437
 10
648509.299999997
 20
6864425
 10
648504.600000009
 20
6864415.3
 10
648451.799999997
 20
6864307.3
 10
648430.500000007
 20
6864263.90000001
 10
648428.399999999
 20
6864259.6
 10
648408.199999996
 20
6864218.1
 10
648404.699999996
 20
6864211
 10
648382.300000004
 20
6864165.4
 10
648379.200000003
 20
6864158.90000001
 10
648376.299999997
 20
6864153
 10
648365.700000003
 20
6864131.3
 10
648343.900000006
 20
6864088.40000001
 10
648330.800000004
 20
6864062.6
 10
648315.400000006
 20
6864030.6
 10
648311.899999999
 20
6864022.9
 10
648311.400000006
 20
6864022
 10
648305.399999999
 20
6864009.6
 10
648303.599999994
 20
6864005.8
 10
648301.300000004
 20
6864001
 10
648291.600000001
 20
6863980.7
 10
648282.599999994
 20
6863985.3
 10
648251.299999997
 20
6864001.1
 10
648210.300000004
 20
6864021.9
 10
648187.400000006
 20
6864033.10000001
 10
648143.099999994
 20
6864054.7
 10
648109.600000001
 20
6864071.10000001
 10
648050.300000004
 20
6864100.2
 10
648013.20000001
 20
6864118.5
 10
648011.400000006
 20
6864119.3
 10
648007.900000006
 20
6864121
 10
647993.5
 20
6864128.1
 10
647957.300000004
 20
6864145.8
 10
647846.699999996
 20
6864200.4
 10
647719.899999999
 20
6864263
 10
647592.799999997
 20
6864325.60000001
 10
647515.500000015
 20
6864363.7
 10
647498.600000001
 20
6864372
 10
647469.799999997
 20
6864386.20000001
 10
647443.199999996
 20
6864399.4
 10
647394.899999999
 20
6864423.2
 10
647387
 20
6864427.1
 10
647367.200000003
 20
6864436.8
 10
647342.199999996
 20
6864449.1
 10
647340.399999999
 20
6864450
 10
647287
 20
6864476.40000001
 10
647274.200000003
 20
6864482.7
 10
647263.899999999
 20
6864487.8
 10
647252.70000001
 20
6864493.20000001
 10
647248.599999994
 20
6864495.40000001
 10
647239.5
 20
6864500
 10
647226.400000006
 20
6864506.5
 10
647220.400000006
 20
6864509.4
 10
647218
 20
6864510.60000001
 10
647190.200000003
 20
6864524.4
 10
647193.399999999
 20
6864544.7
 10
647235.800000004
 20
6864805.8
 10
647243.300000004
 20
6864860.5
 10
647264
 20
6864992.9
 10
647272.700000003
 20
6865012.7
 10
647531.900000006
 20
6865301.70000001
 10
647528.100000001
 20
6865307.1
 10
647615.70000001
 20
6865408.1
 10
647976.5
 20
6865671.9
 10
648022.199999996
 20
6865709.9
 10
648048.700000003
 20
6865728.6
 10
648113.900000013
 20
6865746.4
 10
648154
 20
6865744
 10
648234.800000012
 20
6865757.2
 10
648273.700000003
 20
6865764.5
 10
648302.300000004
 20
6865771.2
 10
648306.200000003
 20
6865771.1
 10
648340.300000004
 20
6865795.4
 10
648491.900000006
 20
6865912
 10
648526.299999997
 20
6865937.90000001
 10
648534.800000012
 20
6865943.6
 10
648573.099999994
 20
6865973.6
 10
648717.699999996
 20
6866073.70000001
 10
648805.800000012
 20
6866137.2
 10
648809.800000012
 20
6866140.8
 10
648919.200000018
 20
6866217.10000001
 10
648923.700000003
 20
6866220.3
 10
648928.199999996
 20
6866223.8
 10
648950.500000015
 20
6866239.5
 10
648952.800000004
 20
6866241.2
 10
649096
 20
6866344
 10
649241.5
 20
6866445.1
 10
649461.5
 20
6866567.8
 10
649582.700000003
 20
6866632.8
 10
649592.500000015
 20
6866639.1
 10
650039.200000003
 20
6866841.6
 10
650140.200000018
 20
6866932.10000001
 10
650171
 20
6866958.7
 10
650180.600000016
 20
6866966.9
 10
650185.300000004
 20
6866967.1
 10
650262.700000018
 20
6866970.4
 10
650281
 20
6866971.1
 10
650397.100000001
 20
6866975.8
 10
650404.200000003
 20
6866976.2
 10
650576.799999997
 20
6866983.3
 10
650628.000000007
 20
6866985.40000001
 10
650681.300000004
 20
6866986.4
 10
650708.399999999
 20
6866987.00000001
 10
650715.899999999
 20
6866987.10000001
 10
650724.800000019
 20
6866987.3
 10
650730.099999994
 20
6866987.40000001
 10
650758.699999996
 20
6866988
 10
650788.600000001
 20
6866988.5
 10
650807.300000004
 20
6866989
 10
650833.900000006
 20
6866989.4
 10
650868.5
 20
6866990.1
 10
650872
 20
6866990.2
 10
650892.899999999
 20
6866990.6
 10
650890.400000013
 20
6866980.7
 10
650883
 20
6866949.9
 10
650877.399999999
 20
6866926.2
 10
650870.5
 20
6866896.9
 10
650841.099999994
 20
6866766.3
 10
650837.300000012
 20
6866750.9
 10
650836
 20
6866745.6
 10
650824.5
 20
6866696
 10
650813
 20
6866646.70000001
 10
650809.799999997
 20
6866629.5
 10
650806.300000004
 20
6866619.3
 10
650805.300000004
 20
6866610.2
 10
650802.100000001
 20
6866598.4
 10
650779.699999996
 20
6866498.8
 10
650768.599999994
 20
6866449.6
 10
650761.800000004
 20
6866419.70000001
 10
650757.600000009
 20
6866404.60000001
 10
650754.200000003
 20
6866392.70000001
 10
650751
 20
6866381.3
 10
650748.600000001
 20
6866370.2
 10
650743.700000003
 20
6866347.2
 10
650736.899999999
 20
6866315.8
 10
650712.699999996
 20
6866213.00000001
 10
650697.599999994
 20
6866142.2
 10
650689.400000006
 20
6866103
 10
650650.5
 20
6865943.4
 10
650643.900000013
 20
6865913.40000001
 10
650627.5
 20
6865840.1
 10
650625.400000006
 20
6865830.7
 10
650620.900000013
 20
6865810.4
 10
650612.899999999
 20
6865777.2
 10
650602.700000018
 20
6865733.70000001
 10
650598.800000004
 20
6865717.8
 10
650587.400000006
 20
6865665.6
 10
650573.000000015
 20
6865600.8
 10
650560.200000003
 20
6865543
 10
650546.999999993
 20
6865498.3
 10
650542.000000007
 20
6865490.3
 10
650553.600000001
 20
6865453.5
 10
650569.5
 20
6865403.2
 10
650574.500000007
 20
6865387.2
 10
650584.899999999
 20
6865351.20000001
 10
650601.799999997
 20
6865297.6
 10
650616.600000016
 20
6865250.20000001
 10
650627.700000018
 20
6865214.2
 10
650631.200000018
 20
6865202.9
 10
650645.200000003
 20
6865153.9
 10
650666.299999997
 20
6865081.2
 10
650671.5
 20
6865063.3
 10
650674.400000013
 20
6865051
 10
650676.599999994
 20
6865042.4
 97
0
 75
0
 76
1
 98
0
  0
HATCH
  5
20009
  8
0
100
AcDbEntity
100
AcDbHatch
 10
0
 20
0
 30
0
210
0
220
0
230
1
  2
SOLID
 70
1
 71
0
 91
1
 92
2
 72
0
 73
1
 93
142
 10
650181.100000001
 20
6862768.3
 10
650257
 20
6862731.70000001
 10
650494.300000004
 20
6862616.90000001
 10
650696
 20
6862519.40000001
 10
650833.199999996
 20
6862444.5
 10
650835.100000001
 20
6862443.5
 10
650838.100000016
 20
6862441.7
 10
650841.20000001
 20
6862440.1
 10
650842.800000012
 20
6862439.3
 10
650932.000000015
 20
6862390.5
 10
651056.699999996
 20
6862351.20000001
 10
651034.800000004
 20
6862293.1
 10
651031.100000016
 20
6862283.4
 10
651028.5
 20
6862275.7
 10
651026.900000006
 20
6862271.5
 10
651023.700000003
 20
6862262.2
 10
651082.600000016
 20
6862236.50000001
 10
651041.100000001
 20
6862158.20000001
 10
651007.199999996
 20
6862095.8
 10
650962.200000003
 20
6862016.1
 10
650935.399999999
 20
6861970.4
 10
650895.399999999
 20
6861882.90000001
 10
650892.5
 20
6861876.7
 10
650873.300000004
 20
6861811.6
 10
650867.800000012
 20
6861799.10000001
 10
650828.900000006
 20
6861707.9
 10
650815.300000004
 20
6861677.4
 10
650809.100000009
 20
6861661.3
 10
650799.400000006
 20
6861639.6
 10
650791.5
 20
6861618.3
 10
650787.70000001
 20
6861608.8
 10
650737.5
 20
6861544.4
 10
650736.20000001
 20
6861541.10000001
 10
650737.200000003
 20
6861523.5
 10
650679
 20
6861511
 10
650635.5
 20
6861501.7
 10
650605.299999997
 20
6861472.60000001
 10
650600.600000001
 20
6861469
 10
650585.800000004
 20
6861457.8
 10
650516.099999994
 20
6861414.1
 10
650490.700000003
 20
6861398.10000001
 10
650439.200000003
 20
6861365.8
 10
650405.800000004
 20
6861344.8
 10
650394.600000016
 20
6861337.8
 10
650342.800000004
 20
6861300.8
 10
650315.900000006
 20
6861281.5
 10
650253.600000001
 20
6861234.2
 10
650238.699999996
 20
6861222.9
 10
650155.800000004
 20
6861158.5
 10
650139.400000013
 20
6861145.8
 10
650112.5
 20
6861124.90000001
 10
650080.000000015
 20
6861100.9
 10
650064.500000015
 20
6861089.6
 10
650055.299999997
 20
6861084.20000001
 10
650031.800000004
 20
6861070.7
 10
649966.899999999
 20
6861031.4
 10
649890.799999997
 20
6860991.5
 10
649872.800000004
 20
6860982
 10
649856.600000001
 20
6860973.60000001
 10
649831.399999999
 20
6860964.3
 10
649756.300000004
 20
6860931
 10
649674.300000004
 20
6860892.6
 10
649654.700000018
 20
6860883.8
 10
649648.299999997
 20
6860881
 10
649635.100000001
 20
6860874.20000001
 10
649626.899999999
 20
6860882.3
 10
649517
 20
6860989.2
 10
649501.100000001
 20
6861004.60000001
 10
649463.399999999
 20
6861041.3
 10
649462.700000003
 20
6861042.1
 10
649448.700000018
 20
6861055.70000001
 10
649400.700000018
 20
6861102.3
 10
649388.200000003
 20
6861097.6
 10
649382.900000013
 20
6861095.70000001
 10
649331.5
 20
6861076.4
 10
649276.400000006
 20
6861057.90000001
 10
649233.100000016
 20
6861043.4
 10
649169.400000006
 20
6861010.6
 10
649098.5
 20
6861083.5
 10
649093.100000001
 20
6861089.1
 10
649085.5
 20
6861096.7
 10
649083.099999994
 20
6861099
 10
649075.199999996
 20
6861106.8
 10
649068.5
 20
6861113.20000001
 10
649062.899999999
 20
6861118.6
 10
648963.900000006
 20
6861214
 10
648924.100000001
 20
6861254.8
 10
648911.200000003
 20
6861268
 10
648896.100000001
 20
6861282.6
 10
648784.5
 20
6861391
 10
648723.699999996
 20
6861451.40000001
 10
648700.600000001
 20
6861464.3
 10
648681.5
 20
6861480.7
 10
648655.099999994
 20
6861504.8
 10
648585.200000003
 20
6861575
 10
648576.400000013
 20
6861584.90000001
 10
648513.700000003
 20
6861647.6
 10
648484.100000001
 20
6861677
 10
648442.299999997
 20
6861716.3
 10
648413
 20
6861747.7
 10
648389.599999994
 20
6861770.8
 10
648327.700000003
 20
6861832.2
 10
648302.900000013
 20
6861860.1
 10
648200.600000001
 20
6861958
 10
648122.5
 20
6862035.7
 10
648048.600000001
 20
6862110.90000001
 10
647999.100000001
 20
6862161.3
 10
647986.800000004
 20
6862173.8
 10
647983
 20
6862177.60000001
 10
647970.299999997
 20
6862190.6
 10
647964.200000003
 20
6862196.8
 10
647955.800000012
 20
6862205.3
 10
647948.099999994
 20
6862209.70000001
 10
647927.20000001
 20
6862223.60000001
 10
647884.600000001
 20
6862250.7
 10
647942.399999999
 20
6862322.2
 10
647962.799999997
 20
6862351.8
 10
648070.100000001
 20
6862479.3
 10
648180.699999996
 20
6862588.7
 10
648234.800000012
 20
6862630
 10
648267.5
 20
6862657.9
 10
648311.400000006
 20
6862684.3
 10
648415.399999999
 20
6862739.3
 10
648465.600000001
 20
6862763.3
 10
648542
 20
6862796.50000001
 10
648588.600000001
 20
6862811.6
 10
648656.299999997
 20
6862822.4
 10
648746.5
 20
6862832.8
 10
648763.600000001
 20
6862833.6
 10
648773.800000019
 20
6862834.3
 10
648817
 20
6862836.50000001
 10
649112.700000003
 20
6862838.50000001
 10
649349.5
 20
6862840.1
 10
649408.200000018
 20
6862840.50000001
 10
649553.899999999
 20
6862841.5
 10
649619.200000003
 20
6862843.8
 10
649639.600000001
 20
6862844.60000001
 10
649660.300000012
 20
6862845.3
 10
649779.300000004
 20
6862849.5
 10
650016.300000004
 20
6862848.00000001
 10
650085.900000013
 20
6862814.3
 10
650181.100000001
 20
6862768.3
 97
0
 75
0
 76
1
 98
0
  0
HATCH
  5
2000A
  8
0
100
AcDbEntity
100
AcDbHatch
 10
0
 20
0
 30
0
210
0
220
0
230
1
  2
SOLID
 70
1
 71
0
 91
1
 92
2
 72
0
 73
1
 93
228
 10
649856.600000001
 20
6860973.60000001
 10
649865.799999997
 20
6860960.20000001
 10
649875.500000015
 20
6860949.10000001
 10
649940.600000001
 20
6860897.10000001
 10
649967.000000015
 20
6860875.8
 10
649983.299999997
 20
6860863.6
 10
650010.400000006
 20
6860841.1
 10
650031.700000003
 20
6860824.40000001
 10
650087.699999996
 20
6860783.8
 10
650104.300000004
 20
6860776
 10
650135.899999999
 20
6860761.3
 10
650189.399999999
 20
6860733.9
 10
650307.800000012
 20
6860672.7
 10
650328.800000012
 20
6860662.20000001
 10
650341.399999999
 20
6860656
 10
650365.600000001
 20
6860644.1
 10
650396.800000004
 20
6860627.1
 10
650411.200000003
 20
6860620.40000001
 10
650434.700000018
 20
6860609.10000001
 10
650405.199999996
 20
6860569.4
 10
650394.5
 20
6860557.8
 10
650323.300000012
 20
6860472.4
 10
650294.100000001
 20
6860437.2
 10
650286.899999999
 20
6860428
 10
650280.100000016
 20
6860419.3
 10
650276.500000015
 20
6860414.2
 10
650229.199999996
 20
6860359.9
 10
650210.800000004
 20
6860337.40000001
 10
650204.000000015
 20
6860328.9
 10
650201.800000004
 20
6860323.90000001
 10
650200.200000003
 20
6860319.8
 10
650199.5
 20
6860315.7
 10
650211.399999999
 20
6860271.7
 10
650220.400000006
 20
6860238.10000001
 10
650225.200000003
 20
6860220.4
 10
650192.700000003
 20
6860183.7
 10
650174.200000003
 20
6860198.4
 10
650161.100000001
 20
6860208.6
 10
650145.100000001
 20
6860220.8
 10
650132.600000001
 20
6860232.8
 10
650086.399999999
 20
6860275.3
 10
650076.899999999
 20
6860263.2
 10
650076.400000013
 20
6860262.6
 10
650044.600000001
 20
6860221.9
 10
649991.100000001
 20
6860153.3
 10
649977.599999994
 20
6860136.2
 10
649955.799999997
 20
6860108.8
 10
649955.200000003
 20
6860108
 10
649942.899999999
 20
6860092.5
 10
649942.600000001
 20
6860092.1
 10
649927.599999994
 20
6860073.60000001
 10
649924.5
 20
6860069.90000001
 10
649915.600000001
 20
6860059.1
 10
649911.700000003
 20
6860054.3
 10
649888.200000018
 20
6860026
 10
649871.500000015
 20
6860005.9
 10
649871.300000004
 20
6860005.6
 10
649860.299999997
 20
6859992.4
 10
649854.000000007
 20
6859984.9
 10
649845.900000006
 20
6859975.1
 10
649791.100000016
 20
6859906.4
 10
649772.800000012
 20
6859883.5
 10
649707.600000001
 20
6859801.6
 10
649573.600000001
 20
6859652.5
 10
649563.600000016
 20
6859640.7
 10
649559.700000003
 20
6859636.00000001
 10
649558.5
 20
6859634.60000001
 10
649554.100000016
 20
6859629.4
 10
649499.700000003
 20
6859565.1
 10
649487
 20
6859550.10000001
 10
649406.899999999
 20
6859453.10000001
 10
649398.900000006
 20
6859443.3
 10
649391.600000016
 20
6859434.5
 10
649318.600000009
 20
6859347.1
 10
649136.799999997
 20
6859125.5
 10
649132.299999997
 20
6859113.7
 10
649124.500000015
 20
6859093.60000001
 10
649121.5
 20
6859086.10000001
 10
649073.300000012
 20
6859027.5
 10
649067.699999996
 20
6859020.8
 10
649052.100000001
 20
6859001.90000001
 10
649046.299999997
 20
6858994.3
 10
649039.600000001
 20
6858985.6
 10
648985.199999996
 20
6858915.40000001
 10
648948.500000015
 20
6858870.5
 10
648902.600000001
 20
6858814.40000001
 10
648704.599999994
 20
6858567.5
 10
648621.300000004
 20
6858596
 10
648036.800000004
 20
6858797.60000001
 10
647894
 20
6858893.10000001
 10
647833.599999994
 20
6858932
 10
647635.500000007
 20
6859058.1
 10
647491.399999999
 20
6859152.70000001
 10
647408.699999996
 20
6859209.6
 10
647341.900000013
 20
6859249.90000001
 10
647142.799999997
 20
6859361.6
 10
647085.799999997
 20
6859395.60000001
 10
647077.600000016
 20
6859401
 10
647060.900000013
 20
6859379.2
 10
646873.100000016
 20
6859151.8
 10
646799.400000013
 20
6859063.9
 10
646797.299999997
 20
6859065.10000001
 10
646662.899999999
 20
6858945.4
 10
646659.699999996
 20
6858939.5
 10
646651.799999997
 20
6858935.5
 10
646634.399999999
 20
6858919.9
 10
646623.5
 20
6858910.2
 10
646617.900000013
 20
6858901.2
 10
646613.500000015
 20
6858897.1
 10
646248.799999997
 20
6858891.10000001
 10
646234.20000001
 20
6858906.00000001
 10
646216.800000012
 20
6859302.4
 10
646387.5
 20
6859448.2
 10
646417.399999999
 20
6859464.5
 10
646253.600000009
 20
6859641.5
 10
646253
 20
6859641.6
 10
646218.599999994
 20
6859646.8
 10
645885.500000015
 20
6859571.40000001
 10
645942.500000007
 20
6859650.5
 10
645953.400000006
 20
6859664.8
 10
645953.700000018
 20
6859665.2
 10
645965.300000004
 20
6859680.4
 10
645978.400000006
 20
6859697.5
 10
646055.300000004
 20
6859797.2
 10
646126.400000006
 20
6859893.3
 10
646179.100000009
 20
6859973.6
 10
646294.600000001
 20
6860155.8
 10
646301.800000004
 20
6860167.1
 10
646309.900000013
 20
6860179.8
 10
646330.900000013
 20
6860212.4
 10
646513.099999994
 20
6860496.9
 10
646564.100000001
 20
6860573.6
 10
646719.300000012
 20
6860814.90000001
 10
646754.899999999
 20
6860867.9
 10
646809.800000004
 20
6860954.9
 10
646827.200000003
 20
6860981.60000001
 10
646828.700000018
 20
6860983.9
 10
646830.099999994
 20
6860985.8
 10
646872.800000004
 20
6861043.9
 10
646945
 20
6861139
 10
646976.700000003
 20
6861176.10000001
 10
647018.600000001
 20
6861225
 10
647133.699999996
 20
6861340.7
 10
647143.100000001
 20
6861350.3
 10
647170.199999996
 20
6861379.8
 10
647180.700000003
 20
6861391.2
 10
647206.700000003
 20
6861417.2
 10
647208.199999996
 20
6861419.7
 10
647247.100000001
 20
6861460.3
 10
647255.399999999
 20
6861468.9
 10
647376.000000015
 20
6861594.90000001
 10
647382.399999999
 20
6861601.4
 10
647386.600000001
 20
6861606.00000001
 10
647495.200000003
 20
6861719.8
 10
647547.400000006
 20
6861774.40000001
 10
647603.800000004
 20
6861833.60000001
 10
647712.400000006
 20
6861947.4
 10
647721.200000018
 20
6861957.3
 10
647722.70000001
 20
6861958.9
 10
647726.5
 20
6861962.9
 10
647731.800000004
 20
6861968.3
 10
647736.899999999
 20
6861973.8
 10
647740.100000001
 20
6861977.2
 10
647745.800000019
 20
6861983
 10
647752.900000013
 20
6861991.6
 10
647763.399999999
 20
6862004.3
 10
647773.299999997
 20
6862023.9
 10
647786.600000016
 20
6862092.8
 10
647796.699999996
 20
6862122.3
 10
647829.5
 20
6862174.10000001
 10
647873.599999994
 20
6862236.60000001
 10
647884.600000001
 20
6862250.7
 10
647927.20000001
 20
6862223.60000001
 10
647948.099999994
 20
6862209.70000001
 10
647955.800000012
 20
6862205.3
 10
647964.200000003
 20
6862196.8
 10
647970.299999997
 20
6862190.6
 10
647983
 20
6862177.60000001
 10
647986.800000004
 20
6862173.8
 10
647999.100000001
 20
6862161.3
 10
648048.600000001
 20
6862110.90000001
 10
648122.5
 20
6862035.7
 10
648200.600000001
 20
6861958
 10
648302.900000013
 20
6861860.1
 10
648327.700000003
 20
6861832.2
 10
648389.599999994
 20
6861770.8
 10
648413
 20
6861747.7
 10
648442.299999997
 20
6861716.3
 10
648484.100000001
 20
6861677
 10
648513.700000003
 20
6861647.6
 10
648576.400000013
 20
6861584.90000001
 10
648585.200000003
 20
6861575
 10
648655.099999994
 20
6861504.8
 10
648681.5
 20
6861480.7
 10
648700.600000001
 20
6861464.3
 10
648723.699999996
 20
6861451.40000001
 10
648784.5
 20
6861391
 10
648896.100000001
 20
6861282.6
 10
648911.200000003
 20
6861268
 10
648924.100000001
 20
6861254.8
 10
648963.900000006
 20
6861214
 10
649062.899999999
 20
6861118.6
 10
649068.5
 20
6861113.20000001
 10
649075.199999996
 20
6861106.8
 10
649083.099999994
 20
6861099
 10
649085.5
 20
6861096.7
 10
649093.100000001
 20
6861089.1
 10
649098.5
 20
6861083.5
 10
649169.400000006
 20
6861010.6
 10
649233.100000016
 20
6861043.4
 10
649276.400000006
 20
6861057.90000001
 10
649331.5
 20
6861076.4
 10
649382.900000013
 20
6861095.70000001
 10
649388.200000003
 20
6861097.6
 10
649400.700000018
 20
6861102.3
 10
649448.700000018
 20
6861055.70000001
 10
649462.700000003
 20
6861042.1
 10
649463.399999999
 20
6861041.3
 10
649501.100000001
 20
6861004.60000001
 10
649517
 20
6860989.2
 10
649626.899999999
 20
6860882.3
 10
649635.100000001
 20
6860874.20000001
 10
649648.299999997
 20
6860881
 10
649654.700000018
 20
6860883.8
 10
649674.300000004
 20
6860892.6
 10
649756.300000004
 20
6860931
 10
649831.399999999
 20
6860964.3
 10
649856.600000001
 20
6860973.60000001
 97
0
 75
0
 76
1
 98
0
  0
HATCH
  5
2000B
  8
0
100
AcDbEntity
100
AcDbHatch
 10
0
 20
0
 30
0
210
0
220
0
230
1
  2
SOLID
 70
1
 71
0
 91
1
 92
2
 72
0
 73
1
 93
145
 10
651911.600000001
 20
6861760.6
 10
651895.200000003
 20
6861737.6
 10
651890
 20
6861730.3
 10
651885.399999999
 20
6861723.9
 10
651874.200000003
 20
6861688.3
 10
651851.000000015
 20
6861614.5
 10
651818.399999999
 20
6861510.40000001
 10
651810.800000004
 20
6861486.3
 10
651803
 20
6861461.3
 10
651798.800000004
 20
6861450.7
 10
651792.800000012
 20
6861434.9
 10
651788.899999999
 20
6861425.10000001
 10
651771.000000015
 20
6861378.90000001
 10
651760.200000003
 20
6861351.1
 10
651759.100000016
 20
6861348.60000001
 10
651756.599999994
 20
6861342
 10
651696.900000013
 20
6861188
 10
651692.500000015
 20
6861176.60000001
 10
651686.700000003
 20
6861161.7
 10
651673.600000001
 20
6861127.9
 10
651661.5
 20
6861096.5
 10
651651
 20
6861069.3
 10
651642.600000016
 20
6861049.7
 10
651640.100000001
 20
6861043.7
 10
651599.100000001
 20
6860939.9
 10
651582.800000004
 20
6860896
 10
651487.5
 20
6860633.9
 10
651463.800000012
 20
6860571.7
 10
651428.700000003
 20
6860476.5
 10
651397.899999999
 20
6860392.60000001
 10
651374.399999999
 20
6860335.40000001
 10
651370.199999996
 20
6860325.2
 10
651364.800000012
 20
6860312.1
 10
651353.099999994
 20
6860292.5
 10
651350.200000003
 20
6860289.8
 10
651344.799999997
 20
6860285.8
 10
651337.800000012
 20
6860283.2
 10
651331.299999997
 20
6860281.70000001
 10
651322.199999996
 20
6860281.8
 10
651320.299999997
 20
6860250
 10
651320.199999996
 20
6860248.9
 10
651317.800000004
 20
6860210.8
 10
651314.600000001
 20
6860161.8
 10
651305.800000004
 20
6860165.5
 10
651293.100000001
 20
6860170.7
 10
651289.200000003
 20
6860172.3
 10
651283.300000004
 20
6860174.8
 10
651232.100000001
 20
6860203.2
 10
651181.399999999
 20
6860227.4
 10
651098.400000006
 20
6860270
 10
650956.5
 20
6860342.6
 10
650923.199999996
 20
6860359.5
 10
650905.000000007
 20
6860368.7
 10
650814
 20
6860414.9
 10
650794.900000013
 20
6860425.5
 10
650707.399999999
 20
6860471.5
 10
650656.700000003
 20
6860497.8
 10
650616.399999999
 20
6860518.3
 10
650561.699999996
 20
6860545.60000001
 10
650497
 20
6860578.40000001
 10
650479.400000013
 20
6860587.3
 10
650465.300000004
 20
6860594.2
 10
650434.700000018
 20
6860609.10000001
 10
650411.200000003
 20
6860620.40000001
 10
650396.800000004
 20
6860627.1
 10
650365.600000001
 20
6860644.1
 10
650341.399999999
 20
6860656
 10
650328.800000012
 20
6860662.20000001
 10
650307.800000012
 20
6860672.7
 10
650189.399999999
 20
6860733.9
 10
650135.899999999
 20
6860761.3
 10
650104.300000004
 20
6860776
 10
650087.699999996
 20
6860783.8
 10
650031.700000003
 20
6860824.40000001
 10
650010.400000006
 20
6860841.1
 10
649983.299999997
 20
6860863.6
 10
649967.000000015
 20
6860875.8
 10
649940.600000001
 20
6860897.10000001
 10
649875.500000015
 20
6860949.10000001
 10
649865.799999997
 20
6860960.20000001
 10
649856.600000001
 20
6860973.60000001
 10
649872.800000004
 20
6860982
 10
649890.799999997
 20
6860991.5
 10
649966.899999999
 20
6861031.4
 10
650031.800000004
 20
6861070.7
 10
650055.299999997
 20
6861084.20000001
 10
650064.500000015
 20
6861089.6
 10
650080.000000015
 20
6861100.9
 10
650112.5
 20
6861124.90000001
 10
650139.400000013
 20
6861145.8
 10
650155.800000004
 20
6861158.5
 10
650238.699999996
 20
6861222.9
 10
650253.600000001
 20
6861234.2
 10
650315.900000006
 20
6861281.5
 10
650342.800000004
 20
6861300.8
 10
650394.600000016
 20
6861337.8
 10
650405.800000004
 20
6861344.8
 10
650439.200000003
 20
6861365.8
 10
650490.700000003
 20
6861398.10000001
 10
650516.099999994
 20
6861414.1
 10
650585.800000004
 20
6861457.8
 10
650600.600000001
 20
6861469
 10
650605.299999997
 20
6861472.60000001
 10
650635.5
 20
6861501.7
 10
650679
 20
6861511
 10
650737.200000003
 20
6861523.5
 10
650736.20000001
 20
6861541.10000001
 10
650737.5
 20
6861544.4
 10
650787.70000001
 20
6861608.8
 10
650791.5
 20
6861618.3
 10
650799.400000006
 20
6861639.6
 10
650809.100000009
 20
6861661.3
 10
650815.300000004
 20
6861677.4
 10
650828.900000006
 20
6861707.9
 10
650867.800000012
 20
6861799.10000001
 10
650873.300000004
 20
6861811.6
 10
650892.5
 20
6861876.7
 10
650895.399999999
 20
6861882.90000001
 10
650935.399999999
 20
6861970.4
 10
650962.200000003
 20
6862016.1
 10
651007.199999996
 20
6862095.8
 10
651041.100000001
 20
6862158.20000001
 10
651082.600000016
 20
6862236.50000001
 10
651023.700000003
 20
6862262.2
 10
651026.900000006
 20
6862271.5
 10
651028.5
 20
6862275.7
 10
651031.100000016
 20
6862283.4
 10
651034.800000004
 20
6862293.1
 10
651056.699999996
 20
6862351.20000001
 10
651091.399999999
 20
6862340.2
 10
651196.900000006
 20
6862306.8
 10
651310.800000004
 20
6862270.1
 10
651393.100000001
 20
6862238.70000001
 10
651404.699999996
 20
6862234.3
 10
651487
 20
6862161.4
 10
651615.600000016
 20
6862050.7
 10
651630.800000004
 20
6862034.8
 10
651633.600000001
 20
6862031.8
 10
651636.600000016
 20
6862028.60000001
 10
651673.799999997
 20
6861989.4
 10
651702.100000001
 20
6861945.2
 10
651756.399999999
 20
6861874.8
 10
651787.20000001
 20
6861844.4
 10
651873.300000004
 20
6861782.5
 10
651911.600000001
 20
6861760.6
 97
0
 75
0
 76
1
 98
0
  0
HATCH
  5
2000C
  8
0
100
AcDbEntity
100
AcDbHatch
 10
0
 20
0
 30
0
210
0
220
0
230
1
  2
SOLID
 70
1
 71
0
 91
1
 92
2
 72
0
 73
1
 93
191
 10
650547.300000004
 20
6863490.7
 10
650497.299999997
 20
6863478.5
 10
650508.5
 20
6863431.9
 10
650453.600000001
 20
6863314.20000001
 10
650379.799999997
 20
6863155.8
 10
650376.299999997
 20
6863150.7
 10
650372.400000013
 20
6863142.8
 10
650363.399999999
 20
6863125.40000001
 10
650359.900000006
 20
6863117.70000001
 10
650304.099999994
 20
6863008.40000001
 10
650295.500000007
 20
6862992.8
 10
650288.000000015
 20
6862979.1
 10
650230.399999999
 20
6862868.5
 10
650221.200000003
 20
6862849.8
 10
650215.700000003
 20
6862838.60000001
 10
650212.700000018
 20
6862832.5
 10
650208.599999994
 20
6862824.1
 10
650181.100000001
 20
6862768.3
 10
650085.900000013
 20
6862814.3
 10
650016.300000004
 20
6862848.00000001
 10
649779.300000004
 20
6862849.5
 10
649660.300000012
 20
6862845.3
 10
649639.600000001
 20
6862844.60000001
 10
649619.200000003
 20
6862843.8
 10
649553.899999999
 20
6862841.5
 10
649408.200000018
 20
6862840.50000001
 10
649349.5
 20
6862840.1
 10
649112.700000003
 20
6862838.50000001
 10
648817
 20
6862836.50000001
 10
648773.800000019
 20
6862834.3
 10
648763.600000001
 20
6862833.6
 10
648760.099999994
 20
6862892.00000001
 10
648759.600000001
 20
6862900.3
 10
648758.399999999
 20
6862919.8
 10
648756.800000004
 20
6862948.4
 10
648719.800000012
 20
6862972.5
 10
648680.5
 20
6862997.60000001
 10
648668.700000018
 20
6863004.4
 10
648658.200000003
 20
6863009.8
 10
648646.600000001
 20
6863013.4
 10
648638.700000003
 20
6863047.2
 10
648634.5
 20
6863064.9
 10
648632.200000003
 20
6863080.2
 10
648631.800000004
 20
6863082.8
 10
648624.900000006
 20
6863118.7
 10
648614.899999999
 20
6863171.00000001
 10
648613.099999994
 20
6863180.90000001
 10
648595.000000015
 20
6863275.3
 10
648575.800000004
 20
6863372.7
 10
648575.100000001
 20
6863375.90000001
 10
648570.200000003
 20
6863398.3
 10
648567.800000004
 20
6863407.90000001
 10
648525.899999999
 20
6863517.3
 10
648523.800000004
 20
6863522.8
 10
648522.700000003
 20
6863525.7
 10
648521.399999999
 20
6863529
 10
648506.300000019
 20
6863568.50000001
 10
648474.500000015
 20
6863651.9
 10
648470.100000001
 20
6863663.5
 10
648467.800000012
 20
6863669.2
 10
648460.399999999
 20
6863682.90000001
 10
648456.900000006
 20
6863689.5
 10
648453.100000009
 20
6863696.50000001
 10
648449.399999999
 20
6863703.4
 10
648376.700000018
 20
6863837.7
 10
648354.699999996
 20
6863880.3
 10
648341.400000013
 20
6863906.4
 10
648316.800000012
 20
6863943.00000001
 10
648299.100000001
 20
6863969.6
 10
648291.600000001
 20
6863980.7
 10
648301.300000004
 20
6864001
 10
648303.599999994
 20
6864005.8
 10
648305.399999999
 20
6864009.6
 10
648311.400000006
 20
6864022
 10
648311.899999999
 20
6864022.9
 10
648315.400000006
 20
6864030.6
 10
648330.800000004
 20
6864062.6
 10
648343.900000006
 20
6864088.40000001
 10
648365.700000003
 20
6864131.3
 10
648376.299999997
 20
6864153
 10
648379.200000003
 20
6864158.90000001
 10
648382.300000004
 20
6864165.4
 10
648404.699999996
 20
6864211
 10
648408.199999996
 20
6864218.1
 10
648428.399999999
 20
6864259.6
 10
648430.500000007
 20
6864263.90000001
 10
648451.799999997
 20
6864307.3
 10
648504.600000009
 20
6864415.3
 10
648509.299999997
 20
6864425
 10
648515.100000001
 20
6864437
 10
648517.300000012
 20
6864441.2
 10
648519.599999994
 20
6864446.2
 10
648524.900000013
 20
6864457.20000001
 10
648536.5
 20
6864461
 10
648544.900000006
 20
6864463.7
 10
648548.400000006
 20
6864464.8
 10
648560.300000004
 20
6864468.60000001
 10
648574.899999999
 20
6864473.4
 10
648707
 20
6864515.2
 10
648722.20000001
 20
6864520.10000001
 10
648732.500000015
 20
6864523.3
 10
648790.299999997
 20
6864541.5
 10
648839.500000015
 20
6864557
 10
648891.699999996
 20
6864573.3
 10
648895.600000001
 20
6864574.6
 10
649027.800000012
 20
6864616.10000001
 10
649060.300000012
 20
6864626.8
 10
649184.399999999
 20
6864666
 10
649270.399999999
 20
6864694.4
 10
649294.300000004
 20
6864701.50000001
 10
649294
 20
6864703.40000001
 10
649293.800000004
 20
6864705.2
 10
649304.800000012
 20
6864707.8
 10
649311.399999999
 20
6864709.3
 10
649314
 20
6864709.9
 10
649329.5
 20
6864713.5
 10
649338
 20
6864715.5
 10
649343.300000004
 20
6864716.7
 10
649355.600000001
 20
6864719.5
 10
649368.700000003
 20
6864722.60000001
 10
649369.100000001
 20
6864720
 10
649369.400000013
 20
6864718.4
 10
649409.299999997
 20
6864726.3
 10
649522.100000001
 20
6864745.40000001
 10
649557.600000016
 20
6864751.5
 10
649581.5
 20
6864755.9
 10
649624.200000018
 20
6864763
 10
649700.300000012
 20
6864775.7
 10
649703
 20
6864776.20000001
 10
649771.899999999
 20
6864787.60000001
 10
649787.900000013
 20
6864790.4
 10
649805.5
 20
6864793.8
 10
649873.200000003
 20
6864806.2
 10
649896.400000006
 20
6864810.50000001
 10
650163.799999997
 20
6864889.9
 10
650167.600000001
 20
6864891.10000001
 10
650172.600000001
 20
6864892.6
 10
650173.900000013
 20
6864892.90000001
 10
650179.600000001
 20
6864894.60000001
 10
650186.200000018
 20
6864896.60000001
 10
650192.700000003
 20
6864898.60000001
 10
650199.600000009
 20
6864900.60000001
 10
650205.600000016
 20
6864902.40000001
 10
650206.400000013
 20
6864902.7
 10
650374.899999999
 20
6864952.7
 10
650438.700000003
 20
6864971.7
 10
650439.5
 20
6864971.9
 10
650526.700000003
 20
6864997.8
 10
650624.100000016
 20
6865026.8
 10
650640.5
 20
6865031.6
 10
650650.5
 20
6865034.7
 10
650657.599999994
 20
6865036.7
 10
650656.799999997
 20
6865011.3
 10
650656.900000006
 20
6865008.9
 10
650656.700000003
 20
6865007.3
 10
650655.599999994
 20
6864972.4
 10
650649.299999997
 20
6864794
 10
650647.500000015
 20
6864741.70000001
 10
650646.700000018
 20
6864701.3
 10
650642.600000001
 20
6864613.8
 10
650642.399999999
 20
6864610.10000001
 10
650642.399999999
 20
6864607.8
 10
650639.600000001
 20
6864509.9
 10
650637.700000003
 20
6864420.3
 10
650637.600000016
 20
6864413.3
 10
650632.999999993
 20
6864340.9
 10
650632.699999996
 20
6864328.3
 10
650629.5
 20
6864228.4
 10
650627.5
 20
6864193.8
 10
650624.699999996
 20
6864181.70000001
 10
650616.900000006
 20
6864163.6
 10
650613.5
 20
6864157.3
 10
650611.400000013
 20
6864147.50000001
 10
650610.899999999
 20
6864138.2
 10
650612.400000006
 20
6864126
 10
650615.700000003
 20
6864100.10000001
 10
650618.300000004
 20
6864080.3
 10
650618.700000003
 20
6864077.6
 10
650632.100000001
 20
6864005.4
 10
650635.600000016
 20
6863983.8
 10
650637.799999997
 20
6863974
 10
650640.399999999
 20
6863966.7
 10
650644.600000001
 20
6863959.7
 10
650642.300000012
 20
6863954.70000001
 10
650639.500000015
 20
6863947.7
 10
650638.199999996
 20
6863944.7
 10
650614.700000003
 20
6863888.7
 10
650603.600000001
 20
6863810.9
 10
650566.5
 20
6863603.9
 10
650557.399999999
 20
6863551.20000001
 10
650547.300000004
 20
6863490.7
 97
0
 75
0
 76
1
 98
0
  0
HATCH
  5
2000D
  8
0
100
AcDbEntity
100
AcDbHatch
 10
0
 20
0
 30
0
210
0
220
0
230
1
  2
SOLID
 70
1
 71
0
 91
1
 92
2
 72
0
 73
1
 93
210
 10
655904.299999997
 20
6861062.3
 10
655836.300000019
 20
6861074.1
 10
655799.100000001
 20
6861078.4
 10
655790.700000018
 20
6861078.8
 10
655787.300000004
 20
6861079
 10
655744.100000001
 20
6861085.2
 10
655713.400000013
 20
6861089.8
 10
655672.600000016
 20
6861095.6
 10
655627.299999997
 20
6861106.3
 10
655592.100000016
 20
6861114.5
 10
655556.699999996
 20
6861121.5
 10
655546.100000009
 20
6861125.5
 10
655486.600000001
 20
6861138.7
 10
655453.200000003
 20
6861146.10000001
 10
655380.700000003
 20
6861163.5
 10
655371.000000015
 20
6861165.8
 10
655287.5
 20
6861185.8
 10
655263.600000016
 20
6861191.5
 10
655243.899999999
 20
6861196.2
 10
655202.200000018
 20
6861206.1
 10
655040.500000015
 20
6861245.10000001
 10
654849.5
 20
6861291.6
 10
654828.5
 20
6861296.70000001
 10
654807.000000007
 20
6861300.9
 10
654789.099999994
 20
6861304.40000001
 10
654780.900000013
 20
6861305.8
 10
654769.599999994
 20
6861307.8
 10
654743.099999994
 20
6861311
 10
654728.100000001
 20
6861312.8
 10
654719.900000013
 20
6861313.90000001
 10
654713.399999999
 20
6861314.7
 10
654611.5
 20
6861329.10000001
 10
654605.399999999
 20
6861329.9
 10
654512.800000004
 20
6861336.2
 10
654508.899999999
 20
6861336.70000001
 10
654474.700000003
 20
6861344.5
 10
654459.100000016
 20
6861348.10000001
 10
654422.600000009
 20
6861355.70000001
 10
654400.299999997
 20
6861363.3
 10
654394
 20
6861365.5
 10
654342.700000003
 20
6861385.3
 10
654330.300000012
 20
6861390.20000001
 10
654312.500000015
 20
6861397.1
 10
654300.5
 20
6861401.70000001
 10
654266.300000004
 20
6861414.90000001
 10
654222.399999999
 20
6861431.9
 10
654173.599999994
 20
6861448.5
 10
654164.899999999
 20
6861451.9
 10
654144.200000003
 20
6861459.9
 10
654127.700000003
 20
6861466.3
 10
654121.100000001
 20
6861468.9
 10
654086.900000006
 20
6861482.5
 10
654050.600000001
 20
6861497.00000001
 10
654043.199999996
 20
6861500.2
 10
653985.600000001
 20
6861525
 10
653943.799999997
 20
6861543.10000001
 10
653919.300000012
 20
6861554.8
 10
653897.500000015
 20
6861566.6
 10
653863.400000006
 20
6861591.5
 10
653860.900000006
 20
6861593.3
 10
653844.400000013
 20
6861608.4
 10
653807.000000007
 20
6861645.1
 10
653788.799999997
 20
6861655.6
 10
653729.900000013
 20
6861646.7
 10
653717.300000004
 20
6861644.8
 10
653715.5
 20
6861644.5
 10
653707.700000018
 20
6861643.4
 10
653706.399999999
 20
6861652.4
 10
653705.199999996
 20
6861660.9
 10
653704.600000001
 20
6861664.6
 10
653692.600000009
 20
6861747.50000001
 10
653680.400000013
 20
6861827.1
 10
653663.100000001
 20
6861939.4
 10
653645.399999999
 20
6862063.9
 10
653633.700000003
 20
6862137.3
 10
653617.900000006
 20
6862244.8
 10
653606.099999994
 20
6862321.6
 10
653602.399999999
 20
6862346.2
 10
653592.100000001
 20
6862415.8
 10
653582.600000001
 20
6862479
 10
653577.300000012
 20
6862514.5
 10
653570.700000003
 20
6862557.60000001
 10
653566.600000016
 20
6862585
 10
653552.000000015
 20
6862679.6
 10
653545.800000004
 20
6862726.6
 10
653541.299999997
 20
6862746.2
 10
653541.200000003
 20
6862762.9
 10
653519.000000007
 20
6862819.2
 10
653518.300000012
 20
6862821.1
 10
653480.300000004
 20
6862916.4
 10
653477.100000016
 20
6862924.50000001
 10
653450
 20
6862996.7
 10
653401.5
 20
6863118.5
 10
653390.200000003
 20
6863152.7
 10
653382.70000001
 20
6863172.90000001
 10
653366.900000013
 20
6863218.8
 10
653364.900000013
 20
6863220.2
 10
653355.899999999
 20
6863226.9
 10
653352.200000018
 20
6863229.6
 10
653348
 20
6863232.60000001
 10
653344.600000001
 20
6863235.2
 10
653338.900000006
 20
6863239.4
 10
653338.599999994
 20
6863239.6
 10
653335.200000018
 20
6863242.10000001
 10
653337.700000003
 20
6863243.50000001
 10
653339.600000001
 20
6863244.6
 10
653352.899999999
 20
6863252.5
 10
653370.800000012
 20
6863263.10000001
 10
653384.5
 20
6863271.3
 10
653395.200000003
 20
6863278.7
 10
653429.200000003
 20
6863299.10000001
 10
653449.300000012
 20
6863312
 10
653463.899999999
 20
6863321.2
 10
653500.800000012
 20
6863339.20000001
 10
653528.799999997
 20
6863351.9
 10
653570.400000006
 20
6863368
 10
653582
 20
6863372.7
 10
653586.299999997
 20
6863374.5
 10
653594.900000006
 20
6863378.2
 10
653610.600000016
 20
6863384.8
 10
653625.300000012
 20
6863391.5
 10
653628.699999996
 20
6863393.7
 10
653629.300000019
 20
6863394.2
 10
653652.899999999
 20
6863408.7
 10
653739.400000013
 20
6863457.8
 10
653792.300000004
 20
6863482.70000001
 10
653863.600000001
 20
6863514.3
 10
653881.500000007
 20
6863523.3
 10
653900.300000012
 20
6863531.9
 10
653999.899999999
 20
6863576.40000001
 10
654033.299999997
 20
6863593.1
 10
654042.000000007
 20
6863598.2
 10
654042.5
 20
6863598.5
 10
654045.799999997
 20
6863600.5
 10
654058.899999999
 20
6863607.5
 10
654090.200000003
 20
6863627.8
 10
654091
 20
6863628.3
 10
654101.400000006
 20
6863635.40000001
 10
654109.600000016
 20
6863640
 10
654130.300000004
 20
6863650.5
 10
654154.199999996
 20
6863662.40000001
 10
654160.600000001
 20
6863666.7
 10
654205.299999997
 20
6863690
 10
654208.5
 20
6863691.6
 10
654220.200000003
 20
6863697.5
 10
654233.200000018
 20
6863703.3
 10
654245.500000015
 20
6863709.90000001
 10
654288.099999994
 20
6863734.1
 10
654295.200000003
 20
6863738.40000001
 10
654305.199999996
 20
6863724.5
 10
654368.300000012
 20
6863637.20000001
 10
654400.400000013
 20
6863598.1
 10
654464.899999999
 20
6863518.3
 10
654514.100000001
 20
6863458.7
 10
654564.100000016
 20
6863398.2
 10
654564.399999999
 20
6863397.9
 10
654639.200000003
 20
6863311.6
 10
654740.900000013
 20
6863195.90000001
 10
654746.200000003
 20
6863181
 10
654751.200000018
 20
6863166
 10
654760.300000012
 20
6863138.60000001
 10
654769.800000012
 20
6863112
 10
654780.100000016
 20
6863091.7
 10
654783.400000006
 20
6863087.4
 10
654796.800000019
 20
6863067.90000001
 10
654801.900000013
 20
6863061.3
 10
654832.699999996
 20
6863021.90000001
 10
654860.399999999
 20
6862983.90000001
 10
654863.900000006
 20
6862977.2
 10
654876.400000013
 20
6862960.5
 10
654878.100000001
 20
6862958.3
 10
654896.899999999
 20
6862933.6
 10
654960.200000003
 20
6862849.8
 10
655037
 20
6862743.7
 10
655058.100000001
 20
6862711.5
 10
655109.600000001
 20
6862544.60000001
 10
655122.500000015
 20
6862502.60000001
 10
655161.100000001
 20
6862377.5
 10
655173.800000004
 20
6862337.5
 10
655202.900000006
 20
6862243.8
 10
655204.500000015
 20
6862237.9
 10
655206.399999999
 20
6862230.4
 10
655210.100000016
 20
6862223.40000001
 10
655212.800000004
 20
6862219.9
 10
655216.400000013
 20
6862216.6
 10
655222.300000004
 20
6862212.4
 10
655235.299999997
 20
6862207
 10
655243.800000012
 20
6862203.3
 10
655249.399999999
 20
6862200.8
 10
655402.399999999
 20
6862130.6
 10
655405.100000016
 20
6862128.9
 10
655409.100000001
 20
6862126.4
 10
655426.500000015
 20
6862112.2
 10
655500.5
 20
6862051.5
 10
655561.200000018
 20
6862001.8
 10
655681.700000018
 20
6861757.5
 10
655767
 20
6861588.1
 10
655852.200000003
 20
6861418.8
 10
655857.400000006
 20
6861410
 10
655863.100000001
 20
6861393.3
 10
655870.800000004
 20
6861356.3
 10
655878.099999994
 20
6861317.90000001
 10
655881.899999999
 20
6861298
 10
655892
 20
6861250.60000001
 10
655912
 20
6861157.20000001
 10
655913
 20
6861150.1
 10
655913.300000004
 20
6861137.1
 10
655909.799999997
 20
6861099.70000001
 10
655908.5
 20
6861091.3
 10
655904.299999997
 20
6861062.3
 97
0
 75
0
 76
1
 98
0
  0
HATCH
  5
2000E
  8
0
100
AcDbEntity
100
AcDbHatch
 10
0
 20
0
 30
0
210
0
220
0
230
1
  2
SOLID
 70
1
 71
0
 91
1
 92
2
 72
0
 73
1
 93
270
 10
655221.200000018
 20
6858576.5
 10
655174.899999999
 20
6858538.2
 10
655127.299999997
 20
6858512
 10
655116.900000006
 20
6858507.7
 10
655060.500000007
 20
6858479.1
 10
655007.600000016
 20
6858451
 10
654990.300000004
 20
6858441.6
 10
654863.700000018
 20
6858361
 10
654817.399999999
 20
6858336.60000001
 10
654813.000000015
 20
6858334.1
 10
654775
 20
6858313.8
 10
654724.5
 20
6858287.3
 10
654710.100000001
 20
6858280
 10
654590.800000004
 20
6858216.5
 10
654534.599999994
 20
6858138
 10
654439.600000001
 20
6858091.2
 10
654426.200000018
 20
6858084.7
 10
654381.400000013
 20
6858072.90000001
 10
654331.500000015
 20
6858047.8
 10
654222
 20
6857986.8
 10
654188.899999999
 20
6857968.9
 10
654172
 20
6857960.8
 10
654162
 20
6857956.40000001
 10
654159.600000001
 20
6857955.9
 10
654153.500000007
 20
6857953
 10
654079.200000003
 20
6857916.1
 10
654069.200000003
 20
6857911.5
 10
654054.500000015
 20
6857907.6
 10
654047.399999999
 20
6857904.90000001
 10
654044.600000016
 20
6857903.3
 10
654041.800000012
 20
6857900.8
 10
654017.400000006
 20
6857889.1
 10
654001.100000001
 20
6857881.70000001
 10
653961.399999999
 20
6857864.1
 10
653954.400000006
 20
6857860.70000001
 10
653942.399999999
 20
6857855.00000001
 10
653937.500000007
 20
6857852.7
 10
653933.200000018
 20
6857850.7
 10
653888.899999999
 20
6857828.5
 10
653887.300000004
 20
6857827.7
 10
653880.300000004
 20
6857824.3
 10
653851.300000004
 20
6857810
 10
653811.600000001
 20
6857791.1
 10
653801.700000003
 20
6857786.5
 10
653788.399999999
 20
6857780.50000001
 10
653769.399999999
 20
6857772.3
 10
653703
 20
6857742
 10
653662.200000003
 20
6857723
 10
653625.800000004
 20
6857705
 10
653580
 20
6857682.4
 10
653556.800000004
 20
6857671.1
 10
653527.400000013
 20
6857656.8
 10
653514.5
 20
6857651
 10
653498.699999996
 20
6857643.5
 10
653419.700000003
 20
6857607.4
 10
653374.600000001
 20
6857587.90000001
 10
653327
 20
6857564.60000001
 10
653313.800000012
 20
6857558.1
 10
653249.300000004
 20
6857530.8
 10
653085.900000013
 20
6857524.9
 10
653054.600000016
 20
6857523.9
 10
653045.699999996
 20
6857523.6
 10
653016.399999999
 20
6857522.50000001
 10
653001.700000003
 20
6857522.3
 10
652962.400000006
 20
6857521
 10
652927.599999994
 20
6857519.9
 10
652889
 20
6857518.8
 10
652818.699999996
 20
6857516.4
 10
652776.699999996
 20
6857515
 10
652768.699999996
 20
6857514.8
 10
652751.000000015
 20
6857513.9
 10
652735.900000006
 20
6857512.8
 10
652728.000000007
 20
6857512.2
 10
652700.100000001
 20
6857510.2
 10
652667.699999996
 20
6857549.60000001
 10
652618.899999999
 20
6857609.8
 10
652560.000000015
 20
6857675.3
 10
652519.300000004
 20
6857720.9
 10
652504.700000003
 20
6857737.2
 10
652496.200000018
 20
6857746.60000001
 10
652448.400000006
 20
6857804.5
 10
652364.300000019
 20
6857739.7
 10
652336.600000001
 20
6857721
 10
652307.799999997
 20
6857701.5
 10
652200.100000001
 20
6857630.10000001
 10
652180.399999999
 20
6857618.10000001
 10
652174.100000001
 20
6857613.9
 10
652168.400000006
 20
6857609.9
 10
652127.5
 20
6857580.6
 10
652063.299999997
 20
6857535.3
 10
652053.100000009
 20
6857529.3
 10
652044.299999997
 20
6857526.20000001
 10
652031.900000006
 20
6857523.9
 10
652023.200000003
 20
6857522.8
 10
652016.500000007
 20
6857522.90000001
 10
652004.000000015
 20
6857523.8
 10
651990.399999999
 20
6857525.8
 10
651978.800000004
 20
6857528.20000001
 10
651943.300000004
 20
6857533.7
 10
651931
 20
6857534.8
 10
651917.400000006
 20
6857535.5
 10
651903.100000001
 20
6857535.2
 10
651885.399999999
 20
6857533.6
 10
651870.5
 20
6857531.1
 10
651864.399999999
 20
6857529.8
 10
651856.000000007
 20
6857527.5
 10
651863.599999994
 20
6857482.40000001
 10
651862.399999999
 20
6857477
 10
651854.800000004
 20
6857481.7
 10
651846.399999999
 20
6857486.60000001
 10
651832.299999997
 20
6857494.6
 10
651822.500000015
 20
6857500.10000001
 10
651825.399999999
 20
6857527.3
 10
651827.099999994
 20
6857542.5
 10
651827.5
 20
6857546.8
 10
651828.800000012
 20
6857562.8
 10
651829.800000004
 20
6857575.4
 10
651830.899999999
 20
6857589.3
 10
651831.200000018
 20
6857593.3
 10
651831.899999999
 20
6857606.4
 10
651833.700000003
 20
6857637.8
 10
651836.199999996
 20
6857670.3
 10
651838
 20
6857693
 10
651838.300000012
 20
6857697.9
 10
651842.5
 20
6857731.9
 10
651848
 20
6857768.5
 10
651854.300000004
 20
6857799.8
 10
651862.500000015
 20
6857840.9
 10
651869.600000009
 20
6857871.9
 10
651874.600000001
 20
6857903.6
 10
651875.700000003
 20
6857916.1
 10
651875.100000001
 20
6857920.8
 10
651863.300000012
 20
6857941.8
 10
651859.599999994
 20
6857948.4
 10
651844.600000001
 20
6857973.3
 10
651819.300000012
 20
6858016
 10
651792.899999999
 20
6858050.7
 10
651743
 20
6858108.9
 10
651735
 20
6858118.70000001
 10
651730.700000003
 20
6858124.1
 10
651726.100000001
 20
6858133.2
 10
651693.300000012
 20
6858205.10000001
 10
651690.300000004
 20
6858211.4
 10
651673.100000016
 20
6858253.8
 10
651668.599999994
 20
6858270.4
 10
651651.300000012
 20
6858369.40000001
 10
651650.600000001
 20
6858390.40000001
 10
651650.500000015
 20
6858399.8
 10
651656.899999999
 20
6858486
 10
651662.400000013
 20
6858559.8
 10
651670.100000001
 20
6858660.9
 10
651670.700000018
 20
6858666
 10
651673
 20
6858690.10000001
 10
651662.800000012
 20
6858693.8
 10
651667.500000007
 20
6858826.4
 10
651665.600000016
 20
6858899
 10
651661.700000003
 20
6858949.8
 10
651654.400000006
 20
6858983.1
 10
651651
 20
6858999.70000001
 10
651648.200000003
 20
6859020.2
 10
651644.900000006
 20
6859088
 10
651643.599999994
 20
6859114.8
 10
651640.300000004
 20
6859189.6
 10
651642.400000006
 20
6859260.9
 10
651637.200000003
 20
6859282.50000001
 10
651633.699999996
 20
6859301.70000001
 10
651637.899999999
 20
6859379.8
 10
651640.899999999
 20
6859403.8
 10
651644.799999997
 20
6859428.10000001
 10
651670.100000001
 20
6859619.8
 10
651676.400000006
 20
6859678.3
 10
651676.899999999
 20
6859683.2
 10
651681.699999996
 20
6859731
 10
651691.199999996
 20
6859824.5
 10
651693.600000001
 20
6859847.7
 10
651695.700000018
 20
6859868.6
 10
651707.5
 20
6859985.4
 10
651710
 20
6860010.2
 10
651754.300000012
 20
6859996.5
 10
651765.5
 20
6859993
 10
651847.600000001
 20
6859967.2
 10
651886.199999996
 20
6859955.00000001
 10
651960.699999996
 20
6859930.60000001
 10
652022.20000001
 20
6859910.5
 10
652070.300000004
 20
6859894.2
 10
652078.799999997
 20
6859892.20000001
 10
652086.600000001
 20
6859890.7
 10
652205.800000004
 20
6859868.7
 10
652215.400000006
 20
6859866.9
 10
652225.600000001
 20
6859865.20000001
 10
652340.100000016
 20
6859844.8
 10
652350.300000004
 20
6859844.3
 10
652378.900000013
 20
6859840.40000001
 10
652395.600000016
 20
6859838.8
 10
652426.800000004
 20
6859834.4
 10
652486.300000012
 20
6859861.50000001
 10
652513.20000001
 20
6859874.2
 10
652614.100000001
 20
6859921.6
 10
652681.399999999
 20
6859953.20000001
 10
652727.800000004
 20
6859975
 10
652806.500000015
 20
6860012.9
 10
652864.5
 20
6860040.7
 10
652921.200000003
 20
6860067.8
 10
652964.20000001
 20
6860088.4
 10
653010.899999999
 20
6860110.7
 10
653159.899999999
 20
6860182
 10
653164.5
 20
6860190.10000001
 10
653183.899999999
 20
6860224.50000001
 10
653216.099999994
 20
6860287.90000001
 10
653224.300000004
 20
6860304.3
 10
653265.400000013
 20
6860386.3
 10
653292.199999996
 20
6860439.10000001
 10
653298.900000006
 20
6860452.3
 10
653317.300000012
 20
6860488.60000001
 10
653323.700000018
 20
6860502.7
 10
653347.100000016
 20
6860551.5
 10
653365
 20
6860590.9
 10
653391.500000015
 20
6860642.4
 10
653394.300000004
 20
6860647.8
 10
653394.800000004
 20
6860648.70000001
 10
653397.000000015
 20
6860653.3
 10
653400.100000001
 20
6860659.4
 10
653406
 20
6860671.3
 10
653406.600000001
 20
6860672.5
 10
653414.400000013
 20
6860679.1
 10
653419.600000016
 20
6860683.40000001
 10
653456.800000012
 20
6860714.9
 10
653477.600000001
 20
6860733.6
 10
653611.800000012
 20
6860578.8
 10
653693.200000003
 20
6860484.8
 10
653704.500000015
 20
6860471.8
 10
653888.600000001
 20
6860259.3
 10
653975
 20
6860156.2
 10
654020.299999997
 20
6860102.20000001
 10
654103.800000004
 20
6859977.1
 10
654104.5
 20
6859976.20000001
 10
654109.900000006
 20
6859967.9
 10
654110.399999999
 20
6859967.2
 10
654115.500000015
 20
6859959.7
 10
654115.700000003
 20
6859959.4
 10
654121.800000012
 20
6859950.3
 10
654127.800000012
 20
6859941.3
 10
654128.100000001
 20
6859940.9
 10
654148.800000012
 20
6859909.9
 10
654161.400000006
 20
6859893.4
 10
654369.399999999
 20
6859620.70000001
 10
654454.399999999
 20
6859515.60000001
 10
654561.399999999
 20
6859383.70000001
 10
654665.300000004
 20
6859258.10000001
 10
654779.5
 20
6859120.20000001
 10
654801.799999997
 20
6859093.3
 10
654987.799999997
 20
6858847.8
 10
654991.199999996
 20
6858843.4
 10
654991.399999999
 20
6858843.00000001
 10
654992.700000003
 20
6858841.20000001
 10
655000.100000001
 20
6858831.40000001
 10
655000.600000001
 20
6858830.8
 10
655008.599999994
 20
6858820.3
 10
655064.600000009
 20
6858748.9
 10
655107.600000001
 20
6858694.3
 10
655119.300000012
 20
6858682.2
 10
655119.5
 20
6858681.9
 10
655126.100000016
 20
6858675
 10
655133.400000006
 20
6858667.5
 10
655134.400000013
 20
6858666.5
 10
655134.699999996
 20
6858666.2
 10
655143.200000003
 20
6858657.3
 10
655149.299999997
 20
6858651
 10
655149.699999996
 20
6858650.6
 10
655221.200000018
 20
6858576.5
 97
0
 75
0
 76
1
 98
0
  0
HATCH
  5
2000F
  8
0
100
AcDbEntity
100
AcDbHatch
 10
0
 20
0
 30
0
210
0
220
0
230
1
  2
SOLID
 70
1
 71
0
 91
1
 92
2
 72
0
 73
1
 93
130
 10
653358.900000006
 20
6860870
 10
653477.600000001
 20
6860733.6
 10
653456.800000012
 20
6860714.9
 10
653419.600000016
 20
6860683.40000001
 10
653414.400000013
 20
6860679.1
 10
653406.600000001
 20
6860672.5
 10
653406
 20
6860671.3
 10
653400.100000001
 20
6860659.4
 10
653397.000000015
 20
6860653.3
 10
653394.800000004
 20
6860648.70000001
 10
653394.300000004
 20
6860647.8
 10
653391.500000015
 20
6860642.4
 10
653365
 20
6860590.9
 10
653347.100000016
 20
6860551.5
 10
653323.700000018
 20
6860502.7
 10
653317.300000012
 20
6860488.60000001
 10
653298.900000006
 20
6860452.3
 10
653292.199999996
 20
6860439.10000001
 10
653265.400000013
 20
6860386.3
 10
653224.300000004
 20
6860304.3
 10
653216.099999994
 20
6860287.90000001
 10
653183.899999999
 20
6860224.50000001
 10
653164.5
 20
6860190.10000001
 10
653159.899999999
 20
6860182
 10
653010.899999999
 20
6860110.7
 10
652964.20000001
 20
6860088.4
 10
652921.200000003
 20
6860067.8
 10
652864.5
 20
6860040.7
 10
652806.500000015
 20
6860012.9
 10
652727.800000004
 20
6859975
 10
652681.399999999
 20
6859953.20000001
 10
652614.100000001
 20
6859921.6
 10
652513.20000001
 20
6859874.2
 10
652486.300000012
 20
6859861.50000001
 10
652426.800000004
 20
6859834.4
 10
652395.600000016
 20
6859838.8
 10
652378.900000013
 20
6859840.40000001
 10
652350.300000004
 20
6859844.3
 10
652340.100000016
 20
6859844.8
 10
652225.600000001
 20
6859865.20000001
 10
652215.400000006
 20
6859866.9
 10
652205.800000004
 20
6859868.7
 10
652086.600000001
 20
6859890.7
 10
652078.799999997
 20
6859892.20000001
 10
652070.300000004
 20
6859894.2
 10
652022.20000001
 20
6859910.5
 10
651960.699999996
 20
6859930.60000001
 10
651886.199999996
 20
6859955.00000001
 10
651847.600000001
 20
6859967.2
 10
651765.5
 20
6859993
 10
651754.300000012
 20
6859996.5
 10
651710
 20
6860010.2
 10
651661.899999999
 20
6860026.8
 10
651592
 20
6860050.90000001
 10
651562.100000016
 20
6860061.1
 10
651535.200000018
 20
6860070.7
 10
651435.599999994
 20
6860111.3
 10
651425.100000001
 20
6860115.70000001
 10
651404.699999996
 20
6860124.2
 10
651378.300000019
 20
6860135.10000001
 10
651356.800000012
 20
6860144
 10
651334.400000006
 20
6860153.6
 10
651320.100000001
 20
6860159.50000001
 10
651314.600000001
 20
6860161.8
 10
651317.800000004
 20
6860210.8
 10
651320.199999996
 20
6860248.9
 10
651320.299999997
 20
6860250
 10
651322.199999996
 20
6860281.8
 10
651331.299999997
 20
6860281.70000001
 10
651337.800000012
 20
6860283.2
 10
651344.799999997
 20
6860285.8
 10
651350.200000003
 20
6860289.8
 10
651353.099999994
 20
6860292.5
 10
651364.800000012
 20
6860312.1
 10
651370.199999996
 20
6860325.2
 10
651374.399999999
 20
6860335.40000001
 10
651397.899999999
 20
6860392.60000001
 10
651428.700000003
 20
6860476.5
 10
651463.800000012
 20
6860571.7
 10
651487.5
 20
6860633.9
 10
651582.800000004
 20
6860896
 10
651599.100000001
 20
6860939.9
 10
651640.100000001
 20
6861043.7
 10
651642.600000016
 20
6861049.7
 10
651651
 20
6861069.3
 10
651661.5
 20
6861096.5
 10
651673.600000001
 20
6861127.9
 10
651686.700000003
 20
6861161.7
 10
651692.500000015
 20
6861176.60000001
 10
651696.900000013
 20
6861188
 10
651756.599999994
 20
6861342
 10
651759.100000016
 20
6861348.60000001
 10
651760.200000003
 20
6861351.1
 10
651771.000000015
 20
6861378.90000001
 10
651788.899999999
 20
6861425.10000001
 10
651792.800000012
 20
6861434.9
 10
651798.800000004
 20
6861450.7
 10
651803
 20
6861461.3
 10
651810.800000004
 20
6861486.3
 10
651818.399999999
 20
6861510.40000001
 10
651851.000000015
 20
6861614.5
 10
651874.200000003
 20
6861688.3
 10
651885.399999999
 20
6861723.9
 10
651890
 20
6861730.3
 10
651895.200000003
 20
6861737.6
 10
651911.600000001
 20
6861760.6
 10
651966.599999994
 20
6861729.1
 10
652025.899999999
 20
6861699.8
 10
652044.100000001
 20
6861690.9
 10
652060.600000001
 20
6861682.70000001
 10
652080.600000001
 20
6861670
 10
652103.699999996
 20
6861655.1
 10
652190.899999999
 20
6861594.70000001
 10
652232.099999994
 20
6861566.10000001
 10
652304.100000001
 20
6861530.9
 10
652394.5
 20
6861489.70000001
 10
652421.399999999
 20
6861481
 10
652544.500000007
 20
6861441.4
 10
652591.399999999
 20
6861428.9
 10
652639.800000004
 20
6861409.60000001
 10
652705.899999999
 20
6861376.4
 10
652901.600000016
 20
6861279.7
 10
652933.399999999
 20
6861263.90000001
 10
652984.100000016
 20
6861233.5
 10
653030.899999999
 20
6861198.2
 10
653036.300000004
 20
6861194
 10
653111.700000018
 20
6861135.5
 10
653199.300000019
 20
6861052.10000001
 10
653216.099999994
 20
6861033.10000001
 10
653358.900000006
 20
6860870
 97
0
 75
0
 76
1
 98
0
  0
HATCH
  5
20010
  8
0
100
AcDbEntity
100
AcDbHatch
 10
0
 20
0
 30
0
210
0
220
0
230
1
  2
SOLID
 70
1
 71
0
 91
1
 92
2
 72
0
 73
1
 93
139
 10
653663.100000001
 20
6861939.4
 10
653680.400000013
 20
6861827.1
 10
653692.600000009
 20
6861747.50000001
 10
653704.600000001
 20
6861664.6
 10
653705.199999996
 20
6861660.9
 10
653706.399999999
 20
6861652.4
 10
653707.700000018
 20
6861643.4
 10
653705
 20
6861635.10000001
 10
653701.5
 20
6861624.2
 10
653691.899999999
 20
6861594.1
 10
653688.800000004
 20
6861584.5
 10
653671.099999994
 20
6861529.60000001
 10
653670.299999997
 20
6861527.2
 10
653669.200000003
 20
6861523.6
 10
653667.800000004
 20
6861519.3
 10
653667.300000012
 20
6861517.7
 10
653667.099999994
 20
6861517
 10
653666.200000003
 20
6861514.20000001
 10
653664.600000001
 20
6861509.3
 10
653664.200000003
 20
6861508.3
 10
653620.799999997
 20
6861373.2
 10
653619.399999999
 20
6861368.7
 10
653568.200000018
 20
6861201.9
 10
653549.000000007
 20
6861139.5
 10
653543.20000001
 20
6861120.4
 10
653539.800000004
 20
6861109.1
 10
653530.700000003
 20
6861079.7
 10
653506.599999994
 20
6861001
 10
653505.800000004
 20
6860993.8
 10
653490.700000003
 20
6860981.20000001
 10
653490.200000003
 20
6860980.7
 10
653484.700000003
 20
6860976
 10
653476.899999999
 20
6860969.4
 10
653475.500000015
 20
6860968.3
 10
653458.000000015
 20
6860953.5
 10
653454.400000006
 20
6860950.40000001
 10
653453.800000004
 20
6860949.9
 10
653444.700000003
 20
6860942.3
 10
653444.100000001
 20
6860941.8
 10
653436.600000009
 20
6860935.5
 10
653436.300000019
 20
6860935.20000001
 10
653431.600000001
 20
6860931.2
 10
653428.300000012
 20
6860928.6
 10
653427.200000003
 20
6860927.6
 10
653421.300000004
 20
6860922.5
 10
653420.200000003
 20
6860921.6
 10
653358.900000006
 20
6860870
 10
653216.099999994
 20
6861033.10000001
 10
653199.300000019
 20
6861052.10000001
 10
653111.700000018
 20
6861135.5
 10
653036.300000004
 20
6861194
 10
653030.899999999
 20
6861198.2
 10
652984.100000016
 20
6861233.5
 10
652933.399999999
 20
6861263.90000001
 10
652901.600000016
 20
6861279.7
 10
652705.899999999
 20
6861376.4
 10
652639.800000004
 20
6861409.60000001
 10
652591.399999999
 20
6861428.9
 10
652544.500000007
 20
6861441.4
 10
652421.399999999
 20
6861481
 10
652394.5
 20
6861489.70000001
 10
652304.100000001
 20
6861530.9
 10
652232.099999994
 20
6861566.10000001
 10
652190.899999999
 20
6861594.70000001
 10
652103.699999996
 20
6861655.1
 10
652080.600000001
 20
6861670
 10
652060.600000001
 20
6861682.70000001
 10
652044.100000001
 20
6861690.9
 10
652025.899999999
 20
6861699.8
 10
651966.599999994
 20
6861729.1
 10
651911.600000001
 20
6861760.6
 10
651924.70000001
 20
6861778.9
 10
651925.700000003
 20
6861780.3
 10
651932.700000018
 20
6861790.2
 10
652002.100000001
 20
6861889.6
 10
652004.800000012
 20
6861894.8
 10
652011.300000004
 20
6861907.8
 10
652016.900000006
 20
6861920.6
 10
652048.700000003
 20
6861993.1
 10
652052.399999999
 20
6862002.10000001
 10
652052.70000001
 20
6862003
 10
652086.000000015
 20
6862084.6
 10
652088.000000015
 20
6862089.3
 10
652093.300000004
 20
6862102.5
 10
652096.5
 20
6862109.6
 10
652112.200000018
 20
6862102.8
 10
652126.100000016
 20
6862116.20000001
 10
652130.299999997
 20
6862122.4
 10
652146.099999994
 20
6862163.4
 10
652151.100000001
 20
6862176.8
 10
652163
 20
6862208.4
 10
652175.5
 20
6862241.6
 10
652179
 20
6862250.8
 10
652181.100000009
 20
6862256.6
 10
652188
 20
6862274.8
 10
652204.100000009
 20
6862317.5
 10
652206
 20
6862322.70000001
 10
652211
 20
6862335.90000001
 10
652218.999999993
 20
6862357.40000001
 10
652221.300000004
 20
6862363.3
 10
652244
 20
6862423.6
 10
652263.899999999
 20
6862477.5
 10
652264.5
 20
6862479.20000001
 10
652264.700000003
 20
6862479.7
 10
652266.300000004
 20
6862483.60000001
 10
652293.600000001
 20
6862554.6
 10
652324.400000006
 20
6862634.7
 10
652377.300000012
 20
6862616.1
 10
652433.400000006
 20
6862596.3
 10
652440
 20
6862594.00000001
 10
652463.300000012
 20
6862585.6
 10
652500.600000016
 20
6862572.1
 10
652557.800000004
 20
6862551.3
 10
652568.599999994
 20
6862547.4
 10
652688.899999999
 20
6862486.3
 10
652773.899999999
 20
6862443.00000001
 10
652805.5
 20
6862426.9
 10
652814.400000013
 20
6862419.8
 10
652825.500000015
 20
6862411
 10
652845.199999996
 20
6862389
 10
652901.5
 20
6862322.8
 10
652917.200000003
 20
6862304.4
 10
652953.100000009
 20
6862262.2
 10
652961.800000004
 20
6862254.4
 10
652996.399999999
 20
6862223
 10
653090.800000004
 20
6862155.4
 10
653098.799999997
 20
6862149.7
 10
653171.600000001
 20
6862101.10000001
 10
653251.500000007
 20
6862062.3
 10
653357.700000003
 20
6862012.2
 10
653366.200000003
 20
6862008.9
 10
653386.5
 20
6862001.50000001
 10
653403.599999994
 20
6861995
 10
653463.899999999
 20
6861981.10000001
 10
653525.5
 20
6861966.9
 10
653544.699999996
 20
6861962.6
 10
653579.5
 20
6861954.5
 10
653648.5
 20
6861938.60000001
 10
653663.100000001
 20
6861939.4
 97
0
 75
0
 76
1
 98
0
  0
HATCH
  5
20011
  8
0
100
AcDbEntity
100
AcDbHatch
 10
0
 20
0
 30
0
210
0
220
0
230
1
  2
SOLID
 70
1
 71
0
 91
1
 92
2
 72
0
 73
1
 93
268
 10
653409.900000006
 20
6865115.5
 10
653452.699999996
 20
6865110.60000001
 10
653455.400000006
 20
6865110.3
 10
653530.799999997
 20
6865103
 10
653568.099999994
 20
6865098.90000001
 10
653579.600000001
 20
6865097.60000001
 10
653614.100000001
 20
6865093.8
 10
653633.800000004
 20
6865091.8
 10
653644.300000012
 20
6865090.7
 10
653651.200000003
 20
6865089.90000001
 10
653657.199999996
 20
6865089
 10
653660.900000013
 20
6865088.6
 10
653669.5
 20
6865087
 10
653673
 20
6865086
 10
653676.800000012
 20
6865084.8
 10
653680.000000015
 20
6865083.6
 10
653683.500000015
 20
6865082
 10
653686.300000012
 20
6865080.7
 10
653689.299999997
 20
6865079.5
 10
653691.800000004
 20
6865078.00000001
 10
653694.700000003
 20
6865076.00000001
 10
653697.5
 20
6865073.7
 10
653702.100000009
 20
6865069.5
 10
653702.799999997
 20
6865068.8
 10
653705.700000018
 20
6865065.9
 10
653713.299999997
 20
6865057.9
 10
653720.100000001
 20
6865045
 10
653727.100000016
 20
6865031.8
 10
653736.20000001
 20
6865014.3
 10
653740.5
 20
6865005.8
 10
653743.700000003
 20
6865000.7
 10
653747.5
 20
6864995.4
 10
653754.900000013
 20
6864987
 10
653758.699999996
 20
6864983.2
 10
653759.800000004
 20
6864982.3
 10
653766.100000001
 20
6864976.4
 10
653774.300000012
 20
6864968.6
 10
653776.5
 20
6864966.2
 10
653778.600000009
 20
6864964.1
 10
653783.299999997
 20
6864959.50000001
 10
653785.899999999
 20
6864957
 10
653788.100000009
 20
6864954.8
 10
653792.700000003
 20
6864949.90000001
 10
653796.900000013
 20
6864945.4
 10
653800.100000001
 20
6864941.4
 10
653802.899999999
 20
6864937
 10
653803.800000004
 20
6864935.6
 10
653805.600000016
 20
6864932.6
 10
653808.5
 20
6864926.7
 10
653809.399999999
 20
6864924.9
 10
653810.300000012
 20
6864920.9
 10
653811.500000015
 20
6864916.6
 10
653812.199999996
 20
6864912.9
 10
653812.900000006
 20
6864908.40000001
 10
653813.799999997
 20
6864902.5
 10
653814
 20
6864897.10000001
 10
653814
 20
6864895.7
 10
653814.100000001
 20
6864890.3
 10
653814.199999996
 20
6864882.6
 10
653814.599999994
 20
6864844.7
 10
653815.100000016
 20
6864792.5
 10
653815.200000003
 20
6864785.70000001
 10
653815.399999999
 20
6864769
 10
653814.599999994
 20
6864681.3
 10
653814.700000018
 20
6864648.9
 10
653815.200000003
 20
6864569.1
 10
653815.500000015
 20
6864469.6
 10
653815.500000015
 20
6864462
 10
653815.399999999
 20
6864443.70000001
 10
653815.300000004
 20
6864403
 10
653829.199999996
 20
6864383.7
 10
653842.5
 20
6864365.3
 10
653963.199999996
 20
6864198.2
 10
653999.599999994
 20
6864147.70000001
 10
654050.700000003
 20
6864076.90000001
 10
654104.699999996
 20
6864002.20000001
 10
654160
 20
6863925.70000001
 10
654184.000000007
 20
6863892.5
 10
654295.200000003
 20
6863738.40000001
 10
654288.099999994
 20
6863734.1
 10
654245.500000015
 20
6863709.90000001
 10
654233.200000018
 20
6863703.3
 10
654220.200000003
 20
6863697.5
 10
654208.5
 20
6863691.6
 10
654205.299999997
 20
6863690
 10
654160.600000001
 20
6863666.7
 10
654154.199999996
 20
6863662.40000001
 10
654130.300000004
 20
6863650.5
 10
654109.600000016
 20
6863640
 10
654101.400000006
 20
6863635.40000001
 10
654091
 20
6863628.3
 10
654090.200000003
 20
6863627.8
 10
654058.899999999
 20
6863607.5
 10
654045.799999997
 20
6863600.5
 10
654042.5
 20
6863598.5
 10
654042.000000007
 20
6863598.2
 10
654033.299999997
 20
6863593.1
 10
653999.899999999
 20
6863576.40000001
 10
653900.300000012
 20
6863531.9
 10
653881.500000007
 20
6863523.3
 10
653863.600000001
 20
6863514.3
 10
653792.300000004
 20
6863482.70000001
 10
653739.400000013
 20
6863457.8
 10
653652.899999999
 20
6863408.7
 10
653629.300000019
 20
6863394.2
 10
653628.699999996
 20
6863393.7
 10
653625.300000012
 20
6863391.5
 10
653610.600000016
 20
6863384.8
 10
653594.900000006
 20
6863378.2
 10
653586.299999997
 20
6863374.5
 10
653582
 20
6863372.7
 10
653570.400000006
 20
6863368
 10
653528.799999997
 20
6863351.9
 10
653500.800000012
 20
6863339.20000001
 10
653463.899999999
 20
6863321.2
 10
653449.300000012
 20
6863312
 10
653429.200000003
 20
6863299.10000001
 10
653395.200000003
 20
6863278.7
 10
653384.5
 20
6863271.3
 10
653370.800000012
 20
6863263.10000001
 10
653352.899999999
 20
6863252.5
 10
653339.600000001
 20
6863244.6
 10
653337.700000003
 20
6863243.50000001
 10
653335.200000018
 20
6863242.10000001
 10
653329
 20
6863247.1
 10
653328.000000007
 20
6863247.8
 10
653322.700000003
 20
6863252.1
 10
653315.700000003
 20
6863257.7
 10
653311.5
 20
6863260.90000001
 10
653302.600000001
 20
6863268.1
 10
653292.800000012
 20
6863275.8
 10
653260.399999999
 20
6863283.70000001
 10
653243.899999999
 20
6863287.70000001
 10
653214
 20
6863295
 10
653118.100000001
 20
6863317.6
 10
653017.300000012
 20
6863341.40000001
 10
652996
 20
6863346.1
 10
652916.499999993
 20
6863363.4
 10
652795.200000003
 20
6863393.6
 10
652770.600000001
 20
6863400.60000001
 10
652758.500000007
 20
6863404.7
 10
652742
 20
6863410.3
 10
652730.000000015
 20
6863414.6
 10
652716.900000006
 20
6863421.3
 10
652699.100000016
 20
6863427.5
 10
652683.400000006
 20
6863432.4
 10
652644.400000013
 20
6863445.5
 10
652630.500000007
 20
6863449.4
 10
652597.099999994
 20
6863460.3
 10
652579.5
 20
6863467
 10
652555.099999994
 20
6863476
 10
652514.800000012
 20
6863489.9
 10
652469.899999999
 20
6863505.5
 10
652390.200000003
 20
6863532.20000001
 10
652378.600000001
 20
6863535.90000001
 10
652355.100000016
 20
6863543.3
 10
652327.000000015
 20
6863553.60000001
 10
652300.800000012
 20
6863562.1
 10
652288.200000018
 20
6863566.1
 10
652254.200000003
 20
6863576.9
 10
652224.5
 20
6863586.3
 10
652193.800000012
 20
6863596
 10
652167.800000004
 20
6863604.3
 10
652166.799999997
 20
6863674.8
 10
652167
 20
6863751.4
 10
652166.900000013
 20
6863756.8
 10
652166.900000013
 20
6863802.9
 10
652167.800000004
 20
6863868.8
 10
652168.500000015
 20
6863909
 10
652169.600000009
 20
6863974.7
 10
652172.5
 20
6864002.60000001
 10
652181.600000001
 20
6864068.90000001
 10
652189.900000013
 20
6864137.4
 10
652195.100000001
 20
6864170.9
 10
652198.5
 20
6864187.3
 10
652200.200000018
 20
6864194.7
 10
652202.799999997
 20
6864203.8
 10
652204.799999997
 20
6864208.90000001
 10
652222.799999997
 20
6864254
 10
652226.599999994
 20
6864263.8
 10
652239.899999999
 20
6864298.5
 10
652248.799999997
 20
6864326.6
 10
652253.099999994
 20
6864336.4
 10
652258.200000003
 20
6864351.4
 10
652262.400000013
 20
6864364.9
 10
652264.400000013
 20
6864403.90000001
 10
652266.399999999
 20
6864442.10000001
 10
652267.799999997
 20
6864465.7
 10
652269.100000016
 20
6864482.10000001
 10
652273.200000003
 20
6864513
 10
652276.899999999
 20
6864539.20000001
 10
652280
 20
6864550.8
 10
652293.900000006
 20
6864602.8
 10
652294.300000004
 20
6864604.3
 10
652317.399999999
 20
6864690.7
 10
652320.400000006
 20
6864718.90000001
 10
652318
 20
6864760.6
 10
652308.199999996
 20
6864906.40000001
 10
652308.000000015
 20
6864908.00000001
 10
652305.400000006
 20
6864968.2
 10
652302.899999999
 20
6865025.7
 10
652294.100000016
 20
6865040.5
 10
652293.900000006
 20
6865040.8
 10
652293.199999996
 20
6865053
 10
652297
 20
6865053.60000001
 10
652313.500000015
 20
6865055.9
 10
652317.600000001
 20
6865056.5
 10
652338.299999997
 20
6865058.4
 10
652413.299999997
 20
6865065.7
 10
652423.700000018
 20
6865066.8
 10
652580.700000003
 20
6865082.7
 10
652728.600000001
 20
6865097.1
 10
652760.399999999
 20
6865100.2
 10
652791.600000001
 20
6865103.2
 10
652808.900000013
 20
6865105
 10
652818.000000015
 20
6865105.9
 10
652827.799999997
 20
6865106.90000001
 10
652832.200000003
 20
6865107.4
 10
652834
 20
6865107.6
 10
652845.000000015
 20
6865108.8
 10
652846.700000003
 20
6865108.8
 10
652853.099999994
 20
6865109.5
 10
652855.200000003
 20
6865109.8
 10
652857.5
 20
6865110
 10
652858.400000013
 20
6865110
 10
652861.899999999
 20
6865110.40000001
 10
652862.5
 20
6865110.50000001
 10
652878.700000003
 20
6865112.2
 10
652881.299999997
 20
6865112.50000001
 10
652889.800000019
 20
6865113.3
 10
652891.5
 20
6865113.5
 10
652902.899999999
 20
6865114.7
 10
652906.5
 20
6865115
 10
652912.399999999
 20
6865115.6
 10
652914.300000012
 20
6865115.9
 10
652917.900000013
 20
6865116.20000001
 10
652919.100000016
 20
6865116.3
 10
652924.099999994
 20
6865116.9
 10
652927.200000003
 20
6865117.2
 10
652933.70000001
 20
6865117.8
 10
652938.399999999
 20
6865118.3
 10
652941.700000018
 20
6865118.60000001
 10
652945.700000003
 20
6865119.1
 10
652984.299999997
 20
6865122.8
 10
652988.899999999
 20
6865123.1
 10
652994.000000015
 20
6865123.2
 10
653018
 20
6865123.2
 10
653037.500000007
 20
6865123.2
 10
653055.5
 20
6865123.1
 10
653059.300000004
 20
6865123
 10
653134.299999997
 20
6865121.8
 10
653176.400000006
 20
6865121.4
 10
653219.400000006
 20
6865121
 10
653249.300000004
 20
6865120.7
 10
653254.399999999
 20
6865120.60000001
 10
653262.400000006
 20
6865120.40000001
 10
653274.700000003
 20
6865120.10000001
 10
653276
 20
6865120.10000001
 10
653288.400000013
 20
6865119.8
 10
653296.900000006
 20
6865119.7
 10
653307.100000001
 20
6865119.5
 10
653309.899999999
 20
6865119.4
 10
653317.5
 20
6865119.3
 10
653344
 20
6865119.1
 10
653360.700000003
 20
6865118.7
 10
653380.100000001
 20
6865118.1
 10
653392.600000009
 20
6865117.3
 10
653409.900000006
 20
6865115.5
 97
0
 75
0
 76
1
 98
0
  0
HATCH
  5
20012
  8
0
100
AcDbEntity
100
AcDbHatch
 10
0
 20
0
 30
0
210
0
220
0
230
1
  2
SOLID
 70
1
 71
0
 91
1
 92
2
 72
0
 73
1
 93
107
 10
653335.200000018
 20
6863242.10000001
 10
653338.599999994
 20
6863239.6
 10
653338.900000006
 20
6863239.4
 10
653344.600000001
 20
6863235.2
 10
653348
 20
6863232.60000001
 10
653352.200000018
 20
6863229.6
 10
653355.899999999
 20
6863226.9
 10
653364.900000013
 20
6863220.2
 10
653366.900000013
 20
6863218.8
 10
653382.70000001
 20
6863172.90000001
 10
653390.200000003
 20
6863152.7
 10
653401.5
 20
6863118.5
 10
653450
 20
6862996.7
 10
653477.100000016
 20
6862924.50000001
 10
653480.300000004
 20
6862916.4
 10
653518.300000012
 20
6862821.1
 10
653519.000000007
 20
6862819.2
 10
653541.200000003
 20
6862762.9
 10
653541.299999997
 20
6862746.2
 10
653545.800000004
 20
6862726.6
 10
653552.000000015
 20
6862679.6
 10
653566.600000016
 20
6862585
 10
653570.700000003
 20
6862557.60000001
 10
653577.300000012
 20
6862514.5
 10
653582.600000001
 20
6862479
 10
653592.100000001
 20
6862415.8
 10
653602.399999999
 20
6862346.2
 10
653606.099999994
 20
6862321.6
 10
653617.900000006
 20
6862244.8
 10
653633.700000003
 20
6862137.3
 10
653645.399999999
 20
6862063.9
 10
653663.100000001
 20
6861939.4
 10
653648.5
 20
6861938.60000001
 10
653579.5
 20
6861954.5
 10
653544.699999996
 20
6861962.6
 10
653525.5
 20
6861966.9
 10
653463.899999999
 20
6861981.10000001
 10
653403.599999994
 20
6861995
 10
653386.5
 20
6862001.50000001
 10
653366.200000003
 20
6862008.9
 10
653357.700000003
 20
6862012.2
 10
653251.500000007
 20
6862062.3
 10
653171.600000001
 20
6862101.10000001
 10
653098.799999997
 20
6862149.7
 10
653090.800000004
 20
6862155.4
 10
652996.399999999
 20
6862223
 10
652961.800000004
 20
6862254.4
 10
652953.100000009
 20
6862262.2
 10
652917.200000003
 20
6862304.4
 10
652901.5
 20
6862322.8
 10
652845.199999996
 20
6862389
 10
652825.500000015
 20
6862411
 10
652814.400000013
 20
6862419.8
 10
652805.5
 20
6862426.9
 10
652773.899999999
 20
6862443.00000001
 10
652688.899999999
 20
6862486.3
 10
652568.599999994
 20
6862547.4
 10
652557.800000004
 20
6862551.3
 10
652500.600000016
 20
6862572.1
 10
652463.300000012
 20
6862585.6
 10
652440
 20
6862594.00000001
 10
652433.400000006
 20
6862596.3
 10
652377.300000012
 20
6862616.1
 10
652324.400000006
 20
6862634.7
 10
652326.400000006
 20
6862639.90000001
 10
652345.400000006
 20
6862689.3
 10
652364.5
 20
6862739.40000001
 10
652383.299999997
 20
6862792.6
 10
652413.899999999
 20
6862874.4
 10
652425.600000001
 20
6862906
 10
652459.70000001
 20
6862996.8
 10
652502.300000004
 20
6863106.40000001
 10
652535.100000001
 20
6863194.7
 10
652542.000000007
 20
6863212.7
 10
652550
 20
6863233.1
 10
652560.800000012
 20
6863261
 10
652571.600000001
 20
6863290.6
 10
652583.599999994
 20
6863323.7
 10
652591.5
 20
6863344.2
 10
652604.299999997
 20
6863377.5
 10
652615.100000016
 20
6863404.7
 10
652615.799999997
 20
6863406.7
 10
652630.500000007
 20
6863449.4
 10
652644.400000013
 20
6863445.5
 10
652683.400000006
 20
6863432.4
 10
652699.100000016
 20
6863427.5
 10
652716.900000006
 20
6863421.3
 10
652730.000000015
 20
6863414.6
 10
652742
 20
6863410.3
 10
652758.500000007
 20
6863404.7
 10
652770.600000001
 20
6863400.60000001
 10
652795.200000003
 20
6863393.6
 10
652916.499999993
 20
6863363.4
 10
652996
 20
6863346.1
 10
653017.300000012
 20
6863341.40000001
 10
653118.100000001
 20
6863317.6
 10
653214
 20
6863295
 10
653243.899999999
 20
6863287.70000001
 10
653260.399999999
 20
6863283.70000001
 10
653292.800000012
 20
6863275.8
 10
653302.600000001
 20
6863268.1
 10
653311.5
 20
6863260.90000001
 10
653315.700000003
 20
6863257.7
 10
653322.700000003
 20
6863252.1
 10
653328.000000007
 20
6863247.8
 10
653329
 20
6863247.1
 10
653335.200000018
 20
6863242.10000001
 97
0
 75
0
 76
1
 98
0
  0
HATCH
  5
20013
  8
0
100
AcDbEntity
100
AcDbHatch
 10
0
 20
0
 30
0
210
0
220
0
230
1
  2
SOLID
 70
1
 71
0
 91
1
 92
2
 72
0
 73
1
 93
219
 10
651314.600000001
 20
6860161.8
 10
651320.100000001
 20
6860159.50000001
 10
651334.400000006
 20
6860153.6
 10
651356.800000012
 20
6860144
 10
651378.300000019
 20
6860135.10000001
 10
651404.699999996
 20
6860124.2
 10
651425.100000001
 20
6860115.70000001
 10
651435.599999994
 20
6860111.3
 10
651535.200000018
 20
6860070.7
 10
651562.100000016
 20
6860061.1
 10
651592
 20
6860050.90000001
 10
651661.899999999
 20
6860026.8
 10
651710
 20
6860010.2
 10
651707.5
 20
6859985.4
 10
651695.700000018
 20
6859868.6
 10
651693.600000001
 20
6859847.7
 10
651691.199999996
 20
6859824.5
 10
651681.699999996
 20
6859731
 10
651676.899999999
 20
6859683.2
 10
651676.400000006
 20
6859678.3
 10
651670.100000001
 20
6859619.8
 10
651644.799999997
 20
6859428.10000001
 10
651640.899999999
 20
6859403.8
 10
651637.899999999
 20
6859379.8
 10
651633.699999996
 20
6859301.70000001
 10
651637.200000003
 20
6859282.50000001
 10
651642.400000006
 20
6859260.9
 10
651640.300000004
 20
6859189.6
 10
651643.599999994
 20
6859114.8
 10
651644.900000006
 20
6859088
 10
651648.200000003
 20
6859020.2
 10
651651
 20
6858999.70000001
 10
651654.400000006
 20
6858983.1
 10
651661.700000003
 20
6858949.8
 10
651665.600000016
 20
6858899
 10
651667.500000007
 20
6858826.4
 10
651662.800000012
 20
6858693.8
 10
651673
 20
6858690.10000001
 10
651670.700000018
 20
6858666
 10
651670.100000001
 20
6858660.9
 10
651662.400000013
 20
6858559.8
 10
651656.899999999
 20
6858486
 10
651650.500000015
 20
6858399.8
 10
651650.600000001
 20
6858390.40000001
 10
651651.300000012
 20
6858369.40000001
 10
651668.599999994
 20
6858270.4
 10
651673.100000016
 20
6858253.8
 10
651690.300000004
 20
6858211.4
 10
651693.300000012
 20
6858205.10000001
 10
651726.100000001
 20
6858133.2
 10
651730.700000003
 20
6858124.1
 10
651735
 20
6858118.70000001
 10
651743
 20
6858108.9
 10
651792.899999999
 20
6858050.7
 10
651819.300000012
 20
6858016
 10
651844.600000001
 20
6857973.3
 10
651859.599999994
 20
6857948.4
 10
651863.300000012
 20
6857941.8
 10
651875.100000001
 20
6857920.8
 10
651875.700000003
 20
6857916.1
 10
651874.600000001
 20
6857903.6
 10
651869.600000009
 20
6857871.9
 10
651862.500000015
 20
6857840.9
 10
651854.300000004
 20
6857799.8
 10
651848
 20
6857768.5
 10
651842.5
 20
6857731.9
 10
651838.300000012
 20
6857697.9
 10
651838
 20
6857693
 10
651836.199999996
 20
6857670.3
 10
651833.700000003
 20
6857637.8
 10
651831.899999999
 20
6857606.4
 10
651831.200000018
 20
6857593.3
 10
651830.899999999
 20
6857589.3
 10
651829.800000004
 20
6857575.4
 10
651828.800000012
 20
6857562.8
 10
651827.5
 20
6857546.8
 10
651827.099999994
 20
6857542.5
 10
651825.399999999
 20
6857527.3
 10
651822.500000015
 20
6857500.10000001
 10
651812.5
 20
6857505.60000001
 10
651799.300000004
 20
6857514.4
 10
651787.600000016
 20
6857520.4
 10
651778.300000004
 20
6857526
 10
651768
 20
6857531.5
 10
651757.500000015
 20
6857536
 10
651747.5
 20
6857539.5
 10
651696.900000013
 20
6857554.8
 10
651668.5
 20
6857562.5
 10
651660.100000001
 20
6857564.1
 10
651612.100000016
 20
6857567.8
 10
651574.100000001
 20
6857569.4
 10
651560
 20
6857571.1
 10
651503
 20
6857577.1
 10
651437.099999994
 20
6857583.1
 10
651390.300000004
 20
6857586.9
 10
651356.800000012
 20
6857590.3
 10
651336.600000016
 20
6857592.1
 10
651298.200000018
 20
6857595.5
 10
651283.799999997
 20
6857596.7
 10
651267.399999999
 20
6857598.1
 10
651250.600000009
 20
6857600.2
 10
651212.300000004
 20
6857603.9
 10
651180.399999999
 20
6857607.2
 10
651164.899999999
 20
6857608.70000001
 10
651075.100000016
 20
6857618.00000001
 10
650960.300000004
 20
6857642.4
 10
650949.400000013
 20
6857644.6
 10
650942.199999996
 20
6857645.8
 10
650984.700000018
 20
6857782.9
 10
650834.799999997
 20
6857835
 10
650479.600000001
 20
6857957
 10
650194
 20
6858054.5
 10
650116.100000001
 20
6858081.6
 10
649643.800000004
 20
6858244
 10
649497.5
 20
6858294
 10
649458.500000007
 20
6858307.4
 10
649273.100000016
 20
6858370.90000001
 10
649217
 20
6858390.00000001
 10
649117.70000001
 20
6858424
 10
649110.700000003
 20
6858426.5
 10
649048.700000003
 20
6858448.5
 10
648970.5
 20
6858476.20000001
 10
648906
 20
6858499.10000001
 10
648901.300000004
 20
6858500.7
 10
648892.800000004
 20
6858503.8
 10
648841.500000015
 20
6858522
 10
648795.100000009
 20
6858537.1
 10
648778.900000013
 20
6858542.3
 10
648763.5
 20
6858547.3
 10
648744.899999999
 20
6858553.4
 10
648704.599999994
 20
6858567.5
 10
648902.600000001
 20
6858814.40000001
 10
648948.500000015
 20
6858870.5
 10
648985.199999996
 20
6858915.40000001
 10
649039.600000001
 20
6858985.6
 10
649046.299999997
 20
6858994.3
 10
649052.100000001
 20
6859001.90000001
 10
649067.699999996
 20
6859020.8
 10
649073.300000012
 20
6859027.5
 10
649121.5
 20
6859086.10000001
 10
649124.500000015
 20
6859093.60000001
 10
649132.299999997
 20
6859113.7
 10
649136.799999997
 20
6859125.5
 10
649318.600000009
 20
6859347.1
 10
649391.600000016
 20
6859434.5
 10
649398.900000006
 20
6859443.3
 10
649406.899999999
 20
6859453.10000001
 10
649487
 20
6859550.10000001
 10
649499.700000003
 20
6859565.1
 10
649554.100000016
 20
6859629.4
 10
649558.5
 20
6859634.60000001
 10
649559.700000003
 20
6859636.00000001
 10
649563.600000016
 20
6859640.7
 10
649573.600000001
 20
6859652.5
 10
649707.600000001
 20
6859801.6
 10
649772.800000012
 20
6859883.5
 10
649791.100000016
 20
6859906.4
 10
649845.900000006
 20
6859975.1
 10
649854.000000007
 20
6859984.9
 10
649860.299999997
 20
6859992.4
 10
649871.300000004
 20
6860005.6
 10
649871.500000015
 20
6860005.9
 10
649888.200000018
 20
6860026
 10
649911.700000003
 20
6860054.3
 10
649915.600000001
 20
6860059.1
 10
649924.5
 20
6860069.90000001
 10
649927.599999994
 20
6860073.60000001
 10
649942.600000001
 20
6860092.1
 10
649942.899999999
 20
6860092.5
 10
649955.200000003
 20
6860108
 10
649955.799999997
 20
6860108.8
 10
649977.599999994
 20
6860136.2
 10
649991.100000001
 20
6860153.3
 10
650044.600000001
 20
6860221.9
 10
650076.400000013
 20
6860262.6
 10
650076.899999999
 20
6860263.2
 10
650086.399999999
 20
6860275.3
 10
650132.600000001
 20
6860232.8
 10
650145.100000001
 20
6860220.8
 10
650161.100000001
 20
6860208.6
 10
650174.200000003
 20
6860198.4
 10
650192.700000003
 20
6860183.7
 10
650225.200000003
 20
6860220.4
 10
650220.400000006
 20
6860238.10000001
 10
650211.399999999
 20
6860271.7
 10
650199.5
 20
6860315.7
 10
650200.200000003
 20
6860319.8
 10
650201.800000004
 20
6860323.90000001
 10
650204.000000015
 20
6860328.9
 10
650210.800000004
 20
6860337.40000001
 10
650229.199999996
 20
6860359.9
 10
650276.500000015
 20
6860414.2
 10
650280.100000016
 20
6860419.3
 10
650286.899999999
 20
6860428
 10
650294.100000001
 20
6860437.2
 10
650323.300000012
 20
6860472.4
 10
650394.5
 20
6860557.8
 10
650405.199999996
 20
6860569.4
 10
650434.700000018
 20
6860609.10000001
 10
650465.300000004
 20
6860594.2
 10
650479.400000013
 20
6860587.3
 10
650497
 20
6860578.40000001
 10
650561.699999996
 20
6860545.60000001
 10
650616.399999999
 20
6860518.3
 10
650656.700000003
 20
6860497.8
 10
650707.399999999
 20
6860471.5
 10
650794.900000013
 20
6860425.5
 10
650814
 20
6860414.9
 10
650905.000000007
 20
6860368.7
 10
650923.199999996
 20
6860359.5
 10
650956.5
 20
6860342.6
 10
651098.400000006
 20
6860270
 10
651181.399999999
 20
6860227.4
 10
651232.100000001
 20
6860203.2
 10
651283.300000004
 20
6860174.8
 10
651289.200000003
 20
6860172.3
 10
651293.100000001
 20
6860170.7
 10
651305.800000004
 20
6860165.5
 10
651314.600000001
 20
6860161.8
 97
0
 75
0
 76
1
 98
0
  0
ENDSEC
  0
SECTION
  2
OBJECTS
  0
DICTIONARY
  5
C
330
0
100
AcDbDictionary
281
     1
  3
ACAD_GROUP
350
D
  3
ACAD_LAYOUT
350
1A
  3
ACAD_MLEADERSTYLE
350
43
  3
ACAD_MLINESTYLE
350
17
  3
ACAD_PLOTSETTINGS
350
19
  3
ACAD_PLOTSTYLENAME
350
E
  3
ACAD_TABLESTYLE
350
42
  3
ACAD_VISUALSTYLE
350
2A
  0
DICTIONARY
  5
D
102
{ACAD_REACTORS
330
C
102
}
330
C
100
AcDbDictionary
281
     1
  0
DICTIONARY
  5
1A
102
{ACAD_REACTORS
330
C
102
}
330
C
100
AcDbDictionary
281
     1
  3
Layout1
350
1E
  3
Layout2
350
26
  3
Model
350
22
  0
DICTIONARY
  5
43
102
{ACAD_REACTORS
330
C
102
}
330
C
100
AcDbDictionary
281
     1
  0
DICTIONARY
  5
17
102
{ACAD_REACTORS
330
C
102
}
330
C
100
AcDbDictionary
281
     1
  3
Standard
350
18
  0
DICTIONARY
  5
19
102
{ACAD_REACTORS
330
C
102
}
330
C
100
AcDbDictionary
281
     1
  0
ACDBDICTIONARYWDFLT
  5
E
102
{ACAD_REACTORS
330
C
102
}
330
C
100
AcDbDictionary
281
     1
  3
Normal
350
F
100
AcDbDictionaryWithDefault
340
F
  0
DICTIONARY
  5
42
102
{ACAD_REACTORS
330
C
102
}
330
C
100
AcDbDictionary
281
     1
  0
DICTIONARY
  5
2A
102
{ACAD_REACTORS
330
C
102
}
330
C
100
AcDbDictionary
281
     1
  3
2dWireframe
350
2F
  3
3D Hidden
350
31
  3
3dWireframe
350
30
  3
Basic
350
32
  3
Brighten
350
36
  3
ColorChange
350
3A
  3
Conceptual
350
34
  3
Dim
350
35
  3
Facepattern
350
39
  3
Flat
350
2B
  3
FlatWithEdges
350
2C
  3
Gouraud
350
2D
  3
GouraudWithEdges
350
2E
  3
Linepattern
350
38
  3
Realistic
350
33
  3
Thicken
350
37
  0
LAYOUT
  5
1E
102
{ACAD_REACTORS
330
1A
102
}
330
1A
100
AcDbPlotSettings
  1

  2
none_device
  4

  6

 40
0.0
 41
0.0
 42
0.0
 43
0.0
 44
0.0
 45
0.0
 46
0.0
 47
0.0
 48
0.0
 49
0.0
140
0.0
141
0.0
142
1.0
143
1.0
 70
   688
 72
     0
 73
     0
 74
     5
  7

 75
    16
 76
     0
 77
     2
 78
   300
147
1.0
148
0.0
149
0.0
100
AcDbLayout
  1
Layout1
 70
     1
 71
     1
 10
0.0
 20
0.0
 11
12.0
 21
9.0
 12
0.0
 22
0.0
 32
0.0
 14
1.000000000000000E+20
 24
1.000000000000000E+20
 34
1.000000000000000E+20
 15
-1.000000000000000E+20
 25
-1.000000000000000E+20
 35
-1.000000000000000E+20
146
0.0
 13
0.0
 23
0.0
 33
0.0
 16
1.0
 26
0.0
 36
0.0
 17
0.0
 27
1.0
 37
0.0
 76
     0
330
1B
  0
LAYOUT
  5
26
102
{ACAD_REACTORS
330
1A
102
}
330
1A
100
AcDbPlotSettings
  1

  2
none_device
  4

  6

 40
0.0
 41
0.0
 42
0.0
 43
0.0
 44
0.0
 45
0.0
 46
0.0
 47
0.0
 48
0.0
 49
0.0
140
0.0
141
0.0
142
1.0
143
1.0
 70
   688
 72
     0
 73
     0
 74
     5
  7

 75
    16
 76
     0
 77
     2
 78
   300
147
1.0
148
0.0
149
0.0
100
AcDbLayout
  1
Layout2
 70
     1
 71
     2
 10
0.0
 20
0.0
 11
0.0
 21
0.0
 12
0.0
 22
0.0
 32
0.0
 14
0.0
 24
0.0
 34
0.0
 15
0.0
 25
0.0
 35
0.0
146
0.0
 13
0.0
 23
0.0
 33
0.0
 16
1.0
 26
0.0
 36
0.0
 17
0.0
 27
1.0
 37
0.0
 76
     0
330
23
  0
LAYOUT
  5
22
102
{ACAD_REACTORS
330
1A
102
}
330
1A
100
AcDbPlotSettings
  1

  2
none_device
  4

  6

 40
0.0
 41
0.0
 42
0.0
 43
0.0
 44
0.0
 45
0.0
 46
0.0
 47
0.0
 48
0.0
 49
0.0
140
0.0
141
0.0
142
1.0
143
1.0
 70
  1712
 72
     0
 73
     0
 74
     0
  7

 75
     0
 76
     0
 77
     2
 78
   300
147
1.0
148
0.0
149
0.0
100
AcDbLayout
  1
Model
 70
     1
 71
     0
 10
0.0
 20
0.0
 11
12.0
 21
9.0
 12
0.0
 22
0.0
 32
0.0
 14
30.0
 24
49.75
 34
0.0
 15
130.5
 25
163.1318914119703
 35
0.0
146
0.0
 13
0.0
 23
0.0
 33
0.0
 16
1.0
 26
0.0
 36
0.0
 17
0.0
 27
1.0
 37
0.0
 76
     0
330
1F
331
29
  0
MLINESTYLE
  5
18
102
{ACAD_REACTORS
330
17
102
}
330
17
100
AcDbMlineStyle
  2
Standard
 70
     0
  3

 62
   256
 51
90.0
 52
90.0
 71
     2
 49
0.5
 62
   256
  6
BYLAYER
 49
-0.5
 62
   256
  6
BYLAYER
  0
ACDBPLACEHOLDER
  5
F
102
{ACAD_REACTORS
330
E
102
}
330
E
  0
VISUALSTYLE
  5
2F
102
{ACAD_REACTORS
330
2A
102
}
330
2A
100
AcDbVisualStyle
  2
2dWireframe
 70
     4
 71
     0
 72
     2
 73
     0
 90
        0
 40
-0.6
 41
-30.0
 62
     5
 63
     7
421
 16777215
 74
     1
 91
        4
 64
     7
 65
   257
 75
     1
175
     1
 42
1.0
 92
        0
 66
   257
 43
1.0
 76
     1
 77
     6
 78
     2
 67
     7
 79
     5
170
     0
171
     0
290
     0
174
     0
 93
        1
 44
0.0
173
     0
291
     0
 45
0.0
1001
ACAD
1000
AcDbSavedByObjectVersion
1070
     0
  0
VISUALSTYLE
  5
31
102
{ACAD_REACTORS
330
2A
102
}
330
2A
100
AcDbVisualStyle
  2
3D Hidden
 70
     6
 71
     1
 72
     2
 73
     2
 90
        0
 40
-0.6
 41
-30.0
 62
     5
 63
     7
421
 16777215
 74
     2
 91
        2
 64
     7
 65
   257
 75
     2
175
     1
 42
40.0
 92
        0
 66
   257
 43
1.0
 76
     1
 77
     6
 78
     2
 67
     7
 79
     3
170
     0
171
     0
290
     0
174
     0
 93
        1
 44
0.0
173
     0
291
     0
 45
0.0
1001
ACAD
1000
AcDbSavedByObjectVersion
1070
     0
  0
VISUALSTYLE
  5
30
102
{ACAD_REACTORS
330
2A
102
}
330
2A
100
AcDbVisualStyle
  2
3dWireframe
 70
     5
 71
     0
 72
     2
 73
     0
 90
        0
 40
-0.6
 41
-30.0
 62
     5
 63
     7
421
 16777215
 74
     1
 91
        4
 64
     7
 65
   257
 75
     1
175
     1
 42
1.0
 92
        0
 66
   257
 43
1.0
 76
     1
 77
     6
 78
     2
 67
     7
 79
     5
170
     0
171
     0
290
     0
174
     0
 93
        1
 44
0.0
173
     0
291
     0
 45
0.0
1001
ACAD
1000
AcDbSavedByObjectVersion
1070
     0
  0
VISUALSTYLE
  5
32
102
{ACAD_REACTORS
330
2A
102
}
330
2A
100
AcDbVisualStyle
  2
Basic
 70
     7
 71
     1
 72
     0
 73
     1
 90
        0
 40
-0.6
 41
-30.0
 62
     5
 63
     7
421
 16777215
 74
     0
 91
        4
 64
     7
 65
   257
 75
     1
175
     1
 42
1.0
 92
        8
 66
     7
 43
1.0
 76
     1
 77
     6
 78
     2
 67
     7
 79
     5
170
     0
171
     0
290
     0
174
     0
 93
        1
 44
0.0
173
     0
291
     1
 45
0.0
1001
ACAD
1000
AcDbSavedByObjectVersion
1070
     0
  0
VISUALSTYLE
  5
36
102
{ACAD_REACTORS
330
2A
102
}
330
2A
100
AcDbVisualStyle
  2
Brighten
 70
    12
 71
     2
 72
     2
 73
     0
 90
        0
 40
-0.6
 41
-30.0
 62
     5
 63
     7
421
 16777215
 74
     1
 91
        4
 64
     7
 65
   257
 75
     1
175
     1
 42
1.0
 92
        8
 66
     7
 43
1.0
 76
     1
 77
     6
 78
     2
 67
     7
 79
     5
170
     0
171
     0
290
     0
174
     0
 93
        1
 44
50.0
173
     0
291
     1
 45
0.0
1001
ACAD
1000
AcDbSavedByObjectVersion
1070
     0
  0
VISUALSTYLE
  5
3A
102
{ACAD_REACTORS
330
2A
102
}
330
2A
100
AcDbVisualStyle
  2
ColorChange
 70
    16
 71
     2
 72
     2
 73
     3
 90
        0
 40
-0.6
 41
-30.0
 62
     5
 63
     8
421
  8421504
 74
     1
 91
        4
 64
     7
 65
   257
 75
     1
175
     1
 42
1.0
 92
        8
 66
     8
424
  8421504
 43
1.0
 76
     1
 77
     6
 78
     2
 67
     7
 79
     5
170
     0
171
     0
290
     0
174
     0
 93
        1
 44
0.0
173
     0
291
     1
 45
0.0
1001
ACAD
1000
AcDbSavedByObjectVersion
1070
     0
  0
VISUALSTYLE
  5
34
102
{ACAD_REACTORS
330
2A
102
}
330
2A
100
AcDbVisualStyle
  2
Conceptual
 70
     9
 71
     3
 72
     2
 73
     0
 90
        0
 40
-0.6
 41
-30.0
 62
     5
 63
     7
421
 16777215
 74
     2
 91
        2
 64
     7
 65
   257
 75
     1
175
     1
 42
40.0
 92
        8
 66
     7
 43
1.0
 76
     1
 77
     6
 78
     2
 67
     7
 79
     3
170
     0
171
     0
290
     0
174
     0
 93
        1
 44
0.0
173
     0
291
     0
 45
0.0
1001
ACAD
1000
AcDbSavedByObjectVersion
1070
     0
  0
VISUALSTYLE
  5
35
102
{ACAD_REACTORS
330
2A
102
}
330
2A
100
AcDbVisualStyle
  2
Dim
 70
    11
 71
     2
 72
     2
 73
     0
 90
        0
 40
-0.6
 41
-30.0
 62
     5
 63
     7
421
 16777215
 74
     1
 91
        4
 64
     7
 65
   257
 75
     1
175
     1
 42
1.0
 92
        8
 66
     7
 43
1.0
 76
     1
 77
     6
 78
     2
 67
     7
 79
     5
170
     0
171
     0
290
     0
174
     0
 93
        1
 44
-50.0
173
     0
291
     1
 45
0.0
1001
ACAD
1000
AcDbSavedByObjectVersion
1070
     0
  0
VISUALSTYLE
  5
39
102
{ACAD_REACTORS
330
2A
102
}
330
2A
100
AcDbVisualStyle
  2
Facepattern
 70
    15
 71
     2
 72
     2
 73
     0
 90
        0
 40
-0.6
 41
-30.0
 62
     5
 63
     7
421
 16777215
 74
     1
 91
        4
 64
     7
 65
   257
 75
     1
175
     1
 42
1.0
 92
        8
 66
     7
 43
1.0
 76
     1
 77
     6
 78
     2
 67
     7
 79
     5
170
     0
171
     0
290
     0
174
     0
 93
        1
 44
0.0
173
     0
291
     1
 45
0.0
1001
ACAD
1000
AcDbSavedByObjectVersion
1070
     0
  0
VISUALSTYLE
  5
2B
102
{ACAD_REACTORS
330
2A
102
}
330
2A
100
AcDbVisualStyle
  2
Flat
 70
     0
 71
     2
 72
     1
 73
     1
 90
        2
 40
-0.6
 41
30.0
 62
     5
 63
     7
421
 16777215
 74
     0
 91
        4
 64
     7
 65
   257
 75
     1
175
     1
 42
1.0
 92
        8
 66
     7
 43
1.0
 76
     1
 77
     6
 78
     2
 67
     7
 79
     5
170
     0
171
     0
290
     0
174
     0
 93
       13
 44
0.0
173
     0
291
     1
 45
0.0
1001
ACAD
1000
AcDbSavedByObjectVersion
1070
     0
  0
VISUALSTYLE
  5
2C
102
{ACAD_REACTORS
330
2A
102
}
330
2A
100
AcDbVisualStyle
  2
FlatWithEdges
 70
     1
 71
     2
 72
     1
 73
     1
 90
        2
 40
-0.6
 41
30.0
 62
     5
 63
     7
421
 16777215
 74
     1
 91
        4
 64
     7
 65
   257
 75
     1
175
     1
 42
1.0
 92
        0
 66
   257
 43
1.0
 76
     1
 77
     6
 78
     2
 67
     7
 79
     5
170
     0
171
     0
290
     0
174
     0
 93
       13
 44
0.0
173
     0
291
     1
 45
0.0
1001
ACAD
1000
AcDbSavedByObjectVersion
1070
     0
  0
VISUALSTYLE
  5
2D
102
{ACAD_REACTORS
330
2A
102
}
330
2A
100
AcDbVisualStyle
  2
Gouraud
 70
     2
 71
     2
 72
     2
 73
     1
 90
        2
 40
-0.6
 41
30.0
 62
     5
 63
     7
421
 16777215
 74
     0
 91
        4
 64
     7
 65
   257
 75
     1
175
     1
 42
1.0
 92
        0
 66
     7
 43
1.0
 76
     1
 77
     6
 78
     2
 67
     7
 79
     5
170
     0
171
     0
290
     0
174
     0
 93
       13
 44
0.0
173
     0
291
     1
 45
0.0
1001
ACAD
1000
AcDbSavedByObjectVersion
1070
     0
  0
VISUALSTYLE
  5
2E
102
{ACAD_REACTORS
330
2A
102
}
330
2A
100
AcDbVisualStyle
  2
GouraudWithEdges
 70
     3
 71
     2
 72
     2
 73
     1
 90
        2
 40
-0.6
 41
30.0
 62
     5
 63
     7
421
 16777215
 74
     1
 91
        4
 64
     7
 65
   257
 75
     1
175
     1
 42
1.0
 92
        0
 66
   257
 43
1.0
 76
     1
 77
     6
 78
     2
 67
     7
 79
     5
170
     0
171
     0
290
     0
174
     0
 93
       13
 44
0.0
173
     0
291
     1
 45
0.0
1001
ACAD
1000
AcDbSavedByObjectVersion
1070
     0
  0
VISUALSTYLE
  5
38
102
{ACAD_REACTORS
330
2A
102
}
330
2A
100
AcDbVisualStyle
  2
Linepattern
 70
    14
 71
     2
 72
     2
 73
     0
 90
        0
 40
-0.6
 41
-30.0
 62
     5
 63
     7
421
 16777215
 74
     1
 91
        4
 64
     7
 65
   257
 75
     7
175
     7
 42
1.0
 92
        8
 66
     7
 43
1.0
 76
     1
 77
     6
 78
     2
 67
     7
 79
     5
170
     0
171
     0
290
     0
174
     0
 93
        1
 44
0.0
173
     0
291
     1
 45
0.0
1001
ACAD
1000
AcDbSavedByObjectVersion
1070
     0
  0
VISUALSTYLE
  5
33
102
{ACAD_REACTORS
330
2A
102
}
330
2A
100
AcDbVisualStyle
  2
Realistic
 70
     8
 71
     2
 72
     2
 73
     0
 90
        0
 40
-0.6
 41
-30.0
 62
     5
 63
     7
421
 16777215
 74
     1
 91
        0
 64
     7
 65
   257
 75
     1
175
     1
 42
1.0
 92
        8
 66
     8
424
  7895160
 43
1.0
 76
     1
 77
     6
 78
     2
 67
     7
 79
     5
170
     0
171
     0
290
     0
174
     0
 93
       13
 44
0.0
173
     0
291
     0
 45
0.0
1001
ACAD
1000
AcDbSavedByObjectVersion
1070
     0
  0
VISUALSTYLE
  5
37
102
{ACAD_REACTORS
330
2A
102
}
330
2A
100
AcDbVisualStyle
  2
Thicken
 70
    13
 71
     2
 72
     2
 73
     0
 90
        0
 40
-0.6
 41
-30.0
 62
     5
 63
     7
421
 16777215
 74
     1
 91
        4
 64
     7
 65
   257
 75
     1
175
     1
 42
1.0
 92
       12
 66
     7
 43
1.0
 76
     1
 77
     6
 78
     2
 67
     7
 79
     5
170
     0
171
     0
290
     0
174
     0
 93
        1
 44
0.0
173
     0
291
     1
 45
0.0
1001
ACAD
1000
AcDbSavedByObjectVersion
1070
     0
  0
ENDSEC
  0
EOF
